<?xml version="1.0" encoding="UTF-8"?>
<svg id="Layer_1" xmlns="http://www.w3.org/2000/svg" version="1.1" viewBox="0 0 283.46 283.54">
  <!-- Generator: Adobe Illustrator 29.8.2, SVG Export Plug-In . SVG Version: 2.1.1 Build 3)  -->
  <defs>
    <style>
      .st0 {
        fill: #085da9;
      }

      .st1 {
        fill: #ffcc03;
      }
    </style>
  </defs>
  <path class="st0" d="M182,104.11v-2.66c-.03-2.51-2.09-4.53-4.6-4.51h-81.4v11.67h81.4c2.51.03,4.57-1.99,4.6-4.5h0"/>
  <path class="st0" d="M100.28,48.8h0c-.02-1.62-1.35-2.93-2.97-2.91-.01,0-.02,0-.03,0h-1.28v5.84h1.36c1.6.06,2.94-1.2,3-2.8,0-.03,0-.05,0-.08"/>
  <path class="st0" d="M133.8,66.3h0c-.04-1.63-1.37-2.92-3-2.92h-34.8v5.87h34.86c1.63,0,2.96-1.29,3-2.92"/>
  <path class="st0" d="M177.42,148h-76.86c-2.48-.04-4.52,1.94-4.56,4.42,0,.01,0,.03,0,.04v10.54c.02,2.49,2.04,4.49,4.53,4.47.02,0,.04,0,.06,0h76.86c2.47.04,4.51-1.92,4.55-4.39,0-.03,0-.05,0-.08v-10.54c-.01-2.46-2.02-4.45-4.48-4.44-.02,0-.05,0-.07,0"/>
  <path class="st0" d="M197.2,0H0v197.28c0,47.64,38.62,86.26,86.26,86.26h55.46v-28.37h141.74V86.26C283.46,38.62,244.84,0,197.2,0M61.2,32.9c.04-2.59,2.17-4.65,4.76-4.62h36c1.41-.01,2.78.49,3.85,1.4l16.64,12.54c.55.41.88,1.04.9,1.73-.02,1.28-1.05,2.3-2.33,2.31h18.39c3.4.03,6.69,1.16,9.39,3.22l13.54,10.16,16.81,12.59c.53.44.84,1.08.85,1.77-.02,1.32-1.1,2.38-2.42,2.36-.01,0-.03,0-.04,0h-111.63c-2.6.02-4.72-2.05-4.76-4.65l.05-38.81ZM61.2,85.57c.04-2.59,2.17-4.67,4.76-4.64h122.54c1.4-.03,2.77.43,3.86,1.32l24.64,18.62c.56.41.9,1.06.93,1.75.01,1.3-1.04,2.37-2.34,2.38-.03,0-.06,0-.09,0h2.11c2.58,0,4.69,2.07,4.75,4.65v14.75c-.09,2.56-2.17,4.61-4.74,4.66h-26.8c-2.59-.01-4.7-2.07-4.76-4.66v-2.74c-.03-2.59-2.15-4.67-4.74-4.64,0,0,0,0,0,0h-83.93v7.38c-.06,2.57-2.18,4.62-4.75,4.6h-26.73c-2.6.02-4.73-2.06-4.76-4.66l.05-38.77ZM222.99,185.57c-16.22,27.82-49.41,40-81.22,40s-65-12.21-81.23-40c-.18-.34-.29-.72-.31-1.11.03-1.3,1.1-2.33,2.4-2.31h37.12c1.29,0,2.34,1.02,2.37,2.31,1.6,15.51,18.74,27.89,39.6,27.89s38-12.38,39.6-27.89c.06-1.29,1.13-2.31,2.42-2.31h37.16c1.28,0,2.32,1.03,2.35,2.31-.02.39-.13.77-.31,1.11M233.02,145.57c.12,9.94-1.58,19.82-5,29.15-.77,1.73-2.48,2.84-4.37,2.86H59.79c-1.89-.02-3.6-1.13-4.38-2.86-3.43-9.33-5.12-19.21-5-29.15v-6c.05-3.36,2.82-6.05,6.18-6,0,0,0,0,0,0h170.34c3.31-.07,6.05,2.57,6.12,5.88,0,.04,0,.08,0,.12l-.03,6Z"/>
  <rect class="st1" x="141.73" y="255.12" width="141.73" height="28.36"/>
</svg>