<?xml version="1.0" encoding="utf-8"?>
<!-- Generator: Adobe Illustrator 23.0.3, SVG Export Plug-In . SVG Version: 6.00 Build 0)  -->
<svg version="1.1" id="Layer_1" xmlns="http://www.w3.org/2000/svg" xmlns:xlink="http://www.w3.org/1999/xlink" x="0px" y="0px"
	 viewBox="0 0 429.2 146" style="enable-background:new 0 0 429.2 146;" xml:space="preserve">
<style type="text/css">
	.st0{fill:#006397;}
</style>
<path class="st0" d="M429.2,0v117.8c0,15.6-12.6,28.2-28.2,28.2H0V0H429.2z M287.9,72.1c0.2-0.2,0.5-0.3,0.7-0.5
	c3.5-1.8,5.3-4.7,5.2-8.6c0-2.5,0-5-0.1-7.4c-0.2-4.9-2.8-8.4-7.4-10c-2.7-1-5.5-1.3-8.4-1.3c-8,0-15.9,0-23.9,0
	c-1.6,0-1.9,0.5-1.9,2c0.1,18.3,0.1,36.7,0,55c0,1.5,0.4,2,2,1.9c8.2-0.1,16.4,0,24.5,0c2,0,4.1-0.1,6.1-0.5
	c6.2-1.2,10.3-5,11.1-10.5c0.3-2.6,0.1-5.2,0.1-7.9c0-6.4-2.2-9.5-8.2-11.6C287.8,72.2,287.8,72.1,287.9,72.1z M264.3,79.5
	c0-1.2,0.2-1.7,1.6-1.6c4.2,0.1,8.3,0,12.5,0c3.5,0.1,5.3,1.6,5.6,5.1c0.2,2,0.1,4.1-0.1,6.1c-0.2,2.4-1.6,3.8-4,4.3
	c-3.7,0.7-7.4,0.3-11.1,0.3c-4.5,0.1-4.5,0-4.5-4.4c0-1.2,0-2.3,0-3.5C264.3,83.7,264.4,81.6,264.3,79.5z M264.3,54.8
	c0-0.6-0.1-1.4,0.9-1.4c4.4,0.1,8.8-0.4,13.1,0.3c2.2,0.4,3.3,1.8,3.4,3.9c0.1,2.1,0.2,4.2,0,6.3c-0.2,2.9-1.9,4.5-4.8,4.6
	c-3.8,0.2-7.6,0.1-11.4,0.1c-1,0-1.3-0.3-1.2-1.3c0-2.1,0-4.2,0-6.4C264.3,59.1,264.3,57,264.3,54.8z M31.3,68.4
	c-3.1,3.1-3,6.6,0.2,9.8c12.4,12.2,24.9,24.5,37.4,36.7c1.8,1.8,3.6,3.5,5.7,5.5c0-7.7,0-14.9,0-22.1c0-1.3-0.3-2.3-1.3-3.3
	C67,89,60.9,82.9,54.7,76.8c-2.5-2.5-2.5-4.6,0-7.1c5.7-5.7,11.4-11.5,17.3-17.1c1.9-1.8,2.6-3.6,2.6-6.2
	c-0.2-6.6-0.1-13.2-0.1-20.3C59.8,40.4,45.5,54.4,31.3,68.4z M83.1,119.8c14.2-13.9,28.4-27.8,42.5-41.8c3.2-3.1,3.1-6.6-0.1-9.8
	C114.8,57.7,104,47.1,93.2,36.5c-3.5-3.4-7-6.8-10.6-10.3c-0.1,0.4-0.2,0.6-0.2,0.8c0,7.3,0,14.6,0,21.9c0,0.9,0.4,1.4,1,2
	c6.3,6.2,12.6,12.4,18.8,18.7c2.5,2.5,2.6,4.6,0.1,7.1c-6.2,6.2-12.5,12.3-18.7,18.5c-0.6,0.5-1.2,1-1.2,2c0,7.6,0,15.2,0,23
	C82.9,120,83,119.9,83.1,119.8z M227.8,45.3c-0.3-1-0.9-1.1-1.8-1.1c-3.1,0-6.1,0-9.2,0c-4.8,0-6.6,1.3-8.2,5.9
	c-3.8,11.1-7.5,22.2-11.3,33.3c-2.2,6.5-4.4,12.9-6.6,19.7c4.1,0,7.9,0,11.8,0c1,0,1.1-0.8,1.3-1.4c1-3,2.1-6,3-9.1
	c0.4-1.2,0.9-1.6,2.1-1.6c6.6,0.1,13.3,0.1,19.9,0c1.3,0,2,0.3,2.3,1.6c0.9,3.1,1.9,6.1,2.9,9.1c0.3,0.8,0.5,1.4,1.6,1.4
	c3.7-0.1,7.4,0,11.5,0C240.7,83.6,234.3,64.4,227.8,45.3z M219,53.7c2.1,6.5,4,12.5,5.9,18.5c0.8,2.5,1.5,5,2.4,7.5
	c0.3,0.8,0.4,1.4-0.8,1.4c-5.2,0-10.5,0-16,0C213.4,71.9,216.1,63,219,53.7z M349.9,87.7c-4.7-13.8-9.4-27.6-13.9-41.4
	c-0.6-1.7-1.3-2.2-3.1-2.1c-2.5,0.2-5,0-7.4,0c-4.6,0-7.8,2.3-9.3,6.6c-4.2,12.5-8.5,24.9-12.7,37.4c-1.6,4.9-3.3,9.7-5,14.8
	c3.9,0,7.4-0.1,11,0c1.4,0,1.9-0.6,2.2-1.7c0.9-2.9,2-5.8,2.8-8.7c0.4-1.2,0.9-1.8,2.3-1.8c6.6,0.1,13.3,0.1,19.9,0
	c1.4,0,1.9,0.5,2.3,1.7c0.9,3,2,5.9,2.9,8.9c0.3,0.9,0.6,1.5,1.7,1.5c3.6-0.1,7.3,0,11.4,0C353.2,97.7,351.5,92.7,349.9,87.7z
	 M318.3,81c2.8-9,5.6-17.9,8.5-27.3c3,9.4,5.8,18.2,8.7,27.3C329.7,81,324.1,81,318.3,81z M159.2,60.9c0.1-4.9,2.1-7.3,6.9-8
	c5.3-0.8,10.6-0.2,16-0.3c4.5-0.1,4.5,0,4.2-4.6c-0.2-3-2.4-5.5-5.2-5.5c-6.2,0-12.4-0.5-18.6,0.4c-10.4,1.4-15.3,7.1-15.3,17.5
	c0,8.5,0,16.9,0,25.4c0,8.9,4.4,14.4,13.2,16.2c8,1.7,16.2,0.7,24.2,0.9c0.4,0,0.8,0,1-0.6c1.7-4.5-1.5-9.4-6.3-9.6
	c-4.3-0.1-8.6,0.3-12.9-0.3c-5-0.7-7.2-3.1-7.2-8.2c0-3.9,0-7.7,0-11.6C159.2,68.8,159.2,64.8,159.2,60.9z M359.1,101.2
	c0,0.9-0.3,1.9,1.3,1.9c11.8-0.1,23.5,0,35.3,0c1.3,0,1.4-0.6,1.4-1.6c0-2.1-0.1-4.2,0-6.3c0.1-1.7-0.5-2.1-2.1-2.1
	c-7.2,0.1-14.5,0-21.7,0.1c-1.8,0-2.2-0.5-2.2-2.2c0.1-14.5,0-28.9,0-43.4c0-4.2,0-4.2-4.2-4.2c-5.3,0-7.9,2.5-7.9,7.9
	c0,8.2,0,16.4,0,24.5C359.1,84.2,359.1,92.7,359.1,101.2z"/>
</svg>
