<?xml version="1.0" encoding="utf-8"?>
<!-- Generator: Adobe Illustrator 15.1.0, SVG Export Plug-In . SVG Version: 6.00 Build 0)  -->
<!DOCTYPE svg PUBLIC "-//W3C//DTD SVG 1.1//EN" "http://www.w3.org/Graphics/SVG/1.1/DTD/svg11.dtd" [
	<!ENTITY ns_extend "http://ns.adobe.com/Extensibility/1.0/">
	<!ENTITY ns_ai "http://ns.adobe.com/AdobeIllustrator/10.0/">
	<!ENTITY ns_graphs "http://ns.adobe.com/Graphs/1.0/">
	<!ENTITY ns_vars "http://ns.adobe.com/Variables/1.0/">
	<!ENTITY ns_imrep "http://ns.adobe.com/ImageReplacement/1.0/">
	<!ENTITY ns_sfw "http://ns.adobe.com/SaveForWeb/1.0/">
	<!ENTITY ns_custom "http://ns.adobe.com/GenericCustomNamespace/1.0/">
	<!ENTITY ns_adobe_xpath "http://ns.adobe.com/XPath/1.0/">
]>
<svg version="1.1" id="Layer_1" xmlns:x="&ns_extend;" xmlns:i="&ns_ai;" xmlns:graph="&ns_graphs;"
	 xmlns="http://www.w3.org/2000/svg" xmlns:xlink="http://www.w3.org/1999/xlink" x="0px" y="0px" width="130.394px"
	 height="34.016px" viewBox="0 0 130.394 34.016" enable-background="new 0 0 130.394 34.016" xml:space="preserve">
<metadata>
	<sfw  xmlns="&ns_sfw;">
		<slices>
			<slice  y="-35" x="-37" width="131" height="36" sliceID="1461531187"></slice>
		</slices>
		<sliceSourceBounds  y="-35" x="-37" width="131" height="36" bottomLeftOrigin="true"></sliceSourceBounds>
	</sfw>
</metadata>
<g>
	<path fill="#0779BE" d="M24.743,34.019c9.146,0.044,17.493-7.582,17.493-16.861C42.236,7.011,33.889,0,24.743,0.002h-7.87
		C7.617,0,0,7.014,0,17.157c0,9.281,7.617,16.905,16.873,16.861H24.743z"/>
	<path fill="#211E1F" d="M48.066,7.321c0-1.61-0.834-1.503-1.633-1.521V5.335c0.692,0.034,1.402,0.034,2.096,0.034
		c0.746,0,1.76-0.034,3.075-0.034c4.601,0,7.105,3.094,7.105,6.262c0,1.771-1.029,6.225-7.319,6.225
		c-0.906,0-1.742-0.035-2.577-0.035c-0.8,0-1.581,0.018-2.38,0.035v-0.465c1.064-0.108,1.58-0.144,1.633-1.36V7.321L48.066,7.321z
		 M49.808,15.711L49.808,15.711c0,1.379,0.978,1.538,1.848,1.538c3.84,0,5.1-2.916,5.1-5.581c0-3.345-2.132-5.76-5.561-5.76
		c-0.729,0-1.065,0.053-1.387,0.071V15.711L49.808,15.711z"/>
	<path fill="#211E1F" d="M59.334,17.357h0.336c0.497,0,0.854,0,0.854-0.592v-4.846c0-0.787-0.268-0.896-0.925-1.251v-0.287
		c0.835-0.252,1.831-0.59,1.901-0.644c0.125-0.073,0.23-0.092,0.32-0.092c0.088,0,0.125,0.108,0.125,0.253v6.867
		c0,0.592,0.391,0.592,0.888,0.592h0.302v0.466c-0.605,0-1.227-0.035-1.865-0.035c-0.64,0-1.279,0.017-1.936,0.035V17.357
		L59.334,17.357z M61.234,6.892L61.234,6.892c-0.463,0-0.87-0.429-0.87-0.895c0-0.448,0.426-0.861,0.87-0.861
		c0.461,0,0.871,0.378,0.871,0.861C62.105,6.482,61.713,6.892,61.234,6.892z"/>
	<path fill="#211E1F" d="M64.824,12.025c0-0.661-0.197-0.839-1.031-1.179v-0.34c0.764-0.251,1.491-0.482,2.344-0.86
		c0.053,0,0.107,0.038,0.107,0.18v1.163c1.014-0.733,1.883-1.343,3.076-1.343c1.507,0,2.041,1.11,2.041,2.506v4.614
		c0,0.592,0.391,0.592,0.889,0.592h0.32v0.466c-0.623,0-1.244-0.035-1.884-0.035s-1.28,0.017-1.919,0.035v-0.466h0.318
		c0.5,0,0.852,0,0.852-0.592v-4.631c0-1.021-0.617-1.521-1.631-1.521c-0.568,0-1.475,0.466-2.063,0.859v5.293
		c0,0.592,0.392,0.592,0.891,0.592h0.318v0.466c-0.621,0-1.244-0.036-1.885-0.036c-0.639,0-1.279,0.018-1.918,0.036v-0.466h0.32
		c0.498,0,0.854,0,0.854-0.592V12.025L64.824,12.025z"/>
	<path fill="#211E1F" d="M73.922,12.885c-0.038,0.162-0.038,0.429,0,1.038c0.105,1.699,1.19,3.093,2.609,3.093
		c0.976,0,1.742-0.536,2.398-1.197l0.248,0.251c-0.818,1.091-1.831,2.02-3.283,2.02c-2.827,0-3.396-2.755-3.396-3.899
		c0-3.507,2.346-4.545,3.589-4.545c1.438,0,2.984,0.912,3.001,2.81c0,0.108,0,0.214-0.017,0.322l-0.161,0.107H73.922L73.922,12.885z
		 M77.066,12.313L77.066,12.313c0.44,0,0.494-0.234,0.494-0.447c0-0.912-0.549-1.646-1.543-1.646c-1.084,0-1.831,0.804-2.043,2.093
		H77.066L77.066,12.313z"/>
	<path fill="#211E1F" d="M79.497,17.357h0.48c0.495,0,0.851,0,0.851-0.592v-5.025c0-0.555-0.656-0.662-0.924-0.806v-0.267
		c1.297-0.556,2.009-1.022,2.17-1.022c0.105,0,0.158,0.054,0.158,0.234v1.609h0.037c0.443-0.697,1.187-1.844,2.27-1.844
		c0.443,0,1.012,0.305,1.012,0.949c0,0.483-0.335,0.914-0.832,0.914c-0.554,0-0.554-0.431-1.174-0.431
		c-0.303,0-1.294,0.411-1.294,1.485v4.202c0,0.592,0.354,0.592,0.849,0.592h0.994v0.466c-0.977-0.019-1.717-0.035-2.483-0.035
		c-0.728,0-1.474,0.017-2.113,0.035V17.357L79.497,17.357z"/>
	<path fill="#211E1F" d="M86.333,15.335c0.233,1.182,0.942,2.184,2.241,2.184c1.047,0,1.438-0.645,1.438-1.271
		c0-2.111-3.874-1.431-3.874-4.311c0-1.002,0.8-2.291,2.757-2.291c0.568,0,1.331,0.162,2.023,0.521l0.125,1.823h-0.408
		c-0.178-1.125-0.798-1.77-1.938-1.77c-0.713,0-1.387,0.411-1.387,1.181c0,2.094,4.123,1.448,4.123,4.256
		c0,1.181-0.941,2.433-3.059,2.433c-0.711,0-1.545-0.249-2.166-0.606l-0.196-2.058L86.333,15.335L86.333,15.335z"/>
	<path fill="#211E1F" d="M107.479,8.573h-0.443c-0.338-2.091-1.813-2.934-3.802-2.934c-2.045,0-5.014,1.377-5.014,5.671
		c0,3.616,2.562,6.208,5.297,6.208c1.758,0,3.217-1.217,3.572-3.094l0.406,0.106l-0.406,2.61c-0.746,0.467-2.754,0.949-3.928,0.949
		c-4.157,0-6.786-2.701-6.786-6.726c0-3.668,3.251-6.298,6.733-6.298c1.438,0,2.826,0.467,4.193,0.949L107.479,8.573L107.479,8.573z
		"/>
	<path fill="#211E1F" d="M108.121,17.357h0.335c0.499,0,0.855,0,0.855-0.592V6.803c0-1.164-0.267-1.2-0.942-1.396V5.122
		c0.711-0.232,1.455-0.555,1.831-0.771c0.193-0.106,0.336-0.196,0.388-0.196c0.109,0,0.145,0.107,0.145,0.251v12.36
		c0,0.592,0.391,0.592,0.889,0.592h0.299v0.466c-0.6,0-1.223-0.035-1.862-0.035s-1.279,0.017-1.937,0.035V17.357L108.121,17.357z"/>
	<path fill="#211E1F" d="M119.528,16.838c0,0.323,0.195,0.341,0.497,0.341c0.213,0,0.479-0.018,0.711-0.018v0.376
		c-0.766,0.07-2.223,0.447-2.561,0.553l-0.088-0.054v-1.447c-1.064,0.876-1.884,1.501-3.146,1.501c-0.958,0-1.955-0.625-1.955-2.127
		v-4.58c0-0.466-0.07-0.913-1.063-1.002v-0.34c0.64-0.018,2.06-0.126,2.289-0.126c0.199,0,0.199,0.126,0.199,0.519v4.614
		c0,0.538,0,2.077,1.543,2.077c0.605,0,1.404-0.466,2.149-1.09v-4.814c0-0.356-0.853-0.553-1.49-0.733v-0.321
		c1.597-0.107,2.593-0.251,2.771-0.251c0.144,0,0.144,0.124,0.144,0.323V16.838L119.528,16.838z"/>
	<path fill="#211E1F" d="M123.064,10.935c0.71-0.608,1.67-1.289,2.647-1.289c2.062,0,3.304,1.81,3.304,3.757
		c0,2.343-1.706,4.687-4.249,4.687c-1.313,0-2.005-0.429-2.468-0.625l-0.532,0.41l-0.372-0.195c0.158-1.056,0.248-2.094,0.248-3.184
		V6.803c0-1.164-0.268-1.2-0.942-1.396V5.122c0.712-0.232,1.457-0.555,1.829-0.771c0.196-0.107,0.338-0.196,0.395-0.196
		c0.104,0,0.14,0.107,0.14,0.251L123.064,10.935L123.064,10.935L123.064,10.935z M123.064,15.801L123.064,15.801
		c0,0.68,0.639,1.825,1.828,1.825c1.902,0,2.701-1.88,2.701-3.471c0-1.932-1.455-3.542-2.842-3.542
		c-0.658,0-1.209,0.431-1.688,0.843V15.801L123.064,15.801z"/>
	<path fill="#211E1F" d="M46.412,28.225h0.137c0.348,0,0.715-0.048,0.715-0.556V22.57c0-0.508-0.367-0.556-0.715-0.556h-0.137
		v-0.292c0.379,0,0.958,0.038,1.434,0.038c0.482,0,1.062-0.038,1.516-0.038v0.292h-0.135c-0.348,0-0.715,0.048-0.715,0.556v5.099
		c0,0.508,0.367,0.556,0.715,0.556h0.135v0.293c-0.463,0-1.045-0.039-1.527-0.039c-0.473,0-1.043,0.039-1.422,0.039V28.225
		L46.412,28.225z"/>
	<path fill="#211E1F" d="M49.362,28.559c-0.468,0-1.046-0.039-1.528-0.039c-0.473,0-1.041,0.039-1.421,0.039h-0.041v-0.041v-0.293
		v-0.042h0.041h0.136c0.351-0.01,0.67-0.038,0.673-0.514V22.57c-0.003-0.477-0.322-0.508-0.673-0.515h-0.177v-0.041v-0.336h0.041
		c0.38,0,0.96,0.04,1.433,0.04c0.48,0,1.059-0.04,1.517-0.04h0.043v0.044v0.333h-0.043h-0.136c-0.35,0.007-0.672,0.038-0.674,0.515
		v5.099c0.002,0.476,0.323,0.504,0.674,0.514h0.179v0.042v0.334H49.362L49.362,28.559z M49.32,28.476L49.32,28.476v-0.208h-0.094
		c-0.346,0-0.756-0.06-0.758-0.599V22.57c0.002-0.538,0.412-0.599,0.758-0.599h0.094v-0.206c-0.445,0-1.006,0.037-1.475,0.037
		c-0.46,0-1.016-0.035-1.39-0.037v0.206h0.092c0.346,0,0.758,0.061,0.758,0.599v5.099c0,0.539-0.412,0.599-0.758,0.599h-0.092v0.208
		c0.374-0.005,0.921-0.039,1.378-0.039C48.305,28.437,48.865,28.473,49.32,28.476L49.32,28.476z"/>
	<path fill="#211E1F" d="M56.004,26.598l0.02-0.019V22.93c0-0.799-0.551-0.915-0.842-0.915h-0.213v-0.292
		c0.455,0,0.9,0.038,1.354,0.038c0.396,0,0.795-0.038,1.19-0.038v0.292h-0.146c-0.406,0-0.861,0.077-0.861,1.236v4.43
		c0,0.34,0.011,0.68,0.059,0.982h-0.369l-4.978-5.588v4.011c0,0.847,0.163,1.139,0.909,1.139h0.163v0.293
		c-0.415,0-0.83-0.039-1.247-0.039c-0.434,0-0.879,0.039-1.314,0.039v-0.293h0.136c0.667,0,0.87-0.457,0.87-1.235v-4.101
		c0-0.545-0.447-0.874-0.879-0.874h-0.127v-0.292c0.368,0,0.744,0.038,1.111,0.038c0.291,0,0.571-0.038,0.861-0.038L56.004,26.598
		L56.004,26.598z"/>
	<path fill="#211E1F" d="M56.563,28.705l-0.398-0.014l-4.906-5.506v3.9c0.011,0.846,0.14,1.087,0.867,1.097h0.207v0.042v0.334H52.29
		c-0.418,0-0.835-0.039-1.247-0.039c-0.433,0-0.877,0.039-1.314,0.039h-0.043v-0.041v-0.335h0.043h0.136
		c0.639-0.004,0.821-0.417,0.829-1.193v-4.099c-0.002-0.519-0.424-0.834-0.838-0.835h-0.17v-0.043v-0.332h0.043
		c0.369,0,0.748,0.038,1.11,0.038c0.288,0,0.567-0.038,0.894-0.023l4.249,4.814v-3.58c-0.005-0.773-0.519-0.867-0.8-0.874h-0.256
		v-0.043v-0.332h0.043c0.457,0,0.902,0.038,1.354,0.038c0.394,0,0.789-0.038,1.189-0.038h0.042v0.042v0.333h-0.042h-0.145
		c-0.398,0.012-0.809,0.047-0.82,1.195v4.429c0,0.341,0.011,0.681,0.058,0.977l0.009,0.049H56.563L56.563,28.705z M56.196,28.619
		L56.196,28.619h0.32c-0.044-0.291-0.052-0.616-0.052-0.939v-4.429c0-1.169,0.486-1.279,0.902-1.279h0.103v-0.206
		c-0.382,0.002-0.763,0.037-1.147,0.037c-0.442,0-0.873-0.035-1.311-0.037l-0.001,0.206h0.171c0.297,0,0.885,0.134,0.885,0.958
		l-0.014,3.679l-0.021,0.021L56,26.659l-4.299-4.894c-0.287,0-0.567,0.037-0.861,0.037c-0.355,0-0.719-0.035-1.068-0.037
		l-0.002,0.206h0.086c0.453,0,0.919,0.349,0.919,0.919v4.099c0,0.778-0.215,1.276-0.91,1.28l-0.093-0.004v0.21
		c0.419-0.005,0.85-0.04,1.271-0.04c0.404,0,0.807,0.035,1.205,0.04V28.27h-0.122c-0.761-0.004-0.95-0.338-0.95-1.184v-4.121
		L56.196,28.619L56.196,28.619z M56.004,26.598L56.004,26.598l0.031-0.027L56.004,26.598z M55.981,26.579L55.981,26.579v-0.003
		l-0.008-0.008L55.981,26.579z"/>
	<path fill="#211E1F" d="M58.959,22.208c-0.725,0-0.752,0.176-0.896,0.886h-0.291c0.038-0.271,0.086-0.543,0.115-0.827
		c0.039-0.272,0.058-0.544,0.058-0.827h0.233c0.077,0.293,0.318,0.283,0.581,0.283h4.987c0.261,0,0.502-0.009,0.522-0.302
		l0.231,0.038c-0.037,0.264-0.077,0.526-0.105,0.789c-0.018,0.263-0.018,0.525-0.018,0.787l-0.291,0.109
		c-0.021-0.359-0.069-0.937-0.716-0.937h-1.586v5.18c0,0.75,0.339,0.837,0.801,0.837h0.185v0.293c-0.377,0-1.055-0.039-1.575-0.039
		c-0.579,0-1.258,0.039-1.636,0.039v-0.293h0.186c0.532,0,0.801-0.049,0.801-0.816v-5.2H58.959L58.959,22.208z"/>
	<path fill="#211E1F" d="M62.771,28.559c-0.381,0-1.058-0.039-1.577-0.039c-0.579,0-1.255,0.039-1.636,0.039H59.52v-0.041v-0.335
		h0.039h0.186c0.533-0.015,0.746-0.021,0.76-0.774V22.25h-1.545v-0.042v-0.043h1.628v5.243c0,0.781-0.313,0.859-0.843,0.861h-0.143
		v0.203c0.381-0.002,1.031-0.036,1.593-0.036c0.505,0,1.15,0.034,1.533,0.036V28.27h-0.142c-0.467-0.002-0.844-0.117-0.844-0.882
		v-5.223h1.628c0.648,0.003,0.733,0.559,0.755,0.92l0.209-0.077c0-0.255,0-0.509,0.02-0.766c0.027-0.251,0.063-0.499,0.099-0.746
		l-0.148-0.026c-0.044,0.284-0.316,0.298-0.558,0.296h-4.987h-0.05c-0.228,0-0.477-0.012-0.563-0.284h-0.16
		c-0.002,0.27-0.02,0.531-0.057,0.79c-0.029,0.268-0.073,0.525-0.109,0.781h0.207c0.128-0.678,0.211-0.898,0.932-0.888v0.043v0.042
		c-0.714,0.015-0.699,0.135-0.856,0.854l-0.007,0.033h-0.033h-0.34l0.006-0.051c0.039-0.271,0.088-0.544,0.116-0.827
		c0.04-0.27,0.06-0.54,0.06-0.82v-0.042h0.04h0.267l0.006,0.03c0.066,0.246,0.246,0.247,0.492,0.251h0.05h4.987
		c0.269-0.004,0.465-0.007,0.48-0.263l0.004-0.045l0.043,0.01l0.273,0.042l-0.006,0.042c-0.039,0.262-0.076,0.525-0.104,0.785
		c-0.021,0.261-0.021,0.523-0.021,0.785v0.031l-0.025,0.012l-0.344,0.124l-0.002-0.057c-0.026-0.365-0.064-0.896-0.675-0.896h-1.544
		v5.138c0.01,0.733,0.299,0.785,0.759,0.795h0.228v0.041v0.335H62.771L62.771,28.559z"/>
	<path fill="#211E1F" d="M64.809,28.225h0.135c0.349,0,0.717-0.048,0.717-0.556V22.57c0-0.508-0.368-0.556-0.717-0.556h-0.135
		v-0.292c0.59,0,1.596,0.038,2.405,0.038c0.815,0,1.819-0.038,2.476-0.038c-0.017,0.418-0.008,1.063,0.021,1.488l-0.291,0.078
		c-0.047-0.632-0.163-1.137-1.178-1.137h-1.344v2.549h1.151c0.578,0,0.705-0.33,0.763-0.857H69.1
		c-0.019,0.381-0.027,0.76-0.027,1.14c0,0.37,0.009,0.74,0.027,1.109l-0.288,0.058c-0.058-0.584-0.087-0.962-0.755-0.962h-1.158
		v2.268c0,0.633,0.559,0.633,1.177,0.633c1.162,0,1.673-0.079,1.964-1.188l0.271,0.067c-0.128,0.518-0.241,1.032-0.327,1.549
		c-0.619,0-1.732-0.039-2.601-0.039c-0.873,0-2.022,0.039-2.573,0.039V28.225L64.809,28.225z"/>
	<path fill="#211E1F" d="M69.98,28.559c-0.619,0-1.732-0.04-2.601-0.04c-0.871,0-2.019,0.04-2.571,0.04h-0.041v-0.041v-0.293v-0.042
		h0.041h0.135c0.352-0.006,0.669-0.038,0.674-0.514V22.57c-0.005-0.475-0.322-0.508-0.674-0.515h-0.176v-0.041v-0.334h0.041
		c0.59,0,1.596,0.038,2.405,0.038c0.813,0,1.815-0.038,2.476-0.038h0.043l-0.002,0.042c-0.006,0.148-0.009,0.32-0.009,0.504
		c0,0.337,0.009,0.705,0.028,0.982l0.002,0.035l-0.032,0.01l-0.341,0.089l-0.002-0.051c-0.057-0.632-0.14-1.09-1.136-1.099h-1.302
		l-0.002,2.464h1.111c0.555-0.006,0.655-0.293,0.721-0.816l0.004-0.039h0.038h0.333l-0.001,0.045
		c-0.019,0.378-0.032,0.757-0.032,1.137c0,0.369,0.014,0.738,0.032,1.108l0.001,0.035l-0.035,0.007l-0.336,0.068l-0.004-0.046
		c-0.066-0.594-0.071-0.92-0.713-0.927h-1.118v2.227c0.001,0.591,0.507,0.587,1.137,0.591c1.164-0.008,1.633-0.063,1.924-1.157
		l0.009-0.038l0.041,0.007l0.311,0.079l-0.01,0.041c-0.125,0.516-0.241,1.03-0.328,1.546l-0.008,0.034H69.98L69.98,28.559z
		 M69.945,28.473L69.945,28.473c0.084-0.489,0.194-0.981,0.313-1.473l-0.189-0.048c-0.291,1.09-0.852,1.186-1.993,1.179
		c-0.607,0-1.218,0-1.22-0.675v-2.312h1.201c0.674-0.007,0.743,0.403,0.792,0.958l0.208-0.044c-0.018-0.358-0.027-0.718-0.027-1.075
		c0-0.366,0.01-0.731,0.027-1.097h-0.208c-0.054,0.506-0.212,0.862-0.8,0.855h-1.193v-2.635h1.386
		c1.006-0.007,1.173,0.516,1.216,1.127l0.209-0.056c-0.018-0.274-0.029-0.627-0.029-0.952c0-0.166,0.004-0.324,0.01-0.461
		c-0.657,0.002-1.637,0.037-2.433,0.037c-0.794,0-1.771-0.035-2.364-0.037v0.206h0.094c0.346,0,0.758,0.061,0.758,0.599v5.099
		c0,0.537-0.412,0.597-0.758,0.601H64.85v0.203c0.564,0,1.682-0.036,2.53-0.036C68.234,28.437,69.32,28.473,69.945,28.473
		L69.945,28.473z"/>
	<path fill="#211E1F" d="M71.614,22.754c0-0.71-0.386-0.739-0.687-0.739h-0.176v-0.293c0.311,0,0.908,0.039,1.5,0.039
		c0.58,0,1.045-0.039,1.556-0.039c1.218,0,2.303,0.332,2.303,1.715c0,0.874-0.58,1.411-1.344,1.713l1.652,2.49
		c0.271,0.411,0.462,0.527,0.935,0.584v0.294c-0.316,0-0.627-0.039-0.944-0.039c-0.299,0-0.611,0.039-0.909,0.039
		c-0.744-0.984-1.383-2.034-2.012-3.154h-0.635v2.083c0,0.75,0.347,0.778,0.79,0.778h0.175v0.293c-0.553,0-1.111-0.039-1.664-0.039
		c-0.463,0-0.918,0.039-1.402,0.039v-0.293h0.176c0.358,0,0.687-0.164,0.687-0.525V22.754L71.614,22.754z M72.854,25.012
		L72.854,25.012h0.471c0.967,0,1.489-0.369,1.489-1.52c0-0.864-0.552-1.42-1.413-1.42c-0.289,0-0.412,0.03-0.547,0.04V25.012
		L72.854,25.012z"/>
	<path fill="#211E1F" d="M77.354,28.559c-0.322,0-0.629-0.039-0.946-0.039c-0.295,0-0.604,0.039-0.94,0.022
		c-0.742-0.979-1.377-2.023-2.002-3.137h-0.572v2.04c0.012,0.732,0.303,0.726,0.75,0.737h0.217v0.042v0.334h-0.043
		c-0.553,0-1.113-0.039-1.662-0.039c-0.463,0-0.914,0.039-1.402,0.039h-0.041v-0.041v-0.335h0.041h0.176
		c0.348-0.003,0.642-0.155,0.643-0.483v-4.945c-0.007-0.691-0.342-0.688-0.643-0.698h-0.217v-0.041V21.68h0.041
		c0.314,0,0.912,0.039,1.5,0.039c0.578,0,1.041-0.039,1.557-0.039c1.219,0.002,2.342,0.341,2.344,1.754
		c0,0.879-0.578,1.429-1.322,1.734l1.623,2.449c0.271,0.403,0.439,0.504,0.907,0.565l0.034,0.005v0.037v0.334H77.354L77.354,28.559z
		 M72.852,25.32L72.852,25.32h0.66l0.012,0.021c0.631,1.118,1.266,2.168,1.977,3.134c0.296,0,0.605-0.04,0.907-0.04
		c0.309,0,0.606,0.034,0.905,0.039v-0.214c-0.451-0.058-0.664-0.193-0.928-0.597l-1.684-2.535l0.049-0.02
		c0.756-0.3,1.316-0.82,1.316-1.676c0-1.35-1.043-1.664-2.258-1.668c-0.51,0-0.975,0.037-1.557,0.037
		c-0.568,0-1.141-0.035-1.457-0.037v0.206h0.133c0.301,0,0.727,0.05,0.727,0.782v4.945c0,0.392-0.363,0.57-0.727,0.57h-0.133v0.205
		c0.464-0.002,0.905-0.039,1.359-0.039c0.541,0,1.086,0.037,1.621,0.039V28.27h-0.133c-0.44,0-0.834-0.057-0.834-0.825V25.32H72.852
		L72.852,25.32z M72.852,25.054L72.852,25.054h-0.043v-2.981l0.037-0.002c0.133-0.011,0.264-0.039,0.555-0.039
		c0.883,0,1.455,0.576,1.455,1.464c-0.002,1.162-0.557,1.558-1.531,1.559H72.852L72.852,25.054z M73.324,24.969L73.324,24.969
		c0.959-0.007,1.438-0.342,1.449-1.474c-0.006-0.851-0.53-1.378-1.373-1.381c-0.262,0-0.385,0.023-0.508,0.035v2.819H73.324
		L73.324,24.969z"/>
	<path fill="#211E1F" d="M83.915,26.598l0.017-0.019V22.93c0-0.799-0.551-0.915-0.84-0.915h-0.209v-0.292
		c0.451,0,0.895,0.038,1.35,0.038c0.397,0,0.793-0.038,1.191-0.038v0.292h-0.146c-0.406,0-0.859,0.077-0.859,1.236v4.43
		c0,0.34,0.01,0.68,0.056,0.982h-0.366l-4.976-5.588v4.011c0,0.847,0.165,1.139,0.909,1.139h0.164v0.293
		c-0.414,0-0.831-0.039-1.245-0.039c-0.438,0-0.883,0.039-1.315,0.039v-0.293h0.133c0.668,0,0.871-0.457,0.871-1.235v-4.101
		c0-0.545-0.444-0.874-0.879-0.874h-0.125v-0.292c0.365,0,0.745,0.038,1.111,0.038c0.287,0,0.57-0.038,0.861-0.038L83.915,26.598
		L83.915,26.598z"/>
	<path fill="#211E1F" d="M84.474,28.705l-0.398-0.014l-4.901-5.506v3.9c0.012,0.846,0.139,1.087,0.869,1.097h0.203v0.042v0.334
		h-0.044c-0.415,0-0.83-0.04-1.245-0.04c-0.433,0-0.879,0.04-1.313,0.04H77.6v-0.041v-0.335h0.045h0.133
		c0.637-0.003,0.822-0.417,0.828-1.195v-4.099c-0.002-0.518-0.424-0.833-0.836-0.833H77.6v-0.041v-0.336h0.045
		c0.367,0,0.746,0.04,1.111,0.04c0.283,0,0.564-0.04,0.888-0.026l4.245,4.817v-3.581c-0.002-0.773-0.516-0.868-0.799-0.873h-0.249
		v-0.041v-0.336h0.042c0.452,0,0.897,0.04,1.35,0.04c0.395,0,0.791-0.04,1.189-0.04h0.041v0.044v0.333h-0.041h-0.145
		c-0.398,0.011-0.81,0.047-0.82,1.195v4.429c0,0.341,0.01,0.679,0.059,0.978l0.005,0.048H84.474L84.474,28.705z M84.107,28.619
		L84.107,28.619h0.316c-0.041-0.291-0.05-0.616-0.05-0.939v-4.429c0-1.169,0.489-1.277,0.903-1.279h0.102v-0.206
		c-0.379,0.002-0.763,0.037-1.146,0.037c-0.443,0-0.874-0.035-1.313-0.037v0.206h0.17c0.299,0.002,0.885,0.134,0.885,0.957
		l-0.014,3.68l-0.018,0.021l-0.029,0.031l-4.301-4.895c-0.285,0-0.564,0.037-0.857,0.037c-0.359,0-0.721-0.035-1.072-0.037v0.206
		h0.086c0.454,0.002,0.92,0.347,0.92,0.917v4.099c0,0.78-0.219,1.278-0.912,1.282l-0.094-0.002v0.205
		c0.417-0.002,0.849-0.036,1.273-0.036c0.405,0,0.807,0.034,1.206,0.036V28.27h-0.12c-0.762-0.002-0.953-0.338-0.955-1.184v-4.118
		L84.107,28.619L84.107,28.619z M83.915,26.598L83.915,26.598l0.028-0.027L83.915,26.598z M83.889,26.579L83.889,26.579v-0.002
		l-0.007-0.009L83.889,26.579z"/>
	<path fill="#211E1F" d="M86.979,27.125c-0.099,0.331-0.216,0.585-0.216,0.759c0,0.293,0.407,0.341,0.726,0.341h0.106v0.293
		c-0.386-0.021-0.782-0.039-1.171-0.039c-0.348,0-0.693,0.018-1.042,0.039v-0.293h0.058c0.377,0,0.697-0.225,0.84-0.634l1.549-4.466
		c0.125-0.361,0.301-0.848,0.358-1.21c0.308-0.105,0.698-0.3,0.88-0.417c0.03-0.01,0.047-0.02,0.076-0.02c0.031,0,0.049,0,0.07,0.03
		c0.028,0.076,0.055,0.165,0.088,0.242l1.777,5.092c0.115,0.34,0.23,0.7,0.355,0.993c0.118,0.272,0.322,0.389,0.641,0.389h0.058
		v0.293c-0.435-0.021-0.87-0.039-1.334-0.039c-0.474,0-0.959,0.018-1.451,0.039v-0.293h0.108c0.221,0,0.598-0.039,0.598-0.282
		c0-0.126-0.086-0.388-0.195-0.701l-0.375-1.13h-2.197L86.979,27.125L86.979,27.125z M88.39,22.813L88.39,22.813h-0.021
		l-0.898,2.754h1.808L88.39,22.813z"/>
	<path fill="#211E1F" d="M92.129,28.559c-0.435-0.02-0.87-0.04-1.331-0.04c-0.474,0-0.954,0.021-1.45,0.04l-0.045,0.004v-0.045
		V28.18h0.044h0.106c0.225,0,0.557-0.05,0.557-0.236c0.002-0.111-0.085-0.38-0.191-0.689l-0.367-1.1h-2.136l-0.3,0.982
		c-0.098,0.333-0.215,0.59-0.213,0.748c0.004,0.238,0.364,0.295,0.686,0.295h0.148v0.045v0.338l-0.044-0.004
		c-0.387-0.02-0.782-0.04-1.167-0.04c-0.346,0-0.695,0.021-1.042,0.04l-0.044,0.004v-0.045V28.18h0.042h0.058
		c0.359,0,0.66-0.206,0.799-0.602l1.548-4.468c0.128-0.36,0.303-0.846,0.386-1.235c0.303-0.103,0.693-0.299,0.879-0.417
		c0.027-0.009,0.055-0.022,0.094-0.022c0.023-0.001,0.075,0.006,0.106,0.057c0.026,0.081,0.058,0.168,0.087,0.246l1.781,5.091
		c0.114,0.341,0.229,0.702,0.354,0.989c0.114,0.259,0.291,0.361,0.602,0.361h0.101v0.045v0.338L92.129,28.559L92.129,28.559z
		 M89.39,28.471L89.39,28.471c0.478-0.017,0.946-0.035,1.408-0.035c0.449,0,0.87,0.019,1.29,0.035V28.27h-0.014
		c-0.33,0.001-0.559-0.129-0.678-0.418c-0.126-0.295-0.244-0.656-0.359-0.996l-1.777-5.09c-0.03-0.078-0.059-0.167-0.084-0.234
		c-0.008-0.01-0.006-0.01-0.014-0.01h-0.018c-0.02,0-0.031,0.005-0.058,0.012c-0.187,0.122-0.574,0.314-0.862,0.389
		c-0.059,0.369-0.232,0.855-0.359,1.216l-1.546,4.468c-0.149,0.422-0.487,0.664-0.88,0.664h-0.016v0.201
		c0.331-0.017,0.666-0.035,1.002-0.035c0.373,0,0.755,0.019,1.125,0.035V28.27h-0.063c-0.314-0.005-0.755-0.04-0.767-0.385
		c0-0.194,0.12-0.443,0.214-0.771l0.043,0.012l-0.043-0.014l0.316-1.041h2.258l0.387,1.158c0.109,0.312,0.197,0.57,0.197,0.714
		c-0.013,0.299-0.421,0.319-0.641,0.327H89.39V28.471L89.39,28.471z M87.412,25.609L87.412,25.609l0.925-2.84h0.031h0.021v0.043
		l-0.012,0.002l0.012-0.002V22.77h0.026l0.921,2.84H87.412z M87.525,25.524L87.525,25.524h1.694l-0.842-2.608L87.525,25.524z
		 M88.347,22.824L88.347,22.824l0.021-0.007L88.347,22.824z"/>
	<path fill="#211E1F" d="M92.556,22.208c-0.724,0-0.753,0.176-0.897,0.886h-0.291c0.037-0.271,0.086-0.543,0.117-0.827
		c0.039-0.272,0.057-0.544,0.057-0.827h0.232c0.077,0.293,0.32,0.283,0.58,0.283h4.99c0.26,0,0.501-0.009,0.521-0.302l0.23,0.038
		c-0.037,0.264-0.074,0.526-0.104,0.789c-0.021,0.263-0.021,0.525-0.021,0.787l-0.288,0.109c-0.02-0.359-0.066-0.937-0.715-0.937
		h-1.586v5.18c0,0.75,0.34,0.837,0.801,0.837h0.185v0.293c-0.376,0-1.052-0.039-1.575-0.039c-0.578,0-1.258,0.039-1.635,0.039
		v-0.293h0.183c0.532,0,0.806-0.049,0.806-0.816v-5.2H92.556L92.556,22.208z"/>
	<path fill="#211E1F" d="M96.366,28.559c-0.38,0-1.056-0.039-1.575-0.039c-0.578,0-1.256,0.039-1.635,0.039h-0.043v-0.041v-0.335
		h0.043h0.183c0.532-0.015,0.747-0.021,0.761-0.774l-0.002-5.158h-1.542v-0.042v-0.043h1.629v5.243c0,0.781-0.314,0.857-0.846,0.859
		h-0.143v0.208c0.384-0.005,1.034-0.039,1.595-0.039c0.504,0,1.151,0.034,1.533,0.039v-0.208h-0.143
		c-0.465-0.002-0.843-0.114-0.843-0.88v-5.223h1.628c0.648,0.003,0.733,0.559,0.752,0.92l0.211-0.077c0-0.255,0-0.509,0.02-0.765
		c0.027-0.251,0.063-0.5,0.1-0.747l-0.146-0.026c-0.044,0.284-0.318,0.299-0.559,0.296h-4.99h-0.049
		c-0.229,0.002-0.476-0.012-0.563-0.285h-0.158c-0.002,0.271-0.021,0.532-0.059,0.791c-0.024,0.269-0.073,0.526-0.109,0.781h0.208
		c0.127-0.678,0.211-0.898,0.933-0.888v0.043v0.042c-0.716,0.014-0.7,0.135-0.858,0.854l-0.008,0.033h-0.031h-0.342l0.008-0.048
		c0.039-0.275,0.089-0.547,0.117-0.828C91.48,21.99,91.5,21.72,91.5,21.439v-0.042h0.041h0.264l0.008,0.03
		c0.068,0.246,0.244,0.247,0.492,0.251l0.049,0.002h4.99c0.268-0.006,0.462-0.009,0.479-0.264l0.002-0.046l0.044,0.01l0.275,0.042
		l-0.007,0.042c-0.04,0.262-0.077,0.525-0.106,0.785c-0.02,0.261-0.02,0.524-0.02,0.785v0.031l-0.026,0.012l-0.343,0.124
		l-0.004-0.057c-0.023-0.365-0.063-0.896-0.672-0.896h-1.543v5.138c0.008,0.733,0.297,0.785,0.758,0.795h0.227v0.042v0.334H96.366
		L96.366,28.559z"/>
	<path fill="#211E1F" d="M98.453,28.225h0.137c0.35,0,0.714-0.048,0.714-0.556V22.57c0-0.508-0.364-0.556-0.714-0.556h-0.137v-0.292
		c0.378,0,0.957,0.038,1.43,0.038c0.484,0,1.064-0.038,1.52-0.038v0.292h-0.135c-0.348,0-0.719,0.048-0.719,0.556v5.099
		c0,0.508,0.371,0.556,0.719,0.556h0.135v0.293c-0.465,0-1.047-0.039-1.528-0.039c-0.474,0-1.043,0.039-1.421,0.039V28.225
		L98.453,28.225z"/>
	<path fill="#211E1F" d="M101.402,28.559c-0.467,0-1.047-0.04-1.528-0.04c-0.473,0-1.043,0.04-1.421,0.04h-0.042v-0.041v-0.293
		v-0.042h0.042h0.137c0.35-0.006,0.669-0.036,0.67-0.514V22.57c-0.001-0.475-0.32-0.508-0.67-0.515h-0.179v-0.041v-0.334h0.042
		c0.378,0,0.958,0.038,1.43,0.038c0.482,0,1.063-0.038,1.52-0.038h0.041v0.042v0.333h-0.041h-0.135
		c-0.354,0.007-0.672,0.04-0.676,0.515v5.099c0.004,0.478,0.322,0.508,0.676,0.514h0.176v0.042v0.334H101.402L101.402,28.559z
		 M101.36,28.473L101.36,28.473v-0.205h-0.093c-0.348,0-0.758-0.062-0.758-0.599V22.57c0-0.538,0.41-0.599,0.758-0.599h0.093v-0.206
		c-0.447,0.002-1.007,0.037-1.478,0.037c-0.458,0-1.012-0.035-1.387-0.037v0.206h0.094c0.344,0,0.754,0.061,0.756,0.599v5.099
		c-0.002,0.537-0.412,0.599-0.756,0.599h-0.094v0.205c0.373-0.003,0.92-0.036,1.378-0.036
		C100.344,28.437,100.903,28.471,101.36,28.473L101.36,28.473z"/>
	<path fill="#211E1F" d="M105.257,21.576c2.062,0,3.704,1.287,3.704,3.36c0,2.238-1.594,3.727-3.652,3.727
		c-2.051,0-3.615-1.401-3.615-3.495C101.693,23.145,103.248,21.576,105.257,21.576L105.257,21.576z M105.403,28.234L105.403,28.234
		c1.877,0,2.203-1.666,2.203-3.085c0-1.423-0.762-3.146-2.368-3.146c-1.691,0-2.193,1.52-2.193,2.822
		C103.045,26.568,103.837,28.234,105.403,28.234L105.403,28.234z"/>
	<path fill="#211E1F" d="M101.648,25.168c0.005-2.048,1.578-3.631,3.608-3.635v0.043v0.041c-1.985,0-3.524,1.547-3.527,3.551
		c0.005,2.07,1.548,3.45,3.579,3.451c2.037-0.001,3.609-1.468,3.613-3.686c-0.002-2.046-1.621-3.313-3.665-3.316v-0.041v-0.043
		c2.077,0.002,3.741,1.301,3.747,3.4c-0.002,2.262-1.619,3.767-3.695,3.771C103.241,28.7,101.653,27.285,101.648,25.168
		L101.648,25.168L101.648,25.168z M103.004,24.826L103.004,24.826c0.002-1.309,0.51-2.866,2.235-2.866
		c1.641,0.005,2.407,1.76,2.411,3.189c-0.004,1.419-0.335,3.126-2.247,3.126v-0.041v-0.041c1.839-0.004,2.158-1.625,2.163-3.044
		c0-1.411-0.756-3.101-2.327-3.103c-1.659,0.002-2.149,1.483-2.152,2.779c0.002,1.734,0.786,3.363,2.316,3.367v0.041v0.041
		C103.8,28.273,103.006,26.579,103.004,24.826L103.004,24.826z"/>
	<path fill="#211E1F" d="M115.477,26.598l0.021-0.019V22.93c0-0.799-0.554-0.915-0.843-0.915h-0.21v-0.292
		c0.454,0,0.898,0.038,1.351,0.038c0.397,0,0.793-0.038,1.191-0.038v0.292h-0.146c-0.404,0-0.859,0.077-0.859,1.236v4.43
		c0,0.34,0.008,0.68,0.058,0.982h-0.366l-4.98-5.588v4.011c0,0.847,0.162,1.139,0.908,1.139h0.164v0.293
		c-0.416,0-0.83-0.039-1.246-0.039c-0.436,0-0.881,0.039-1.316,0.039v-0.293h0.136c0.669,0,0.87-0.457,0.87-1.235v-4.101
		c0-0.545-0.442-0.874-0.88-0.874h-0.126v-0.292c0.367,0,0.745,0.038,1.113,0.038c0.289,0,0.568-0.038,0.859-0.038L115.477,26.598
		L115.477,26.598z"/>
	<path fill="#211E1F" d="M116.039,28.705l-0.4-0.014l-4.906-5.506v3.9c0.012,0.846,0.139,1.086,0.865,1.094h0.209v0.045v0.334
		h-0.043c-0.418,0-0.833-0.039-1.246-0.039c-0.434,0-0.878,0.039-1.316,0.039h-0.041v-0.041V28.18h0.041h0.136
		c0.638-0.001,0.821-0.414,0.829-1.19v-4.101c0-0.518-0.422-0.833-0.839-0.833h-0.167v-0.041v-0.334h0.041
		c0.371,0,0.747,0.038,1.111,0.038c0.287,0,0.566-0.038,0.893-0.023l4.249,4.814v-3.58c-0.003-0.773-0.519-0.867-0.8-0.874H114.4
		v-0.041v-0.334h0.043c0.455,0,0.9,0.038,1.352,0.038c0.396,0,0.791-0.038,1.191-0.038h0.041v0.042v0.333h-0.041h-0.146
		c-0.398,0.012-0.811,0.048-0.817,1.195v4.429c0,0.341,0.007,0.68,0.054,0.978l0.009,0.048H116.039L116.039,28.705z M115.672,28.619
		L115.672,28.619h0.316c-0.043-0.291-0.049-0.616-0.049-0.939v-4.429c0-1.172,0.486-1.277,0.9-1.279h0.104v-0.206
		c-0.382,0.002-0.764,0.037-1.149,0.037c-0.44,0-0.873-0.035-1.311-0.037v0.206h0.17c0.299,0.002,0.881,0.136,0.881,0.958
		l-0.008,3.679l-0.02,0.021l-0.031,0.031l-4.303-4.895c-0.285,0-0.566,0.037-0.859,0.037c-0.356,0-0.719-0.035-1.072-0.037v0.206
		h0.085c0.454,0.002,0.922,0.347,0.922,0.917v4.101c0,0.778-0.216,1.276-0.91,1.28l-0.097-0.002v0.205
		c0.42-0.002,0.851-0.036,1.275-0.036c0.402,0,0.803,0.034,1.205,0.036V28.27h-0.125c-0.759-0.002-0.948-0.338-0.948-1.184v-4.121
		L115.672,28.619L115.672,28.619z M115.477,26.598L115.477,26.598l0.031-0.027L115.477,26.598z M115.454,26.579L115.454,26.579
		v-0.002l-0.009-0.009L115.454,26.579z"/>
	<path fill="#211E1F" d="M118.539,27.125c-0.094,0.331-0.211,0.585-0.211,0.759c0,0.293,0.406,0.341,0.723,0.341h0.107v0.293
		c-0.387-0.021-0.782-0.039-1.168-0.039c-0.351,0-0.697,0.018-1.043,0.039v-0.293h0.055c0.378,0,0.699-0.225,0.842-0.634
		l1.548-4.466c0.125-0.361,0.3-0.848,0.356-1.21c0.309-0.105,0.696-0.3,0.883-0.417c0.027-0.01,0.047-0.02,0.076-0.02
		c0.028,0,0.047,0,0.064,0.03c0.031,0.076,0.061,0.165,0.089,0.242l1.779,5.092c0.116,0.34,0.229,0.7,0.358,0.993
		c0.115,0.272,0.318,0.389,0.638,0.389h0.058v0.293c-0.436-0.021-0.871-0.039-1.334-0.039c-0.474,0-0.957,0.018-1.449,0.039v-0.293
		h0.106c0.22,0,0.6-0.039,0.6-0.282c0-0.126-0.087-0.388-0.196-0.701l-0.375-1.13h-2.195L118.539,27.125L118.539,27.125z
		 M119.953,22.813L119.953,22.813h-0.02l-0.9,2.754h1.809L119.953,22.813z"/>
	<path fill="#211E1F" d="M123.689,28.559c-0.434-0.018-0.869-0.039-1.33-0.039c-0.472,0-0.957,0.021-1.449,0.039l-0.043,0.004
		v-0.045v-0.335h0.043h0.104c0.226,0,0.559-0.053,0.559-0.24c0.002-0.111-0.085-0.376-0.194-0.688l-0.367-1.1h-2.133l-0.301,0.982
		c-0.094,0.333-0.211,0.59-0.209,0.747c0,0.239,0.363,0.299,0.682,0.299h0.148v0.042v0.338l-0.043-0.004
		c-0.387-0.018-0.782-0.039-1.166-0.039c-0.348,0-0.695,0.021-1.043,0.039l-0.042,0.004v-0.045v-0.335h0.042h0.055
		c0.359-0.003,0.662-0.211,0.803-0.604l1.547-4.468c0.123-0.36,0.299-0.846,0.385-1.232c0.303-0.106,0.691-0.302,0.879-0.42
		c0.025-0.009,0.053-0.021,0.092-0.021c0.025-0.003,0.074,0.004,0.105,0.057c0.028,0.076,0.058,0.164,0.089,0.243l1.778,5.092
		c0.116,0.341,0.23,0.702,0.355,0.99c0.113,0.258,0.291,0.36,0.599,0.363h0.101v0.042v0.338L123.689,28.559L123.689,28.559z
		 M120.951,28.473L120.951,28.473c0.478-0.019,0.948-0.037,1.408-0.037c0.449,0,0.871,0.019,1.293,0.035l-0.003-0.201h-0.016
		c-0.326,0-0.556-0.129-0.675-0.418c-0.129-0.295-0.242-0.656-0.359-0.996l-1.779-5.09c-0.029-0.078-0.059-0.167-0.081-0.232
		c-0.009-0.013-0.007-0.013-0.015-0.013h-0.018c-0.021,0-0.031,0.007-0.057,0.013c-0.187,0.119-0.574,0.314-0.861,0.389
		c-0.06,0.369-0.234,0.854-0.359,1.216l-1.549,4.468c-0.146,0.422-0.484,0.664-0.879,0.664h-0.016v0.201
		c0.334-0.017,0.666-0.035,1.002-0.035c0.375,0,0.756,0.019,1.129,0.035V28.27h-0.066c-0.314-0.005-0.754-0.04-0.766-0.386
		c0.002-0.193,0.122-0.44,0.215-0.771l0.039,0.012l-0.039-0.014l0.318-1.041h2.254l0.389,1.157c0.106,0.313,0.193,0.571,0.193,0.715
		c-0.014,0.299-0.418,0.319-0.64,0.327h-0.063V28.473L120.951,28.473z M118.975,25.609L118.975,25.609l0.928-2.84h0.029h0.021v0.043
		l-0.01,0.002l0.01-0.002V22.77h0.029l0.914,2.84H118.975z M119.091,25.524L119.091,25.524h1.69l-0.84-2.606L119.091,25.524
		L119.091,25.524z M119.912,22.824L119.912,22.824l0.02-0.007L119.912,22.824z"/>
	<path fill="#211E1F" d="M126.131,27.563c0,0.39,0.269,0.505,0.578,0.545c0.396,0.029,0.831,0.029,1.278-0.02
		c0.403-0.05,0.752-0.282,0.926-0.525c0.154-0.216,0.24-0.487,0.299-0.702h0.281c-0.106,0.555-0.241,1.102-0.358,1.656
		c-0.85,0-1.702-0.039-2.552-0.039c-0.853,0-1.7,0.039-2.552,0.039v-0.294h0.133c0.35,0,0.729-0.047,0.729-0.65V22.57
		c0-0.508-0.379-0.556-0.729-0.556h-0.133v-0.292c0.511,0,1.016,0.038,1.525,0.038c0.496,0,0.978-0.038,1.471-0.038v0.292h-0.242
		c-0.366,0-0.654,0.011-0.654,0.525V27.563L126.131,27.563z"/>
	<path fill="#211E1F" d="M129.135,28.559c-0.853,0-1.703-0.039-2.552-0.039c-0.851,0-1.702,0.039-2.554,0.039h-0.041v-0.041v-0.335
		h0.041h0.135c0.351-0.01,0.682-0.033,0.686-0.609v-5.005c-0.004-0.473-0.333-0.506-0.686-0.513h-0.176v-0.041v-0.334h0.041
		c0.515,0,1.018,0.038,1.529,0.038c0.49,0,0.974-0.038,1.469-0.038h0.041v0.042v0.333h-0.041h-0.242
		c-0.374,0.011-0.607-0.007-0.615,0.484v5.023c0.004,0.362,0.238,0.46,0.541,0.502c0.17,0.013,0.35,0.021,0.535,0.021
		c0.238,0,0.482-0.012,0.732-0.039c0.395-0.046,0.733-0.274,0.9-0.507c0.148-0.208,0.234-0.476,0.292-0.688l0.008-0.032h0.033h0.333
		l-0.01,0.052c-0.109,0.557-0.242,1.101-0.359,1.654l-0.009,0.033H129.135L129.135,28.559L129.135,28.559z M129.1,28.473
		L129.1,28.473c0.112-0.527,0.239-1.043,0.343-1.57h-0.198c-0.061,0.213-0.146,0.474-0.299,0.688
		c-0.181,0.252-0.537,0.489-0.957,0.541c-0.253,0.025-0.504,0.04-0.742,0.04c-0.186,0-0.367-0.01-0.543-0.021
		c-0.314-0.035-0.619-0.17-0.618-0.586V22.54c0-0.54,0.34-0.568,0.7-0.568h0.201v-0.206c-0.477,0.002-0.947,0.037-1.428,0.037
		c-0.502,0-0.992-0.035-1.487-0.037v0.206h0.093c0.345,0,0.769,0.061,0.769,0.597v5.005c0,0.629-0.422,0.694-0.769,0.694h-0.093
		v0.205c0.835,0,1.673-0.036,2.512-0.036C127.424,28.437,128.264,28.473,129.1,28.473L129.1,28.473z"/>
	<path fill="#211E1F" d="M129.375,21.446c0.582,0,1.018,0.45,1.018,1.028c0,0.575-0.436,1.021-1.018,1.021s-1.018-0.446-1.018-1.021
		C128.357,21.896,128.793,21.446,129.375,21.446z M129.375,23.305L129.375,23.305c0.455,0,0.805-0.391,0.805-0.83
		c0-0.442-0.344-0.837-0.805-0.837c-0.456,0-0.809,0.395-0.809,0.837C128.566,22.914,128.919,23.305,129.375,23.305z
		 M128.868,23.015L128.868,23.015v-0.052c0.126-0.017,0.147-0.013,0.147-0.092v-0.758c0-0.106-0.012-0.143-0.143-0.137v-0.053h0.52
		c0.182,0,0.345,0.085,0.345,0.271c0,0.153-0.1,0.266-0.239,0.31l0.166,0.235c0.078,0.105,0.166,0.206,0.225,0.241v0.033h-0.197
		c-0.096,0-0.18-0.202-0.368-0.474h-0.111v0.342c0,0.067,0.022,0.063,0.149,0.08v0.052H128.868L128.868,23.015z M129.212,22.475
		L129.212,22.475h0.12c0.131,0,0.193-0.102,0.193-0.262c0-0.164-0.096-0.222-0.199-0.222h-0.114V22.475z"/>
	<path fill="#FFFFFF" d="M17.076,1.408C8.535,1.412,1.615,8.38,1.613,16.979c0.002,8.599,6.922,15.567,15.463,15.569
		c8.541-0.002,15.463-6.971,15.464-15.569C32.539,8.38,25.617,1.412,17.076,1.408z M13.566,26.188
		c-3.677-1.422-6.284-5.005-6.292-9.208c0.009-4.202,2.615-7.786,6.292-9.21V26.188z M20.583,26.192V7.769
		c3.678,1.42,6.289,5.006,6.296,9.21C26.872,21.187,24.261,24.769,20.583,26.192z"/>
	<path fill="#211E1F" d="M48.066,7.321c0-1.61-0.834-1.503-1.633-1.521V5.335c0.692,0.034,1.402,0.034,2.096,0.034
		c0.746,0,1.76-0.034,3.075-0.034c4.601,0,7.105,3.094,7.105,6.262c0,1.771-1.029,6.225-7.319,6.225
		c-0.906,0-1.742-0.035-2.577-0.035c-0.8,0-1.581,0.018-2.38,0.035v-0.465c1.064-0.108,1.58-0.144,1.633-1.36V7.321L48.066,7.321z
		 M49.808,15.711L49.808,15.711c0,1.379,0.978,1.538,1.848,1.538c3.84,0,5.1-2.916,5.1-5.581c0-3.345-2.132-5.76-5.561-5.76
		c-0.729,0-1.065,0.053-1.387,0.071V15.711L49.808,15.711z"/>
	<path fill="#211E1F" d="M59.334,17.357h0.336c0.497,0,0.854,0,0.854-0.592v-4.846c0-0.787-0.268-0.896-0.925-1.251v-0.287
		c0.835-0.252,1.831-0.59,1.901-0.644c0.125-0.073,0.23-0.092,0.32-0.092c0.088,0,0.125,0.108,0.125,0.253v6.867
		c0,0.592,0.391,0.592,0.888,0.592h0.302v0.466c-0.605,0-1.227-0.035-1.865-0.035c-0.64,0-1.279,0.017-1.936,0.035V17.357
		L59.334,17.357z M61.234,6.892L61.234,6.892c-0.463,0-0.87-0.429-0.87-0.895c0-0.448,0.426-0.861,0.87-0.861
		c0.461,0,0.871,0.378,0.871,0.861C62.105,6.482,61.713,6.892,61.234,6.892z"/>
	<path fill="#211E1F" d="M64.824,12.025c0-0.661-0.197-0.839-1.031-1.179v-0.34c0.764-0.251,1.491-0.482,2.344-0.86
		c0.053,0,0.107,0.038,0.107,0.18v1.163c1.014-0.733,1.883-1.343,3.076-1.343c1.507,0,2.041,1.11,2.041,2.506v4.614
		c0,0.592,0.391,0.592,0.889,0.592h0.32v0.466c-0.623,0-1.244-0.035-1.884-0.035s-1.28,0.017-1.919,0.035v-0.466h0.318
		c0.5,0,0.852,0,0.852-0.592v-4.631c0-1.021-0.617-1.521-1.631-1.521c-0.568,0-1.475,0.466-2.063,0.859v5.293
		c0,0.592,0.392,0.592,0.891,0.592h0.318v0.466c-0.621,0-1.244-0.036-1.885-0.036c-0.639,0-1.279,0.018-1.918,0.036v-0.466h0.32
		c0.498,0,0.854,0,0.854-0.592V12.025L64.824,12.025z"/>
	<path fill="#211E1F" d="M73.922,12.885c-0.038,0.162-0.038,0.429,0,1.038c0.105,1.699,1.19,3.093,2.609,3.093
		c0.976,0,1.742-0.536,2.398-1.197l0.248,0.251c-0.818,1.091-1.831,2.02-3.283,2.02c-2.827,0-3.396-2.755-3.396-3.899
		c0-3.507,2.346-4.545,3.589-4.545c1.438,0,2.984,0.912,3.001,2.81c0,0.108,0,0.214-0.017,0.322l-0.161,0.107H73.922L73.922,12.885z
		 M77.066,12.313L77.066,12.313c0.44,0,0.494-0.234,0.494-0.447c0-0.912-0.549-1.646-1.543-1.646c-1.084,0-1.831,0.804-2.043,2.093
		H77.066L77.066,12.313z"/>
	<path fill="#211E1F" d="M79.497,17.357h0.48c0.495,0,0.851,0,0.851-0.592v-5.025c0-0.555-0.656-0.662-0.924-0.806v-0.267
		c1.297-0.556,2.009-1.022,2.17-1.022c0.105,0,0.158,0.054,0.158,0.234v1.609h0.037c0.443-0.697,1.187-1.844,2.27-1.844
		c0.443,0,1.012,0.305,1.012,0.949c0,0.483-0.335,0.914-0.832,0.914c-0.554,0-0.554-0.431-1.174-0.431
		c-0.303,0-1.294,0.411-1.294,1.485v4.202c0,0.592,0.354,0.592,0.849,0.592h0.994v0.466c-0.977-0.019-1.717-0.035-2.483-0.035
		c-0.728,0-1.474,0.017-2.113,0.035V17.357L79.497,17.357z"/>
	<path fill="#211E1F" d="M86.333,15.335c0.233,1.182,0.942,2.184,2.241,2.184c1.047,0,1.438-0.645,1.438-1.271
		c0-2.111-3.874-1.431-3.874-4.311c0-1.002,0.8-2.291,2.757-2.291c0.568,0,1.331,0.162,2.023,0.521l0.125,1.823h-0.408
		c-0.178-1.125-0.798-1.77-1.938-1.77c-0.713,0-1.387,0.411-1.387,1.181c0,2.094,4.123,1.448,4.123,4.256
		c0,1.181-0.941,2.433-3.059,2.433c-0.711,0-1.545-0.249-2.166-0.606l-0.196-2.058L86.333,15.335L86.333,15.335z"/>
	<path fill="#211E1F" d="M107.479,8.573h-0.443c-0.338-2.091-1.813-2.934-3.802-2.934c-2.045,0-5.014,1.377-5.014,5.671
		c0,3.616,2.562,6.208,5.297,6.208c1.758,0,3.217-1.217,3.572-3.094l0.406,0.106l-0.406,2.61c-0.746,0.467-2.754,0.949-3.928,0.949
		c-4.157,0-6.786-2.701-6.786-6.726c0-3.668,3.251-6.298,6.733-6.298c1.438,0,2.826,0.467,4.193,0.949L107.479,8.573L107.479,8.573z
		"/>
	<path fill="#211E1F" d="M108.121,17.357h0.335c0.499,0,0.855,0,0.855-0.592V6.803c0-1.164-0.267-1.2-0.942-1.396V5.122
		c0.711-0.232,1.455-0.555,1.831-0.771c0.193-0.106,0.336-0.196,0.388-0.196c0.109,0,0.145,0.107,0.145,0.251v12.36
		c0,0.592,0.391,0.592,0.889,0.592h0.299v0.466c-0.6,0-1.223-0.035-1.862-0.035s-1.279,0.017-1.937,0.035V17.357L108.121,17.357z"/>
	<path fill="#211E1F" d="M119.528,16.838c0,0.323,0.195,0.341,0.497,0.341c0.213,0,0.479-0.018,0.711-0.018v0.376
		c-0.766,0.07-2.223,0.447-2.561,0.553l-0.088-0.054v-1.447c-1.064,0.876-1.884,1.501-3.146,1.501c-0.958,0-1.955-0.625-1.955-2.127
		v-4.58c0-0.466-0.07-0.913-1.063-1.002v-0.34c0.64-0.018,2.06-0.126,2.289-0.126c0.199,0,0.199,0.126,0.199,0.519v4.614
		c0,0.538,0,2.077,1.543,2.077c0.605,0,1.404-0.466,2.149-1.09v-4.814c0-0.356-0.853-0.553-1.49-0.733v-0.321
		c1.597-0.107,2.593-0.251,2.771-0.251c0.144,0,0.144,0.124,0.144,0.323V16.838L119.528,16.838z"/>
	<path fill="#211E1F" d="M123.064,10.935c0.71-0.608,1.67-1.289,2.647-1.289c2.062,0,3.304,1.81,3.304,3.757
		c0,2.343-1.706,4.687-4.249,4.687c-1.313,0-2.005-0.429-2.468-0.625l-0.532,0.41l-0.372-0.195c0.158-1.056,0.248-2.094,0.248-3.184
		V6.803c0-1.164-0.268-1.2-0.942-1.396V5.122c0.712-0.232,1.457-0.555,1.829-0.771c0.196-0.107,0.338-0.196,0.395-0.196
		c0.104,0,0.14,0.107,0.14,0.251L123.064,10.935L123.064,10.935L123.064,10.935z M123.064,15.801L123.064,15.801
		c0,0.68,0.639,1.825,1.828,1.825c1.902,0,2.701-1.88,2.701-3.471c0-1.932-1.455-3.542-2.842-3.542
		c-0.658,0-1.209,0.431-1.688,0.843V15.801L123.064,15.801z"/>
	<path fill="#211E1F" d="M46.412,28.225h0.137c0.348,0,0.715-0.048,0.715-0.556V22.57c0-0.508-0.367-0.556-0.715-0.556h-0.137
		v-0.292c0.379,0,0.958,0.038,1.434,0.038c0.482,0,1.062-0.038,1.516-0.038v0.292h-0.135c-0.348,0-0.715,0.048-0.715,0.556v5.099
		c0,0.508,0.367,0.556,0.715,0.556h0.135v0.293c-0.463,0-1.045-0.039-1.527-0.039c-0.473,0-1.043,0.039-1.422,0.039V28.225
		L46.412,28.225z"/>
	<path fill="#211E1F" d="M49.362,28.559c-0.468,0-1.046-0.039-1.528-0.039c-0.473,0-1.041,0.039-1.421,0.039h-0.041v-0.041v-0.293
		v-0.042h0.041h0.136c0.351-0.01,0.67-0.038,0.673-0.514V22.57c-0.003-0.477-0.322-0.508-0.673-0.515h-0.177v-0.041v-0.336h0.041
		c0.38,0,0.96,0.04,1.433,0.04c0.48,0,1.059-0.04,1.517-0.04h0.043v0.044v0.333h-0.043h-0.136c-0.35,0.007-0.672,0.038-0.674,0.515
		v5.099c0.002,0.476,0.323,0.504,0.674,0.514h0.179v0.042v0.334H49.362L49.362,28.559z M49.32,28.476L49.32,28.476v-0.208h-0.094
		c-0.346,0-0.756-0.06-0.758-0.599V22.57c0.002-0.538,0.412-0.599,0.758-0.599h0.094v-0.206c-0.445,0-1.006,0.037-1.475,0.037
		c-0.46,0-1.016-0.035-1.39-0.037v0.206h0.092c0.346,0,0.758,0.061,0.758,0.599v5.099c0,0.539-0.412,0.599-0.758,0.599h-0.092v0.208
		c0.374-0.005,0.921-0.039,1.378-0.039C48.305,28.437,48.865,28.473,49.32,28.476L49.32,28.476z"/>
	<path fill="#211E1F" d="M56.004,26.598l0.02-0.019V22.93c0-0.799-0.551-0.915-0.842-0.915h-0.213v-0.292
		c0.455,0,0.9,0.038,1.354,0.038c0.396,0,0.795-0.038,1.19-0.038v0.292h-0.146c-0.406,0-0.861,0.077-0.861,1.236v4.43
		c0,0.34,0.011,0.68,0.059,0.982h-0.369l-4.978-5.588v4.011c0,0.847,0.163,1.139,0.909,1.139h0.163v0.293
		c-0.415,0-0.83-0.039-1.247-0.039c-0.434,0-0.879,0.039-1.314,0.039v-0.293h0.136c0.667,0,0.87-0.457,0.87-1.235v-4.101
		c0-0.545-0.447-0.874-0.879-0.874h-0.127v-0.292c0.368,0,0.744,0.038,1.111,0.038c0.291,0,0.571-0.038,0.861-0.038L56.004,26.598
		L56.004,26.598z"/>
	<path fill="#211E1F" d="M56.563,28.705l-0.398-0.014l-4.906-5.506v3.9c0.011,0.846,0.14,1.087,0.867,1.097h0.207v0.042v0.334H52.29
		c-0.418,0-0.835-0.039-1.247-0.039c-0.433,0-0.877,0.039-1.314,0.039h-0.043v-0.041v-0.335h0.043h0.136
		c0.639-0.004,0.821-0.417,0.829-1.193v-4.099c-0.002-0.519-0.424-0.834-0.838-0.835h-0.17v-0.043v-0.332h0.043
		c0.369,0,0.748,0.038,1.11,0.038c0.288,0,0.567-0.038,0.894-0.023l4.249,4.814v-3.58c-0.005-0.773-0.519-0.867-0.8-0.874h-0.256
		v-0.043v-0.332h0.043c0.457,0,0.902,0.038,1.354,0.038c0.394,0,0.789-0.038,1.189-0.038h0.042v0.042v0.333h-0.042h-0.145
		c-0.398,0.012-0.809,0.047-0.82,1.195v4.429c0,0.341,0.011,0.681,0.058,0.977l0.009,0.049H56.563L56.563,28.705z M56.196,28.619
		L56.196,28.619h0.32c-0.044-0.291-0.052-0.616-0.052-0.939v-4.429c0-1.169,0.486-1.279,0.902-1.279h0.103v-0.206
		c-0.382,0.002-0.763,0.037-1.147,0.037c-0.442,0-0.873-0.035-1.311-0.037l-0.001,0.206h0.171c0.297,0,0.885,0.134,0.885,0.958
		l-0.014,3.679l-0.021,0.021L56,26.659l-4.299-4.894c-0.287,0-0.567,0.037-0.861,0.037c-0.355,0-0.719-0.035-1.068-0.037
		l-0.002,0.206h0.086c0.453,0,0.919,0.349,0.919,0.919v4.099c0,0.778-0.215,1.276-0.91,1.28l-0.093-0.004v0.21
		c0.419-0.005,0.85-0.04,1.271-0.04c0.404,0,0.807,0.035,1.205,0.04V28.27h-0.122c-0.761-0.004-0.95-0.338-0.95-1.184v-4.121
		L56.196,28.619L56.196,28.619z M56.004,26.598L56.004,26.598l0.031-0.027L56.004,26.598z M55.981,26.579L55.981,26.579v-0.003
		l-0.008-0.008L55.981,26.579z"/>
	<path fill="#211E1F" d="M58.959,22.208c-0.725,0-0.752,0.176-0.896,0.886h-0.291c0.038-0.271,0.086-0.543,0.115-0.827
		c0.039-0.272,0.058-0.544,0.058-0.827h0.233c0.077,0.293,0.318,0.283,0.581,0.283h4.987c0.261,0,0.502-0.009,0.522-0.302
		l0.231,0.038c-0.037,0.264-0.077,0.526-0.105,0.789c-0.018,0.263-0.018,0.525-0.018,0.787l-0.291,0.109
		c-0.021-0.359-0.069-0.937-0.716-0.937h-1.586v5.18c0,0.75,0.339,0.837,0.801,0.837h0.185v0.293c-0.377,0-1.055-0.039-1.575-0.039
		c-0.579,0-1.258,0.039-1.636,0.039v-0.293h0.186c0.532,0,0.801-0.049,0.801-0.816v-5.2H58.959L58.959,22.208z"/>
	<path fill="#211E1F" d="M62.771,28.559c-0.381,0-1.058-0.039-1.577-0.039c-0.579,0-1.255,0.039-1.636,0.039H59.52v-0.041v-0.335
		h0.039h0.186c0.533-0.015,0.746-0.021,0.76-0.774V22.25h-1.545v-0.042v-0.043h1.628v5.243c0,0.781-0.313,0.859-0.843,0.861h-0.143
		v0.203c0.381-0.002,1.031-0.036,1.593-0.036c0.505,0,1.15,0.034,1.533,0.036V28.27h-0.142c-0.467-0.002-0.844-0.117-0.844-0.882
		v-5.223h1.628c0.648,0.003,0.733,0.559,0.755,0.92l0.209-0.077c0-0.255,0-0.509,0.02-0.766c0.027-0.251,0.063-0.499,0.099-0.746
		l-0.148-0.026c-0.044,0.284-0.316,0.298-0.558,0.296h-4.987h-0.05c-0.228,0-0.477-0.012-0.563-0.284h-0.16
		c-0.002,0.27-0.02,0.531-0.057,0.79c-0.029,0.268-0.073,0.525-0.109,0.781h0.207c0.128-0.678,0.211-0.898,0.932-0.888v0.043v0.042
		c-0.714,0.015-0.699,0.135-0.856,0.854l-0.007,0.033h-0.033h-0.34l0.006-0.051c0.039-0.271,0.088-0.544,0.116-0.827
		c0.04-0.27,0.06-0.54,0.06-0.82v-0.042h0.04h0.267l0.006,0.03c0.066,0.246,0.246,0.247,0.492,0.251h0.05h4.987
		c0.269-0.004,0.465-0.007,0.48-0.263l0.004-0.045l0.043,0.01l0.273,0.042l-0.006,0.042c-0.039,0.262-0.076,0.525-0.104,0.785
		c-0.021,0.261-0.021,0.523-0.021,0.785v0.031l-0.025,0.012l-0.344,0.124l-0.002-0.057c-0.026-0.365-0.064-0.896-0.675-0.896h-1.544
		v5.138c0.01,0.733,0.299,0.785,0.759,0.795h0.228v0.041v0.335H62.771L62.771,28.559z"/>
	<path fill="#211E1F" d="M64.809,28.225h0.135c0.349,0,0.717-0.048,0.717-0.556V22.57c0-0.508-0.368-0.556-0.717-0.556h-0.135
		v-0.292c0.59,0,1.596,0.038,2.405,0.038c0.815,0,1.819-0.038,2.476-0.038c-0.017,0.418-0.008,1.063,0.021,1.488l-0.291,0.078
		c-0.047-0.632-0.163-1.137-1.178-1.137h-1.344v2.549h1.151c0.578,0,0.705-0.33,0.763-0.857H69.1
		c-0.019,0.381-0.027,0.76-0.027,1.14c0,0.37,0.009,0.74,0.027,1.109l-0.288,0.058c-0.058-0.584-0.087-0.962-0.755-0.962h-1.158
		v2.268c0,0.633,0.559,0.633,1.177,0.633c1.162,0,1.673-0.079,1.964-1.188l0.271,0.067c-0.128,0.518-0.241,1.032-0.327,1.549
		c-0.619,0-1.732-0.039-2.601-0.039c-0.873,0-2.022,0.039-2.573,0.039V28.225L64.809,28.225z"/>
	<path fill="#211E1F" d="M69.98,28.559c-0.619,0-1.732-0.04-2.601-0.04c-0.871,0-2.019,0.04-2.571,0.04h-0.041v-0.041v-0.293v-0.042
		h0.041h0.135c0.352-0.006,0.669-0.038,0.674-0.514V22.57c-0.005-0.475-0.322-0.508-0.674-0.515h-0.176v-0.041v-0.334h0.041
		c0.59,0,1.596,0.038,2.405,0.038c0.813,0,1.815-0.038,2.476-0.038h0.043l-0.002,0.042c-0.006,0.148-0.009,0.32-0.009,0.504
		c0,0.337,0.009,0.705,0.028,0.982l0.002,0.035l-0.032,0.01l-0.341,0.089l-0.002-0.051c-0.057-0.632-0.14-1.09-1.136-1.099h-1.302
		l-0.002,2.464h1.111c0.555-0.006,0.655-0.293,0.721-0.816l0.004-0.039h0.038h0.333l-0.001,0.045
		c-0.019,0.378-0.032,0.757-0.032,1.137c0,0.369,0.014,0.738,0.032,1.108l0.001,0.035l-0.035,0.007l-0.336,0.068l-0.004-0.046
		c-0.066-0.594-0.071-0.92-0.713-0.927h-1.118v2.227c0.001,0.591,0.507,0.587,1.137,0.591c1.164-0.008,1.633-0.063,1.924-1.157
		l0.009-0.038l0.041,0.007l0.311,0.079l-0.01,0.041c-0.125,0.516-0.241,1.03-0.328,1.546l-0.008,0.034H69.98L69.98,28.559z
		 M69.945,28.473L69.945,28.473c0.084-0.489,0.194-0.981,0.313-1.473l-0.189-0.048c-0.291,1.09-0.852,1.186-1.993,1.179
		c-0.607,0-1.218,0-1.22-0.675v-2.312h1.201c0.674-0.007,0.743,0.403,0.792,0.958l0.208-0.044c-0.018-0.358-0.027-0.718-0.027-1.075
		c0-0.366,0.01-0.731,0.027-1.097h-0.208c-0.054,0.506-0.212,0.862-0.8,0.855h-1.193v-2.635h1.386
		c1.006-0.007,1.173,0.516,1.216,1.127l0.209-0.056c-0.018-0.274-0.029-0.627-0.029-0.952c0-0.166,0.004-0.324,0.01-0.461
		c-0.657,0.002-1.637,0.037-2.433,0.037c-0.794,0-1.771-0.035-2.364-0.037v0.206h0.094c0.346,0,0.758,0.061,0.758,0.599v5.099
		c0,0.537-0.412,0.597-0.758,0.601H64.85v0.203c0.564,0,1.682-0.036,2.53-0.036C68.234,28.437,69.32,28.473,69.945,28.473
		L69.945,28.473z"/>
	<path fill="#211E1F" d="M71.614,22.754c0-0.71-0.386-0.739-0.687-0.739h-0.176v-0.293c0.311,0,0.908,0.039,1.5,0.039
		c0.58,0,1.045-0.039,1.556-0.039c1.218,0,2.303,0.332,2.303,1.715c0,0.874-0.58,1.411-1.344,1.713l1.652,2.49
		c0.271,0.411,0.462,0.527,0.935,0.584v0.294c-0.316,0-0.627-0.039-0.944-0.039c-0.299,0-0.611,0.039-0.909,0.039
		c-0.744-0.984-1.383-2.034-2.012-3.154h-0.635v2.083c0,0.75,0.347,0.778,0.79,0.778h0.175v0.293c-0.553,0-1.111-0.039-1.664-0.039
		c-0.463,0-0.918,0.039-1.402,0.039v-0.293h0.176c0.358,0,0.687-0.164,0.687-0.525V22.754L71.614,22.754z M72.854,25.012
		L72.854,25.012h0.471c0.967,0,1.489-0.369,1.489-1.52c0-0.864-0.552-1.42-1.413-1.42c-0.289,0-0.412,0.03-0.547,0.04V25.012
		L72.854,25.012z"/>
	<path fill="#211E1F" d="M77.354,28.559c-0.322,0-0.629-0.039-0.946-0.039c-0.295,0-0.604,0.039-0.94,0.022
		c-0.742-0.979-1.377-2.023-2.002-3.137h-0.572v2.04c0.012,0.732,0.303,0.726,0.75,0.737h0.217v0.042v0.334h-0.043
		c-0.553,0-1.113-0.039-1.662-0.039c-0.463,0-0.914,0.039-1.402,0.039h-0.041v-0.041v-0.335h0.041h0.176
		c0.348-0.003,0.642-0.155,0.643-0.483v-4.945c-0.007-0.691-0.342-0.688-0.643-0.698h-0.217v-0.041V21.68h0.041
		c0.314,0,0.912,0.039,1.5,0.039c0.578,0,1.041-0.039,1.557-0.039c1.219,0.002,2.342,0.341,2.344,1.754
		c0,0.879-0.578,1.429-1.322,1.734l1.623,2.449c0.271,0.403,0.439,0.504,0.907,0.565l0.034,0.005v0.037v0.334H77.354L77.354,28.559z
		 M72.852,25.32L72.852,25.32h0.66l0.012,0.021c0.631,1.118,1.266,2.168,1.977,3.134c0.296,0,0.605-0.04,0.907-0.04
		c0.309,0,0.606,0.034,0.905,0.039v-0.214c-0.451-0.058-0.664-0.193-0.928-0.597l-1.684-2.535l0.049-0.02
		c0.756-0.3,1.316-0.82,1.316-1.676c0-1.35-1.043-1.664-2.258-1.668c-0.51,0-0.975,0.037-1.557,0.037
		c-0.568,0-1.141-0.035-1.457-0.037v0.206h0.133c0.301,0,0.727,0.05,0.727,0.782v4.945c0,0.392-0.363,0.57-0.727,0.57h-0.133v0.205
		c0.464-0.002,0.905-0.039,1.359-0.039c0.541,0,1.086,0.037,1.621,0.039V28.27h-0.133c-0.44,0-0.834-0.057-0.834-0.825V25.32H72.852
		L72.852,25.32z M72.852,25.054L72.852,25.054h-0.043v-2.981l0.037-0.002c0.133-0.011,0.264-0.039,0.555-0.039
		c0.883,0,1.455,0.576,1.455,1.464c-0.002,1.162-0.557,1.558-1.531,1.559H72.852L72.852,25.054z M73.324,24.969L73.324,24.969
		c0.959-0.007,1.438-0.342,1.449-1.474c-0.006-0.851-0.53-1.378-1.373-1.381c-0.262,0-0.385,0.023-0.508,0.035v2.819H73.324
		L73.324,24.969z"/>
	<path fill="#211E1F" d="M83.915,26.598l0.017-0.019V22.93c0-0.799-0.551-0.915-0.84-0.915h-0.209v-0.292
		c0.451,0,0.895,0.038,1.35,0.038c0.397,0,0.793-0.038,1.191-0.038v0.292h-0.146c-0.406,0-0.859,0.077-0.859,1.236v4.43
		c0,0.34,0.01,0.68,0.056,0.982h-0.366l-4.976-5.588v4.011c0,0.847,0.165,1.139,0.909,1.139h0.164v0.293
		c-0.414,0-0.831-0.039-1.245-0.039c-0.438,0-0.883,0.039-1.315,0.039v-0.293h0.133c0.668,0,0.871-0.457,0.871-1.235v-4.101
		c0-0.545-0.444-0.874-0.879-0.874h-0.125v-0.292c0.365,0,0.745,0.038,1.111,0.038c0.287,0,0.57-0.038,0.861-0.038L83.915,26.598
		L83.915,26.598z"/>
	<path fill="#211E1F" d="M84.474,28.705l-0.398-0.014l-4.901-5.506v3.9c0.012,0.846,0.139,1.087,0.869,1.097h0.203v0.042v0.334
		h-0.044c-0.415,0-0.83-0.04-1.245-0.04c-0.433,0-0.879,0.04-1.313,0.04H77.6v-0.041v-0.335h0.045h0.133
		c0.637-0.003,0.822-0.417,0.828-1.195v-4.099c-0.002-0.518-0.424-0.833-0.836-0.833H77.6v-0.041v-0.336h0.045
		c0.367,0,0.746,0.04,1.111,0.04c0.283,0,0.564-0.04,0.888-0.026l4.245,4.817v-3.581c-0.002-0.773-0.516-0.868-0.799-0.873h-0.249
		v-0.041v-0.336h0.042c0.452,0,0.897,0.04,1.35,0.04c0.395,0,0.791-0.04,1.189-0.04h0.041v0.044v0.333h-0.041h-0.145
		c-0.398,0.011-0.81,0.047-0.82,1.195v4.429c0,0.341,0.01,0.679,0.059,0.978l0.005,0.048H84.474L84.474,28.705z M84.107,28.619
		L84.107,28.619h0.316c-0.041-0.291-0.05-0.616-0.05-0.939v-4.429c0-1.169,0.489-1.277,0.903-1.279h0.102v-0.206
		c-0.379,0.002-0.763,0.037-1.146,0.037c-0.443,0-0.874-0.035-1.313-0.037v0.206h0.17c0.299,0.002,0.885,0.134,0.885,0.957
		l-0.014,3.68l-0.018,0.021l-0.029,0.031l-4.301-4.895c-0.285,0-0.564,0.037-0.857,0.037c-0.359,0-0.721-0.035-1.072-0.037v0.206
		h0.086c0.454,0.002,0.92,0.347,0.92,0.917v4.099c0,0.78-0.219,1.278-0.912,1.282l-0.094-0.002v0.205
		c0.417-0.002,0.849-0.036,1.273-0.036c0.405,0,0.807,0.034,1.206,0.036V28.27h-0.12c-0.762-0.002-0.953-0.338-0.955-1.184v-4.118
		L84.107,28.619L84.107,28.619z M83.915,26.598L83.915,26.598l0.028-0.027L83.915,26.598z M83.889,26.579L83.889,26.579v-0.002
		l-0.007-0.009L83.889,26.579z"/>
	<path fill="#211E1F" d="M86.979,27.125c-0.099,0.331-0.216,0.585-0.216,0.759c0,0.293,0.407,0.341,0.726,0.341h0.106v0.293
		c-0.386-0.021-0.782-0.039-1.171-0.039c-0.348,0-0.693,0.018-1.042,0.039v-0.293h0.058c0.377,0,0.697-0.225,0.84-0.634l1.549-4.466
		c0.125-0.361,0.301-0.848,0.358-1.21c0.308-0.105,0.698-0.3,0.88-0.417c0.03-0.01,0.047-0.02,0.076-0.02c0.031,0,0.049,0,0.07,0.03
		c0.028,0.076,0.055,0.165,0.088,0.242l1.777,5.092c0.115,0.34,0.23,0.7,0.355,0.993c0.118,0.272,0.322,0.389,0.641,0.389h0.058
		v0.293c-0.435-0.021-0.87-0.039-1.334-0.039c-0.474,0-0.959,0.018-1.451,0.039v-0.293h0.108c0.221,0,0.598-0.039,0.598-0.282
		c0-0.126-0.086-0.388-0.195-0.701l-0.375-1.13h-2.197L86.979,27.125L86.979,27.125z M88.39,22.813L88.39,22.813h-0.021
		l-0.898,2.754h1.808L88.39,22.813z"/>
	<path fill="#211E1F" d="M92.129,28.559c-0.435-0.02-0.87-0.04-1.331-0.04c-0.474,0-0.954,0.021-1.45,0.04l-0.045,0.004v-0.045
		V28.18h0.044h0.106c0.225,0,0.557-0.05,0.557-0.236c0.002-0.111-0.085-0.38-0.191-0.689l-0.367-1.1h-2.136l-0.3,0.982
		c-0.098,0.333-0.215,0.59-0.213,0.748c0.004,0.238,0.364,0.295,0.686,0.295h0.148v0.045v0.338l-0.044-0.004
		c-0.387-0.02-0.782-0.04-1.167-0.04c-0.346,0-0.695,0.021-1.042,0.04l-0.044,0.004v-0.045V28.18h0.042h0.058
		c0.359,0,0.66-0.206,0.799-0.602l1.548-4.468c0.128-0.36,0.303-0.846,0.386-1.235c0.303-0.103,0.693-0.299,0.879-0.417
		c0.027-0.009,0.055-0.022,0.094-0.022c0.023-0.001,0.075,0.006,0.106,0.057c0.026,0.081,0.058,0.168,0.087,0.246l1.781,5.091
		c0.114,0.341,0.229,0.702,0.354,0.989c0.114,0.259,0.291,0.361,0.602,0.361h0.101v0.045v0.338L92.129,28.559L92.129,28.559z
		 M89.39,28.471L89.39,28.471c0.478-0.017,0.946-0.035,1.408-0.035c0.449,0,0.87,0.019,1.29,0.035V28.27h-0.014
		c-0.33,0.001-0.559-0.129-0.678-0.418c-0.126-0.295-0.244-0.656-0.359-0.996l-1.777-5.09c-0.03-0.078-0.059-0.167-0.084-0.234
		c-0.008-0.01-0.006-0.01-0.014-0.01h-0.018c-0.02,0-0.031,0.005-0.058,0.012c-0.187,0.122-0.574,0.314-0.862,0.389
		c-0.059,0.369-0.232,0.855-0.359,1.216l-1.546,4.468c-0.149,0.422-0.487,0.664-0.88,0.664h-0.016v0.201
		c0.331-0.017,0.666-0.035,1.002-0.035c0.373,0,0.755,0.019,1.125,0.035V28.27h-0.063c-0.314-0.005-0.755-0.04-0.767-0.385
		c0-0.194,0.12-0.443,0.214-0.771l0.043,0.012l-0.043-0.014l0.316-1.041h2.258l0.387,1.158c0.109,0.312,0.197,0.57,0.197,0.714
		c-0.013,0.299-0.421,0.319-0.641,0.327H89.39V28.471L89.39,28.471z M87.412,25.609L87.412,25.609l0.925-2.84h0.031h0.021v0.043
		l-0.012,0.002l0.012-0.002V22.77h0.026l0.921,2.84H87.412z M87.525,25.524L87.525,25.524h1.694l-0.842-2.608L87.525,25.524z
		 M88.347,22.824L88.347,22.824l0.021-0.007L88.347,22.824z"/>
	<path fill="#211E1F" d="M92.556,22.208c-0.724,0-0.753,0.176-0.897,0.886h-0.291c0.037-0.271,0.086-0.543,0.117-0.827
		c0.039-0.272,0.057-0.544,0.057-0.827h0.232c0.077,0.293,0.32,0.283,0.58,0.283h4.99c0.26,0,0.501-0.009,0.521-0.302l0.23,0.038
		c-0.037,0.264-0.074,0.526-0.104,0.789c-0.021,0.263-0.021,0.525-0.021,0.787l-0.288,0.109c-0.02-0.359-0.066-0.937-0.715-0.937
		h-1.586v5.18c0,0.75,0.34,0.837,0.801,0.837h0.185v0.293c-0.376,0-1.052-0.039-1.575-0.039c-0.578,0-1.258,0.039-1.635,0.039
		v-0.293h0.183c0.532,0,0.806-0.049,0.806-0.816v-5.2H92.556L92.556,22.208z"/>
	<path fill="#211E1F" d="M96.366,28.559c-0.38,0-1.056-0.039-1.575-0.039c-0.578,0-1.256,0.039-1.635,0.039h-0.043v-0.041v-0.335
		h0.043h0.183c0.532-0.015,0.747-0.021,0.761-0.774l-0.002-5.158h-1.542v-0.042v-0.043h1.629v5.243c0,0.781-0.314,0.857-0.846,0.859
		h-0.143v0.208c0.384-0.005,1.034-0.039,1.595-0.039c0.504,0,1.151,0.034,1.533,0.039v-0.208h-0.143
		c-0.465-0.002-0.843-0.114-0.843-0.88v-5.223h1.628c0.648,0.003,0.733,0.559,0.752,0.92l0.211-0.077c0-0.255,0-0.509,0.02-0.765
		c0.027-0.251,0.063-0.5,0.1-0.747l-0.146-0.026c-0.044,0.284-0.318,0.299-0.559,0.296h-4.99h-0.049
		c-0.229,0.002-0.476-0.012-0.563-0.285h-0.158c-0.002,0.271-0.021,0.532-0.059,0.791c-0.024,0.269-0.073,0.526-0.109,0.781h0.208
		c0.127-0.678,0.211-0.898,0.933-0.888v0.043v0.042c-0.716,0.014-0.7,0.135-0.858,0.854l-0.008,0.033h-0.031h-0.342l0.008-0.048
		c0.039-0.275,0.089-0.547,0.117-0.828C91.48,21.99,91.5,21.72,91.5,21.439v-0.042h0.041h0.264l0.008,0.03
		c0.068,0.246,0.244,0.247,0.492,0.251l0.049,0.002h4.99c0.268-0.006,0.462-0.009,0.479-0.264l0.002-0.046l0.044,0.01l0.275,0.042
		l-0.007,0.042c-0.04,0.262-0.077,0.525-0.106,0.785c-0.02,0.261-0.02,0.524-0.02,0.785v0.031l-0.026,0.012l-0.343,0.124
		l-0.004-0.057c-0.023-0.365-0.063-0.896-0.672-0.896h-1.543v5.138c0.008,0.733,0.297,0.785,0.758,0.795h0.227v0.042v0.334H96.366
		L96.366,28.559z"/>
	<path fill="#211E1F" d="M98.453,28.225h0.137c0.35,0,0.714-0.048,0.714-0.556V22.57c0-0.508-0.364-0.556-0.714-0.556h-0.137v-0.292
		c0.378,0,0.957,0.038,1.43,0.038c0.484,0,1.064-0.038,1.52-0.038v0.292h-0.135c-0.348,0-0.719,0.048-0.719,0.556v5.099
		c0,0.508,0.371,0.556,0.719,0.556h0.135v0.293c-0.465,0-1.047-0.039-1.528-0.039c-0.474,0-1.043,0.039-1.421,0.039V28.225
		L98.453,28.225z"/>
	<path fill="#211E1F" d="M101.402,28.559c-0.467,0-1.047-0.04-1.528-0.04c-0.473,0-1.043,0.04-1.421,0.04h-0.042v-0.041v-0.293
		v-0.042h0.042h0.137c0.35-0.006,0.669-0.036,0.67-0.514V22.57c-0.001-0.475-0.32-0.508-0.67-0.515h-0.179v-0.041v-0.334h0.042
		c0.378,0,0.958,0.038,1.43,0.038c0.482,0,1.063-0.038,1.52-0.038h0.041v0.042v0.333h-0.041h-0.135
		c-0.354,0.007-0.672,0.04-0.676,0.515v5.099c0.004,0.478,0.322,0.508,0.676,0.514h0.176v0.042v0.334H101.402L101.402,28.559z
		 M101.36,28.473L101.36,28.473v-0.205h-0.093c-0.348,0-0.758-0.062-0.758-0.599V22.57c0-0.538,0.41-0.599,0.758-0.599h0.093v-0.206
		c-0.447,0.002-1.007,0.037-1.478,0.037c-0.458,0-1.012-0.035-1.387-0.037v0.206h0.094c0.344,0,0.754,0.061,0.756,0.599v5.099
		c-0.002,0.537-0.412,0.599-0.756,0.599h-0.094v0.205c0.373-0.003,0.92-0.036,1.378-0.036
		C100.344,28.437,100.903,28.471,101.36,28.473L101.36,28.473z"/>
	<path fill="#211E1F" d="M105.257,21.576c2.062,0,3.704,1.287,3.704,3.36c0,2.238-1.594,3.727-3.652,3.727
		c-2.051,0-3.615-1.401-3.615-3.495C101.693,23.145,103.248,21.576,105.257,21.576L105.257,21.576z M105.403,28.234L105.403,28.234
		c1.877,0,2.203-1.666,2.203-3.085c0-1.423-0.762-3.146-2.368-3.146c-1.691,0-2.193,1.52-2.193,2.822
		C103.045,26.568,103.837,28.234,105.403,28.234L105.403,28.234z"/>
	<path fill="#211E1F" d="M101.648,25.168c0.005-2.048,1.578-3.631,3.608-3.635v0.043v0.041c-1.985,0-3.524,1.547-3.527,3.551
		c0.005,2.07,1.548,3.45,3.579,3.451c2.037-0.001,3.609-1.468,3.613-3.686c-0.002-2.046-1.621-3.313-3.665-3.316v-0.041v-0.043
		c2.077,0.002,3.741,1.301,3.747,3.4c-0.002,2.262-1.619,3.767-3.695,3.771C103.241,28.7,101.653,27.285,101.648,25.168
		L101.648,25.168L101.648,25.168z M103.004,24.826L103.004,24.826c0.002-1.309,0.51-2.866,2.235-2.866
		c1.641,0.005,2.407,1.76,2.411,3.189c-0.004,1.419-0.335,3.126-2.247,3.126v-0.041v-0.041c1.839-0.004,2.158-1.625,2.163-3.044
		c0-1.411-0.756-3.101-2.327-3.103c-1.659,0.002-2.149,1.483-2.152,2.779c0.002,1.734,0.786,3.363,2.316,3.367v0.041v0.041
		C103.8,28.273,103.006,26.579,103.004,24.826L103.004,24.826z"/>
	<path fill="#211E1F" d="M115.477,26.598l0.021-0.019V22.93c0-0.799-0.554-0.915-0.843-0.915h-0.21v-0.292
		c0.454,0,0.898,0.038,1.351,0.038c0.397,0,0.793-0.038,1.191-0.038v0.292h-0.146c-0.404,0-0.859,0.077-0.859,1.236v4.43
		c0,0.34,0.008,0.68,0.058,0.982h-0.366l-4.98-5.588v4.011c0,0.847,0.162,1.139,0.908,1.139h0.164v0.293
		c-0.416,0-0.83-0.039-1.246-0.039c-0.436,0-0.881,0.039-1.316,0.039v-0.293h0.136c0.669,0,0.87-0.457,0.87-1.235v-4.101
		c0-0.545-0.442-0.874-0.88-0.874h-0.126v-0.292c0.367,0,0.745,0.038,1.113,0.038c0.289,0,0.568-0.038,0.859-0.038L115.477,26.598
		L115.477,26.598z"/>
	<path fill="#211E1F" d="M116.039,28.705l-0.4-0.014l-4.906-5.506v3.9c0.012,0.846,0.139,1.086,0.865,1.094h0.209v0.045v0.334
		h-0.043c-0.418,0-0.833-0.039-1.246-0.039c-0.434,0-0.878,0.039-1.316,0.039h-0.041v-0.041V28.18h0.041h0.136
		c0.638-0.001,0.821-0.414,0.829-1.19v-4.101c0-0.518-0.422-0.833-0.839-0.833h-0.167v-0.041v-0.334h0.041
		c0.371,0,0.747,0.038,1.111,0.038c0.287,0,0.566-0.038,0.893-0.023l4.249,4.814v-3.58c-0.003-0.773-0.519-0.867-0.8-0.874H114.4
		v-0.041v-0.334h0.043c0.455,0,0.9,0.038,1.352,0.038c0.396,0,0.791-0.038,1.191-0.038h0.041v0.042v0.333h-0.041h-0.146
		c-0.398,0.012-0.811,0.048-0.817,1.195v4.429c0,0.341,0.007,0.68,0.054,0.978l0.009,0.048H116.039L116.039,28.705z M115.672,28.619
		L115.672,28.619h0.316c-0.043-0.291-0.049-0.616-0.049-0.939v-4.429c0-1.172,0.486-1.277,0.9-1.279h0.104v-0.206
		c-0.382,0.002-0.764,0.037-1.149,0.037c-0.44,0-0.873-0.035-1.311-0.037v0.206h0.17c0.299,0.002,0.881,0.136,0.881,0.958
		l-0.008,3.679l-0.02,0.021l-0.031,0.031l-4.303-4.895c-0.285,0-0.566,0.037-0.859,0.037c-0.356,0-0.719-0.035-1.072-0.037v0.206
		h0.085c0.454,0.002,0.922,0.347,0.922,0.917v4.101c0,0.778-0.216,1.276-0.91,1.28l-0.097-0.002v0.205
		c0.42-0.002,0.851-0.036,1.275-0.036c0.402,0,0.803,0.034,1.205,0.036V28.27h-0.125c-0.759-0.002-0.948-0.338-0.948-1.184v-4.121
		L115.672,28.619L115.672,28.619z M115.477,26.598L115.477,26.598l0.031-0.027L115.477,26.598z M115.454,26.579L115.454,26.579
		v-0.002l-0.009-0.009L115.454,26.579z"/>
	<path fill="#211E1F" d="M118.539,27.125c-0.094,0.331-0.211,0.585-0.211,0.759c0,0.293,0.406,0.341,0.723,0.341h0.107v0.293
		c-0.387-0.021-0.782-0.039-1.168-0.039c-0.351,0-0.697,0.018-1.043,0.039v-0.293h0.055c0.378,0,0.699-0.225,0.842-0.634
		l1.548-4.466c0.125-0.361,0.3-0.848,0.356-1.21c0.309-0.105,0.696-0.3,0.883-0.417c0.027-0.01,0.047-0.02,0.076-0.02
		c0.028,0,0.047,0,0.064,0.03c0.031,0.076,0.061,0.165,0.089,0.242l1.779,5.092c0.116,0.34,0.229,0.7,0.358,0.993
		c0.115,0.272,0.318,0.389,0.638,0.389h0.058v0.293c-0.436-0.021-0.871-0.039-1.334-0.039c-0.474,0-0.957,0.018-1.449,0.039v-0.293
		h0.106c0.22,0,0.6-0.039,0.6-0.282c0-0.126-0.087-0.388-0.196-0.701l-0.375-1.13h-2.195L118.539,27.125L118.539,27.125z
		 M119.953,22.813L119.953,22.813h-0.02l-0.9,2.754h1.809L119.953,22.813z"/>
	<path fill="#211E1F" d="M123.689,28.559c-0.434-0.018-0.869-0.039-1.33-0.039c-0.472,0-0.957,0.021-1.449,0.039l-0.043,0.004
		v-0.045v-0.335h0.043h0.104c0.226,0,0.559-0.053,0.559-0.24c0.002-0.111-0.085-0.376-0.194-0.688l-0.367-1.1h-2.133l-0.301,0.982
		c-0.094,0.333-0.211,0.59-0.209,0.747c0,0.239,0.363,0.299,0.682,0.299h0.148v0.042v0.338l-0.043-0.004
		c-0.387-0.018-0.782-0.039-1.166-0.039c-0.348,0-0.695,0.021-1.043,0.039l-0.042,0.004v-0.045v-0.335h0.042h0.055
		c0.359-0.003,0.662-0.211,0.803-0.604l1.547-4.468c0.123-0.36,0.299-0.846,0.385-1.232c0.303-0.106,0.691-0.302,0.879-0.42
		c0.025-0.009,0.053-0.021,0.092-0.021c0.025-0.003,0.074,0.004,0.105,0.057c0.028,0.076,0.058,0.164,0.089,0.243l1.778,5.092
		c0.116,0.341,0.23,0.702,0.355,0.99c0.113,0.258,0.291,0.36,0.599,0.363h0.101v0.042v0.338L123.689,28.559L123.689,28.559z
		 M120.951,28.473L120.951,28.473c0.478-0.019,0.948-0.037,1.408-0.037c0.449,0,0.871,0.019,1.293,0.035l-0.003-0.201h-0.016
		c-0.326,0-0.556-0.129-0.675-0.418c-0.129-0.295-0.242-0.656-0.359-0.996l-1.779-5.09c-0.029-0.078-0.059-0.167-0.081-0.232
		c-0.009-0.013-0.007-0.013-0.015-0.013h-0.018c-0.021,0-0.031,0.007-0.057,0.013c-0.187,0.119-0.574,0.314-0.861,0.389
		c-0.06,0.369-0.234,0.854-0.359,1.216l-1.549,4.468c-0.146,0.422-0.484,0.664-0.879,0.664h-0.016v0.201
		c0.334-0.017,0.666-0.035,1.002-0.035c0.375,0,0.756,0.019,1.129,0.035V28.27h-0.066c-0.314-0.005-0.754-0.04-0.766-0.386
		c0.002-0.193,0.122-0.44,0.215-0.771l0.039,0.012l-0.039-0.014l0.318-1.041h2.254l0.389,1.157c0.106,0.313,0.193,0.571,0.193,0.715
		c-0.014,0.299-0.418,0.319-0.64,0.327h-0.063V28.473L120.951,28.473z M118.975,25.609L118.975,25.609l0.928-2.84h0.029h0.021v0.043
		l-0.01,0.002l0.01-0.002V22.77h0.029l0.914,2.84H118.975z M119.091,25.524L119.091,25.524h1.69l-0.84-2.606L119.091,25.524
		L119.091,25.524z M119.912,22.824L119.912,22.824l0.02-0.007L119.912,22.824z"/>
	<path fill="#211E1F" d="M126.131,27.563c0,0.39,0.269,0.505,0.578,0.545c0.396,0.029,0.831,0.029,1.278-0.02
		c0.403-0.05,0.752-0.282,0.926-0.525c0.154-0.216,0.24-0.487,0.299-0.702h0.281c-0.106,0.555-0.241,1.102-0.358,1.656
		c-0.85,0-1.702-0.039-2.552-0.039c-0.853,0-1.7,0.039-2.552,0.039v-0.294h0.133c0.35,0,0.729-0.047,0.729-0.65V22.57
		c0-0.508-0.379-0.556-0.729-0.556h-0.133v-0.292c0.511,0,1.016,0.038,1.525,0.038c0.496,0,0.978-0.038,1.471-0.038v0.292h-0.242
		c-0.366,0-0.654,0.011-0.654,0.525V27.563L126.131,27.563z"/>
	<path fill="#211E1F" d="M129.135,28.559c-0.853,0-1.703-0.039-2.552-0.039c-0.851,0-1.702,0.039-2.554,0.039h-0.041v-0.041v-0.335
		h0.041h0.135c0.351-0.01,0.682-0.033,0.686-0.609v-5.005c-0.004-0.473-0.333-0.506-0.686-0.513h-0.176v-0.041v-0.334h0.041
		c0.515,0,1.018,0.038,1.529,0.038c0.49,0,0.974-0.038,1.469-0.038h0.041v0.042v0.333h-0.041h-0.242
		c-0.374,0.011-0.607-0.007-0.615,0.484v5.023c0.004,0.362,0.238,0.46,0.541,0.502c0.17,0.013,0.35,0.021,0.535,0.021
		c0.238,0,0.482-0.012,0.732-0.039c0.395-0.046,0.733-0.274,0.9-0.507c0.148-0.208,0.234-0.476,0.292-0.688l0.008-0.032h0.033h0.333
		l-0.01,0.052c-0.109,0.557-0.242,1.101-0.359,1.654l-0.009,0.033H129.135L129.135,28.559L129.135,28.559z M129.1,28.473
		L129.1,28.473c0.112-0.527,0.239-1.043,0.343-1.57h-0.198c-0.061,0.213-0.146,0.474-0.299,0.688
		c-0.181,0.252-0.537,0.489-0.957,0.541c-0.253,0.025-0.504,0.04-0.742,0.04c-0.186,0-0.367-0.01-0.543-0.021
		c-0.314-0.035-0.619-0.17-0.618-0.586V22.54c0-0.54,0.34-0.568,0.7-0.568h0.201v-0.206c-0.477,0.002-0.947,0.037-1.428,0.037
		c-0.502,0-0.992-0.035-1.487-0.037v0.206h0.093c0.345,0,0.769,0.061,0.769,0.597v5.005c0,0.629-0.422,0.694-0.769,0.694h-0.093
		v0.205c0.835,0,1.673-0.036,2.512-0.036C127.424,28.437,128.264,28.473,129.1,28.473L129.1,28.473z"/>
	<path fill="#211E1F" d="M129.375,21.446c0.582,0,1.018,0.45,1.018,1.028c0,0.575-0.436,1.021-1.018,1.021s-1.018-0.446-1.018-1.021
		C128.357,21.896,128.793,21.446,129.375,21.446z M129.375,23.305L129.375,23.305c0.455,0,0.805-0.391,0.805-0.83
		c0-0.442-0.344-0.837-0.805-0.837c-0.456,0-0.809,0.395-0.809,0.837C128.566,22.914,128.919,23.305,129.375,23.305z
		 M128.868,23.015L128.868,23.015v-0.052c0.126-0.017,0.147-0.013,0.147-0.092v-0.758c0-0.106-0.012-0.143-0.143-0.137v-0.053h0.52
		c0.182,0,0.345,0.085,0.345,0.271c0,0.153-0.1,0.266-0.239,0.31l0.166,0.235c0.078,0.105,0.166,0.206,0.225,0.241v0.033h-0.197
		c-0.096,0-0.18-0.202-0.368-0.474h-0.111v0.342c0,0.067,0.022,0.063,0.149,0.08v0.052H128.868L128.868,23.015z M129.212,22.475
		L129.212,22.475h0.12c0.131,0,0.193-0.102,0.193-0.262c0-0.164-0.096-0.222-0.199-0.222h-0.114V22.475z"/>
	<rect id="slice_diners" y="-0.003" fill="none" width="130.394" height="34.016"/>
</g>
</svg>
