<?xml version="1.0" encoding="UTF-8"?>
<svg id="Capa_1" xmlns="http://www.w3.org/2000/svg" version="1.1" viewBox="0 0 779.7 343.38">
  <!-- Generator: Adobe Illustrator 29.8.2, SVG Export Plug-In . SVG Version: 2.1.1 Build 3)  -->
  <defs>
    <style>
      .st0 {
        fill: #003ff1;
      }

      .st1 {
        fill: #002469;
      }
    </style>
  </defs>
  <path class="st1" d="M383.27,26.33h-.6c-3.39-7.19-9.72-13.37-19-18.56C354.4,2.59,342.88-.01,329.11-.01c-10.97,0-20.94,1.9-29.92,5.7-8.97,3.78-16.61,9.11-22.89,16-6.28,6.88-11.12,15.11-14.51,24.69-3.39,9.57-5.08,20.24-5.08,32.02s1.69,22.48,5.08,32.15c3.4,9.68,8.23,17.96,14.51,24.83,6.28,6.88,13.92,12.22,22.89,16.01,8.98,3.79,18.95,5.68,29.92,5.68,13.76,0,25.28-2.64,34.56-7.92,9.28-5.29,15.61-11.52,19-18.69h.6l-2.4,25.12h42.19V1.5h-42.19l2.4,24.84h0ZM368.75,109.94c-7.49,7.89-17.41,11.82-29.77,11.82s-22.59-3.93-30.07-11.82c-7.48-7.88-11.22-18.39-11.22-31.55s3.74-23.7,11.22-31.58c7.49-7.87,17.5-11.81,30.07-11.81s22.28,3.94,29.77,11.81c7.48,7.89,11.22,18.4,11.22,31.58s-3.74,23.67-11.22,31.55"/>
  <path class="st1" d="M221.47,21.69c-6.28-6.89-13.91-12.23-22.89-16.01C189.6,1.88,179.63-.01,168.67-.01c-13.76,0-25.24,2.8-34.41,8.38-9.18,5.58-15.46,13.16-18.84,22.74h-.6l2.09-29.63h-41.24v202.85h42.15v-125.96h.01c.06-13.02,3.78-23.44,11.2-31.27,7.48-7.87,17.5-11.82,30.08-11.82s22.54,3.94,29.91,11.82c7.38,7.89,11.07,18.4,11.07,31.57s-3.69,23.7-11.07,31.56c-7.38,7.89-17.35,11.82-29.91,11.82-3.24,0-6.3-.28-9.2-.79v33.59c5.76,1.41,11.98,2.2,18.78,2.2,10.96,0,20.93-1.89,29.91-5.69,8.98-3.77,16.61-9.12,22.89-16,6.28-6.87,11.17-15.11,14.66-24.67,3.49-9.59,5.23-20.25,5.23-32.02s-1.74-22.49-5.23-32.17c-3.49-9.66-8.38-17.94-14.66-24.82"/>
  <path class="st1" d="M526.24,66.41l-17.05-4.49c-5.59-1.6-10.17-2.94-13.76-4.03s-6.39-2.19-8.38-3.29c-2-1.1-3.34-2.28-4.04-3.59-.69-1.29-1.04-2.94-1.04-4.93,0-4.38,1.54-7.63,4.64-9.72,3.09-2.1,8.13-3.14,15.11-3.14,7.77,0,13.36,1.24,16.76,3.73,3.39,2.5,5.18,6.43,5.38,11.83v.29h35.31v-5.39c.2-13.96-4.74-24.72-14.81-32.31-10.07-7.58-23.69-11.37-40.84-11.37-18.16,0-32.56,4.24-43.23,12.71-10.67,8.48-16.01,20.3-16.01,35.46,0,10.37,2.59,19.05,7.78,26.03,5.18,6.99,13.26,11.86,24.23,14.66l17.95,4.78c6.18,1.61,11.23,3,15.11,4.2,3.89,1.19,6.98,2.48,9.28,3.88,2.29,1.39,3.89,2.9,4.79,4.49.9,1.6,1.35,3.59,1.35,5.99,0,4.59-1.65,7.88-4.94,9.87-3.29,2-8.72,2.99-16.3,2.99-9.38,0-15.91-1.2-19.6-3.58-3.69-2.4-5.64-6.48-5.83-12.27v-.6h-35.31v5.68c0,14.16,5.18,24.99,15.56,32.46,10.37,7.48,25.03,11.22,43.98,11.22s34.21-3.98,44.58-11.96c10.37-7.98,15.56-20.05,15.56-36.21,0-11.37-2.89-20.59-8.67-27.67-5.79-7.08-14.96-12.32-27.53-15.71"/>
  <path class="st1" d="M664.01,66.41l-17.06-4.49c-5.58-1.6-10.17-2.94-13.77-4.03-3.58-1.09-6.38-2.19-8.37-3.29-2-1.1-3.34-2.28-4.04-3.59-.7-1.29-1.05-2.94-1.05-4.93,0-4.38,1.54-7.63,4.64-9.72,3.09-2.1,8.13-3.14,15.11-3.14,7.78,0,13.36,1.24,16.75,3.73,3.39,2.5,5.18,6.43,5.39,11.83v.29h35.31v-5.39c.2-13.96-4.74-24.72-14.81-32.31-10.08-7.58-23.7-11.37-40.85-11.37-18.15,0-32.56,4.24-43.23,12.71-10.67,8.48-16.01,20.3-16.01,35.46,0,10.37,2.59,19.05,7.78,26.03,5.18,6.99,13.27,11.86,24.24,14.66l17.94,4.78c6.18,1.61,11.23,3,15.11,4.2,3.89,1.19,6.98,2.48,9.27,3.88,2.3,1.39,3.9,2.9,4.8,4.49.89,1.6,1.34,3.59,1.34,5.99,0,4.59-1.65,7.88-4.94,9.87-3.29,2-8.72,2.99-16.31,2.99-9.37,0-15.91-1.2-19.6-3.58-3.69-2.4-5.63-6.48-5.83-12.27v-.6h-35.3v5.68c0,14.16,5.19,24.99,15.56,32.46,10.37,7.48,25.03,11.22,43.98,11.22s34.21-3.98,44.57-11.96c10.38-7.98,15.56-20.05,15.56-36.21,0-11.37-2.89-20.59-8.68-27.67-5.79-7.08-14.96-12.32-27.53-15.71"/>
  <rect class="st0" y="1.97" width="47.47" height="47.29"/>
  <path class="st1" d="M116.03,78.38v.3c0-.1.01-.19.01-.3h-.01Z"/>
  <path class="st0" d="M737.7,134.82v131.84c0,12.83-3.66,23.09-10.95,30.78-7.29,7.68-16.97,11.52-29.02,11.52s-22.03-3.84-29.32-11.52c-7.29-7.69-10.94-17.94-10.94-30.78s3.65-23.09,10.94-30.77c7.29-7.68,17.06-11.52,29.32-11.52,3.05,0,5.94.25,8.68.74v-32.67c-5.62-1.41-11.68-2.19-18.31-2.19-10.7,0-20.42,1.85-29.17,5.55-8.75,3.69-16.19,8.89-22.31,15.6-6.13,6.7-10.85,14.73-14.15,24.07-3.3,9.33-4.95,19.74-4.95,31.21s1.65,21.92,4.95,31.36c3.3,9.44,8.02,17.5,14.15,24.21,6.12,6.71,13.56,11.91,22.31,15.6,8.75,3.7,18.47,5.54,29.17,5.54,13.42,0,24.6-2.72,33.55-8.16,8.94-5.45,15.06-12.84,18.37-22.18h.88l-2.33,28.88h41.13v-207.1h-42Z"/>
  <path class="st0" d="M230.84,223.99c7.58,0,14.15,1.71,19.69,5.1,5.55,3.42,9.78,8.03,12.69,13.87l.59,1.16h42l-.3-1.16c-4.07-16.54-12.68-29.52-25.81-38.95-13.13-9.44-29.42-14.15-48.86-14.15-11.87,0-22.66,1.85-32.38,5.55-9.72,3.7-18.04,8.89-24.94,15.6-6.91,6.72-12.25,14.79-16.04,24.21-3.79,9.44-5.69,19.9-5.69,31.36s1.9,21.89,5.69,31.22c3.79,9.32,9.13,17.36,16.04,24.06,6.9,6.71,15.22,11.92,24.94,15.62,9.72,3.69,20.51,5.53,32.38,5.53,19.44,0,35.53-4.71,48.28-14.14,12.73-9.43,21.24-22.42,25.51-38.94,0-.59.1-.98.3-1.18h-42.3c0,.4-.2.77-.58,1.18-2.73,5.83-6.76,10.41-12.11,13.71-5.35,3.31-11.72,4.95-19.1,4.95-11.67,0-21.05-3.83-28.15-11.51-7.1-7.68-10.64-17.94-10.64-30.78s3.55-23.08,10.64-30.77c7.1-7.68,16.48-11.52,28.15-11.52"/>
  <path class="st0" d="M442.88,215.91h-.59c-3.31-7.01-9.48-13.03-18.52-18.09-9.04-5.05-20.28-7.58-33.69-7.58-10.7,0-20.42,1.85-29.17,5.56-8.75,3.68-16.19,8.88-22.32,15.6-6.12,6.71-10.84,14.73-14.14,24.06-3.31,9.33-4.97,19.73-4.97,31.22s1.66,21.92,4.97,31.35,8.02,17.51,14.14,24.21c6.13,6.7,13.56,11.92,22.32,15.61,8.75,3.7,18.47,5.53,29.17,5.53,13.41,0,24.65-2.57,33.69-7.72,9.04-5.15,15.21-11.24,18.52-18.23h.59l-2.33,24.5h41.12v-150.22h-41.12l2.33,24.21h0ZM428.73,297.43c-7.3,7.69-16.97,11.52-29.02,11.52s-22.03-3.84-29.32-11.52c-7.3-7.68-10.94-17.93-10.94-30.76s3.64-23.1,10.94-30.79c7.29-7.68,17.06-11.52,29.32-11.52s21.72,3.84,29.02,11.52c7.29,7.69,10.94,17.94,10.94,30.79s-3.65,23.08-10.94,30.76"/>
  <path class="st0" d="M535.52,192.49c-6.85,1.52-12.37,3.88-16.59,7.1-4.23,3.23-7.29,7.45-9.21,12.67-1.91,5.23-2.86,11.47-2.86,18.71v110.82h41.66v-110.48c0-3.83,1.9-5.74,5.73-5.74h56.11v-35.32h-49.8c-9.86,0-18.21.75-25.04,2.25"/>
</svg>