<?xml version="1.0" encoding="UTF-8"?>
<svg id="Layer_1" data-name="Layer 1" xmlns="http://www.w3.org/2000/svg" viewBox="0 0 983.33 187.37">
  <defs>
    <style>
      .cls-1 {
        fill: #010101;
      }
    </style>
  </defs>
  <path class="cls-1" d="M1.06,183.45c-.62-.16-.77-.33-.84-.94-.11-.98-.2-4.8.61-5.27,6.09-1.2,15.95-.36,20.27-5.57,2.2-2.65,3.04-7.25,3.46-10.61.17-1.32.01-3.29.22-4.46.03-.18.18-.56.33-.56h11.17c.68,0,.61-4.33.53-5-.38-3.27-5.58-11.32-8.68-12.53-1.58-.61-5.23-.19-5.75-2.5-.68-3,1.56-4.83,4.43-4.21,2.54.55,2.48,2.8,3.33,4.7,1.29,2.88,4.12,5.28,6.03,7.81.36.48,1.3,2.35,1.57,2.57.23.19.3.06.43-.17,1.15-2,2.15-6.73,2.44-9.12.05-.37.26-2.46.22-2.6-.24-.9-3.06-2.4-3.87-3.07-3.76-3.08-7.79-7.98-10.02-12.3-2.81-5.44-3.66-12.23-4.15-18.28,6.46,3.43,11.58,9.21,14.96,15.63.57.59.94.66,1.11.22-.09-.38-.15-.73-.22-1.11-.21-.47-.36-.99-.45-1.56-.34-1.86-3.09-8.51-4.78-9.17s-3.81-.02-4.49-2.65c-1.36-5.27,6.55-6.39,6.8-.31.02.51-.22.9-.21,1.3.03,1.48,3.15,6.85,3.91,8.82,1.07,2.8,1.64,5.93,2.74,8.66.14.34-.13.6.5.49,0-3.17.29-6.28-.03-9.46-.35-3.47-1.2-7.95-2.04-11.35-.4-1.6-.8-4.29-2.23-5.13-2.07-1.22-6.73-2.12-9.3-3.2-11.58-4.85-19.6-13.66-25.45-24.56,3.02-.01,6.41,1.05,9.27,2.12,5.97,2.23,11.1,5.52,15.87,9.69.96.84,2.93,3.24,3.76,3.72.36.21.6.27,1.02.21-1.89-4.59-5.23-8.43-7.52-12.91-1.88-3.66-3.03-8.64-4.89-11.85-.74-1.26-1.88-1.98-2.76-3.04-5.58-6.8-5.67-13.24-5.58-21.64.03-2.8-.21-5.63.33-8.38,4.63,4.55,8.72,11.04,9.65,17.59.74,5.23-.98,10.58.13,15.28.37,1.57,1.2,3.57,1.83,5.09,1.02,2.42,2.31,5.18,4.02,7.14.59.05.21-.1.17-.39-.65-4.72-1.83-9.44-2.07-14.23-.18-3.64.54-8.94-.01-12.27-.18-1.07-1.21-1.5-1.56-2.46-2.39-6.52,6.96-7.01,6.48-1.35-.18,2.14-1.64,2.08-2.42,3.61-.34.68-.56,1.51-.65,2.25-.82,6.48-.09,14.5,1.34,20.86.22.96,1.77,6.72,2.17,7.1s.37-.07.44-.33c.94-3.89-.24-10,0-14.29.48-8.25,3.51-15.39,7.86-22.28.13-.21.86-1.6,1.19-1.05.26.43,1.07,5.88,1.19,6.85.92,7.4.41,12.97-2.71,19.78-1.63,3.55-7.66,12.39-6.82,16.09.26,1.15,2.5,4.19,3.19,5.51,3.28,6.26,5.54,13,7.14,19.88.74-1.49.56-3.39.81-5,.51-3.3,1.25-6.77,2.04-10.01.47-1.91,1.92-5.37,2.06-7.07.05-.65-.56-1.93-.57-2.81-.02-.95.37-2.31,1.03-3,.51-.53,1.69-1.17,2.44-1.14,3.62.17,4.84,4.46,1.98,6.45-2.62,1.82-2.77,1.12-4.2,4.51-2.44,5.8-4.15,18.22-3.7,24.46.03.41.24,1.57.74.71,1.55-2.68,1.94-7,2.91-10.04,1.64-5.09,5.22-10.74,8.32-15.12,1.9-2.67,4.7-6.68,6.8-9.05.24-.28.46-.64.88-.56.09,6.56-.82,13.2-3.06,19.38-2.1,5.76-6.22,10.53-10.9,14.33-1.05.86-5.73,4-6.04,4.9,0,11.1-1.52,22.05-4.46,32.72-.06,1.11.99.18,1.38-.18,2.56-2.39,3.93-6.85,5.62-9.9,2.06-3.73,5.38-7.36,8.52-10.23,1.92-1.76,5.57-5.09,7.61-6.46.27-.18.51-.41.87-.35-.03,7.12-2.45,14.19-7.67,19.11-4.05,3.81-8.73,5.77-13.02,8.97-2.13,1.59-4.77,4.32-4.31,7.2h13.95s.33.31.33.33v8.93c0,.8.59,2.96.94,3.74,2.15,4.76,9.62,3.6,13.91,3.72,10.69.3,21.43.35,32.13,0,13.14-.43,24.47-1.26,35.73-8.7,10.71-7.06,16.13-18.8,21.2-30.15h8.82c.02.54.02,1.07-.06,1.62-.35,2.44-1.56,6.42-2.24,8.93-1.68,6.23-3.7,12.73-5.68,18.88-2.17,6.74-4.58,13.49-7.21,20.03l-.64.25c-6.81-.28-13.63-.07-20.45-.12"/>
  <path class="cls-1" d="M0,.3l155.9-.3c.64.21.32,2.69.37,3.43.74,11.61.63,24.23.58,35.93,0,1.72-.24,3.5-.17,5.24-.29.47-6.55.25-7.56.15-1.8-5-2.35-10.35-4.29-15.36-7.16-18.47-22.39-18.36-39.58-18.91-13.69-.44-28.07-.52-41.73.22-2.76.15-5.13-.37-7.37,1.78-3.64,3.5-1.5,11.45-2.56,15.98l-26.69.1c-.68-.08-1.56-.43-1.79-1.11-.58-1.68-.52-4.64-.83-6.53-.81-4.92-1.73-10.04-6.86-12.12C12.11,6.65,5.53,7.26,0,6V.3Z"/>
  <path class="cls-1" d="M130.71,121.43c-1.02-.29-1.47-6.21-1.73-7.43-.94-4.37-2.63-10.95-5.53-14.34-4.76-5.57-16.82-6.59-23.76-6.83-9.83-.33-20.76-.28-30.61,0-.78.02-2.93.74-3.01-.32-.06-.83,1.45-6.3,1.84-7.32.3-.79.83-1.91,1.72-2.07,11.12-.25,22.28.11,33.38-.33,5.72-.22,11.38-.13,16.65-2.77,7.78-3.9,8.94-13.97,10.71-21.61.05-.16.47-.4.56-.4h6.02c.18,0,.4.54.34.77.13,17.87-.2,35.76-.03,53.6.02,1.63.56,7.67.13,8.59-.05.1-.4.45-.44.45-1.3,0-5.35.26-6.25,0h0Z"/>
  <g>
    <path d="M186.77,42.15l.81-.7c16.64.54,26.23.8,28.78.8,2.28,0,11.91-.27,28.88-.8l.8.7v5.03l-.8.7c-4.63.14-8.2.34-10.72.6-2.52.27-4.34.77-5.48,1.51-1.14.74-1.9,2.47-2.26,5.18-.37,2.72-.55,6.49-.55,11.32l-.2,23.15v32c0,10.53.22,18.27.65,23.2.44,4.93,1.37,9.09,2.82,12.48,1.44,3.39,3.64,6.31,6.59,8.76,2.95,2.45,7.18,4.45,12.68,5.99,5.5,1.54,11.74,2.31,18.72,2.31,7.38,0,14.27-1.02,20.68-3.07,6.41-2.05,11.29-5.01,14.64-8.91,3.35-3.89,5.55-9.01,6.59-15.35,1.04-6.34,1.56-15.15,1.56-26.42v-31c0-5.23-.08-12.43-.25-21.59-.17-9.16-.57-14.42-1.21-15.8-.64-1.37-1.81-2.42-3.52-3.12-1.71-.7-6.46-1.12-14.24-1.26l-.81-.8v-4.73l.81-.91c9.93.54,17.88.8,23.85.8,5.1,0,13.02-.27,23.75-.8l.91.8v4.83l-.91.8c-6.31.14-10.42.39-12.33.75-1.91.37-3.25.92-4.03,1.66-.77.74-1.34,1.88-1.71,3.42-.37,1.54-.62,5.97-.75,13.28l-.3,22.64v30.59c0,12.21-.47,21.84-1.41,28.88-.94,7.04-3.04,12.83-6.29,17.36-3.25,4.53-7.11,8.32-11.57,11.37-4.46,3.05-10.18,5.4-17.16,7.04-6.98,1.64-14.23,2.47-21.74,2.47-9.39,0-17.7-1.04-24.91-3.12-7.21-2.08-12.9-4.83-17.06-8.25-4.16-3.42-7.15-7.03-8.96-10.82-1.81-3.79-2.99-8.25-3.52-13.38-.54-5.13-.81-12.96-.81-23.5v-38.65l-.2-19.62c-.07-7.65-.25-12.58-.55-14.79-.3-2.21-.77-3.69-1.41-4.43-.64-.74-1.86-1.34-3.67-1.81-1.81-.47-6.27-.84-13.39-1.11l-.81-.7v-5.03Z"/>
    <path d="M387.95,115.82v20.43l.1,19.62c.07,7.31.27,12.16.6,14.54.33,2.38.82,3.92,1.46,4.63.64.7,1.86,1.31,3.67,1.81,1.81.5,6.27.89,13.38,1.16l.81.6v5.03l-.81.8c-17.04-.54-26.67-.8-28.88-.8s-11.74.27-28.78.8l-.81-.8v-5.03l.81-.6c6.31-.27,10.48-.6,12.53-1.01,2.05-.4,3.42-.94,4.13-1.61.7-.67,1.27-2.01,1.71-4.03.44-2.01.69-6.57.75-13.69l.1-21.44v-46.6l-.2-19.62c-.07-7.65-.25-12.58-.55-14.79-.3-2.21-.77-3.69-1.41-4.43-.64-.74-1.86-1.34-3.67-1.81-1.81-.47-6.27-.84-13.39-1.11l-.81-.7v-5.03l.81-.7c28.45.4,45.05.6,49.82.6,15.97,0,32.34-.2,49.11-.6l.81.7c-1.07,3.36-1.78,7.16-2.11,11.42-.34,4.26-.7,10.28-1.11,18.06l-.81.81h-4.73l-.7-.81c-.14-.47-.44-3.05-.91-7.75-.34-3.69-.87-7.08-1.61-10.16-6.98-2.35-16.61-3.52-28.88-3.52-5.5,0-11.94.4-19.32,1.21-.74,5.23-1.11,17.98-1.11,38.24v17.41c8.52.13,14.32.2,17.41.2,5.7,0,10.6-.22,14.69-.65,4.09-.44,6.54-.86,7.35-1.26.8-.4,1.42-1.16,1.86-2.26.44-1.11.85-3.54,1.26-7.3l.6-5.43.7-.81h5.13l.81.91-.7,22.04c0,2.55.1,6.24.3,11.07.27,5.5.4,9.76.4,12.78l-.91.8h-5.03l-.7-.8-.4-8.55c-.2-3.35-.54-5.8-1.01-7.35-.47-1.54-1.24-2.55-2.31-3.02-1.07-.47-3.46-.91-7.15-1.31-3.69-.4-9.36-.6-17.01-.6-6.78,0-11.88.1-15.3.3Z"/>
    <path d="M463.53,114.31c0-10.06,1.44-19.46,4.33-28.18,2.88-8.72,7.8-16.79,14.74-24.2,6.94-7.41,15.31-13.15,25.11-17.21,9.79-4.06,20.87-6.09,33.21-6.09,22.88,0,41.09,6.22,54.65,18.67,13.55,12.45,20.33,29.44,20.33,50.97,0,15.16-3.32,28.78-9.96,40.86-6.64,12.08-16.15,21.47-28.53,28.18-12.38,6.71-26.28,10.06-41.71,10.06-10.94,0-21-1.83-30.19-5.48-9.19-3.66-17.03-9.11-23.5-16.35-6.48-7.25-11.17-15.63-14.09-25.16-2.92-9.53-4.38-18.22-4.38-26.07ZM484.46,107.67c0,8.19,1.32,16.99,3.98,26.42,2.65,9.43,6.61,17.51,11.88,24.25,5.27,6.74,11.34,11.76,18.22,15.04,6.88,3.29,14.71,4.93,23.5,4.93,10.4,0,19.66-2.38,27.78-7.15,8.12-4.76,14.29-12.16,18.52-22.19,4.23-10.03,6.34-21.29,6.34-33.76,0-13.55-2.42-25.8-7.25-36.73-4.83-10.93-11.71-18.89-20.63-23.85-8.92-4.96-18.82-7.45-29.69-7.45-16.3,0-29.15,5.1-38.54,15.3-9.39,10.2-14.09,25.26-14.09,45.19Z"/>
    <path d="M624.96,42.15l.81-.7c12.28.54,21.84.8,28.68.8,7.58,0,17.81-.23,30.7-.7,4.76-.13,8.22-.2,10.37-.2,16.97,0,28.48,3.09,34.52,9.26,6.04,6.17,9.06,13.49,9.06,21.94,0,5.64-1.48,11.17-4.43,16.61-2.95,5.43-7.31,10.08-13.08,13.94-5.77,3.86-13.72,6.76-23.85,8.71,1.88,2.62,5.27,7.14,10.16,13.59l14.29,18.92c4.63,6.24,9.59,12.83,14.9,19.78,5.3,6.94,8.72,10.87,10.27,11.77,1.54.91,2.87,1.46,3.98,1.66,1.11.2,2.87.3,5.28.3l.81.8v4.73l-.91.91c-3.22-.4-7.04-.6-11.47-.6-4.76,0-9.96.2-15.6.6-4.63-5.64-11.91-15.4-21.84-29.29-11.54-16.1-23.35-31.03-35.43-44.78l1.01-3.12c3.49.2,6.21.3,8.15.3,11.61,0,20.7-2.78,27.27-8.35,6.57-5.57,9.86-13.29,9.86-23.15,0-8.86-2.95-15.55-8.86-20.08-5.9-4.53-13.89-6.79-23.95-6.79-7.04,0-13.69.97-19.93,2.92-1.01,1.48-1.51,14.06-1.51,37.74v46.6l.1,19.62c.07,7.58.27,12.48.6,14.69.33,2.21.82,3.69,1.46,4.43.64.74,1.86,1.36,3.67,1.86,1.81.5,6.27.89,13.39,1.16l.81.6v5.03l-.81.8c-.34,0-6.24-.2-17.71-.6-4.76-.13-8.49-.2-11.17-.2-2.08,0-11.67.27-28.78.8l-.81-.8v-5.03l.81-.6c6.24-.27,10.4-.6,12.48-1.01,2.08-.4,3.47-.92,4.18-1.56.7-.64,1.27-2,1.71-4.08.44-2.08.69-6.71.75-13.89l.1-21.24v-46.6l-.2-19.62c-.07-7.65-.25-12.58-.55-14.79-.3-2.21-.77-3.69-1.41-4.43-.64-.74-1.86-1.34-3.67-1.81-1.81-.47-6.27-.84-13.38-1.11l-.81-.7v-5.03Z"/>
    <path d="M764.34,41.44l12.58.4c8.25.27,13.65.4,16.2.4,2.28,0,11.91-.27,28.88-.8l.81.7v5.03l-.81.7c-4.63.14-8.2.34-10.72.6-2.52.27-4.34.77-5.48,1.51-1.14.74-1.9,2.47-2.26,5.18-.37,2.72-.55,6.49-.55,11.32l-.2,23.15v46.6l.1,19.62c.07,7.58.27,12.48.6,14.69.33,2.21.82,3.69,1.46,4.43.64.74,1.86,1.36,3.67,1.86,1.81.5,6.27.89,13.39,1.16l.81.6v5.03l-.81.8c-.34,0-6.24-.2-17.71-.6-4.76-.13-8.49-.2-11.17-.2-2.08,0-11.67.27-28.78.8l-.81-.8v-5.03l.81-.6c6.24-.27,10.4-.6,12.48-1.01,2.08-.4,3.47-.92,4.18-1.56.7-.64,1.27-2,1.71-4.08.44-2.08.69-6.71.75-13.89l.1-21.24v-46.6l-.2-19.62c-.07-7.65-.25-12.58-.55-14.79-.3-2.21-.77-3.69-1.41-4.43-.64-.74-1.86-1.34-3.67-1.81-1.81-.47-6.27-.84-13.38-1.11l-.81-.7v-5.03l.81-.7Z"/>
    <path d="M832.27,184.45l-.91-.8v-5.23l.91-.8c4.9-.07,8.05-.32,9.46-.75,1.41-.44,2.67-1.31,3.77-2.62,1.11-1.31,3.34-5.58,6.69-12.83l10.57-22.95,27.37-61.99c5.17-12.14,10.3-24.29,15.4-36.43h6.54l42.97,101.04,5.74,13.49c1.68,3.82,3.61,7.99,5.79,12.48,2.18,4.5,3.69,7.15,4.53,7.95.84.81,1.88,1.43,3.12,1.86,1.24.44,4.01.69,8.3.75l.81.8v5.23l-.81.8c-7.11-.6-13.52-.91-19.22-.91-11.14.33-22.28.64-33.41.91l-.81-.8v-5.23l.81-.8c7.51-.13,12.21-.45,14.09-.96,1.88-.5,2.82-1.66,2.82-3.47,0-1.47-.47-3.42-1.41-5.84l-12.38-30.7h-58.27l-10.97,25.76c-1.95,4.63-2.92,8.02-2.92,10.17,0,1.68.91,2.92,2.72,3.72s6.37,1.24,13.69,1.31l.91.8v5.23l-.81.8c-8.65-.54-16.24-.8-22.74-.8-7.38,0-14.83.27-22.34.8ZM878.16,127.99h50.92l-25.26-60.69-25.66,60.69Z"/>
  </g>
</svg>