<?xml version="1.0" encoding="UTF-8"?>
<svg id="Layer_1" data-name="Layer 1" xmlns="http://www.w3.org/2000/svg" viewBox="0 0 290.14 320">
  <defs>
    <style>
      .cls-1 {
        fill: #010101;
      }
    </style>
  </defs>
  <path class="cls-1" d="M1.6,319.56c-1.08-.27-1.34-.58-1.47-1.64-.2-1.7-.34-8.35,1.07-9.18,10.6-2.09,27.77-.63,35.3-9.69,3.83-4.61,5.29-12.63,6.02-18.48.29-2.29.02-5.72.39-7.77.06-.32.31-.97.58-.97h19.44c1.18,0,1.07-7.54.93-8.71-.67-5.7-9.71-19.71-15.12-21.81-2.75-1.07-9.1-.33-10.02-4.36-1.19-5.23,2.71-8.41,7.71-7.33,4.43.96,4.31,4.87,5.8,8.19,2.25,5.02,7.17,9.2,10.5,13.6.62.83,2.27,4.09,2.73,4.47.4.33.52.11.75-.3,2-3.49,3.74-11.71,4.25-15.88.08-.65.45-4.28.38-4.53-.42-1.56-5.33-4.18-6.74-5.34-6.54-5.37-13.57-13.89-17.45-21.42-4.9-9.48-6.38-21.29-7.23-31.83,11.24,5.98,20.16,16.03,26.04,27.21.99,1.02,1.63,1.15,1.94.39-.15-.67-.26-1.27-.39-1.94-.36-.81-.62-1.72-.78-2.72-.59-3.23-5.38-14.81-8.33-15.97s-6.64-.04-7.82-4.62c-2.36-9.17,11.4-11.12,11.84-.54.04.88-.38,1.56-.37,2.27.05,2.57,5.49,11.92,6.8,15.36,1.86,4.88,2.85,10.32,4.77,15.08.24.59-.23,1.05.87.85,0-5.52.51-10.94-.05-16.47-.61-6.04-2.09-13.84-3.56-19.76-.69-2.78-1.39-7.47-3.89-8.94-3.6-2.12-11.72-3.69-16.2-5.57-20.16-8.44-34.13-23.78-44.32-42.76,5.25-.02,11.16,1.83,16.14,3.69,10.39,3.89,19.33,9.61,27.64,16.87,1.68,1.47,5.11,5.64,6.54,6.48.62.36,1.05.47,1.77.37-3.29-8-9.1-14.68-13.09-22.47-3.27-6.38-5.27-15.04-8.52-20.63-1.28-2.2-3.27-3.44-4.8-5.3-9.71-11.84-9.88-23.06-9.71-37.68.06-4.87-.37-9.8.57-14.59,8.06,7.93,15.19,19.23,16.8,30.62,1.29,9.11-1.7,18.42.22,26.6.64,2.74,2.09,6.22,3.19,8.86,1.77,4.21,4.03,9.02,7,12.44,1.03.09.37-.18.3-.68-1.14-8.22-3.18-16.43-3.6-24.78-.32-6.34.94-15.57-.02-21.36-.31-1.87-2.11-2.62-2.72-4.28-4.16-11.35,12.11-12.2,11.29-2.35-.31,3.72-2.86,3.63-4.21,6.29-.59,1.18-.97,2.63-1.13,3.92-1.42,11.28-.15,25.24,2.34,36.32.38,1.68,3.09,11.7,3.78,12.36s.65-.12.76-.58c1.63-6.78-.42-17.41.01-24.88.83-14.37,6.12-26.79,13.68-38.8.23-.36,1.49-2.78,2.07-1.83.46.75,1.87,10.24,2.08,11.92,1.6,12.89.72,22.59-4.71,34.44-2.83,6.18-13.33,21.58-11.87,28.01.46,2.01,4.36,7.29,5.56,9.6,5.71,10.9,9.65,22.63,12.43,34.61,1.29-2.59.98-5.91,1.41-8.7.89-5.74,2.18-11.79,3.56-17.43.81-3.33,3.35-9.35,3.58-12.31.09-1.14-.97-3.36-1-4.9-.03-1.65.65-4.03,1.8-5.22.89-.93,2.94-2.04,4.24-1.98,6.31.29,8.43,7.76,3.44,11.23-4.56,3.17-4.83,1.95-7.31,7.85-4.25,10.09-7.22,31.73-6.44,42.58.05.71.41,2.73,1.28,1.24,2.7-4.66,3.37-12.18,5.07-17.48,2.86-8.87,9.09-18.7,14.49-26.33,3.3-4.65,8.18-11.63,11.84-15.76.42-.48.8-1.11,1.54-.98.16,11.42-1.42,22.99-5.33,33.74-3.65,10.03-10.83,18.33-18.98,24.95-1.83,1.49-9.98,6.96-10.51,8.54,0,19.32-2.64,38.4-7.77,56.97-.11,1.94,1.73.32,2.41-.32,4.45-4.16,6.85-11.93,9.79-17.23,3.59-6.49,9.37-12.82,14.83-17.82,3.35-3.06,9.7-8.86,13.25-11.24.47-.32.89-.72,1.52-.61-.06,12.39-4.27,24.71-13.36,33.28-7.05,6.64-15.2,10.04-22.67,15.62-3.7,2.76-8.31,7.53-7.5,12.53h24.29s.58.54.58.58v15.55c0,1.4,1.02,5.15,1.64,6.52,3.75,8.29,16.75,6.27,24.22,6.48,18.62.52,37.32.61,55.94,0,22.88-.74,42.6-2.19,62.22-15.14,18.64-12.3,28.09-32.74,36.92-52.49h15.35c.03.94.03,1.87-.1,2.82-.61,4.24-2.71,11.17-3.9,15.54-2.93,10.84-6.45,22.16-9.89,32.87-3.77,11.74-7.97,23.49-12.56,34.87l-1.12.44c-11.85-.49-23.74-.12-35.6-.21"/>
  <path class="cls-1" d="M-.24.66L271.21.14c1.11.36.56,4.69.64,5.97,1.29,20.22,1.09,42.18,1.01,62.56-.01,2.99-.41,6.09-.29,9.12-.51.81-11.41.44-13.17.26-3.13-8.71-4.09-18.02-7.47-26.74-12.46-32.16-38.98-31.97-68.92-32.93-23.83-.76-48.87-.91-72.66.39-4.81.26-8.93-.65-12.84,3.1-6.34,6.09-2.61,19.93-4.45,27.82l-46.48.18c-1.18-.14-2.71-.75-3.12-1.93-1.01-2.92-.91-8.08-1.45-11.37-1.41-8.57-3.01-17.48-11.94-21.1C20.85,11.71,9.39,12.78-.24,10.58V.66Z"/>
  <path class="cls-1" d="M227.35,211.57c-1.77-.51-2.56-10.82-3.01-12.93-1.63-7.61-4.58-19.06-9.63-24.97-8.29-9.7-29.28-11.48-41.37-11.89-17.12-.58-36.15-.49-53.29,0-1.36.04-5.11,1.29-5.24-.56-.1-1.44,2.52-10.97,3.21-12.75.53-1.37,1.44-3.33,2.99-3.61,19.37-.44,38.8.19,58.12-.57,9.96-.39,19.81-.23,28.99-4.83,13.55-6.79,15.57-24.32,18.65-37.62.08-.28.81-.69.97-.69h10.49c.32,0,.69.94.6,1.34.23,31.11-.34,62.27-.05,93.32.03,2.84.97,13.36.22,14.96-.09.18-.7.78-.77.78-2.26,0-9.32.45-10.88,0Z"/>
</svg>