<?xml version="1.0" encoding="UTF-8"?>
<svg id="Layer_1" data-name="Layer 1" xmlns="http://www.w3.org/2000/svg" viewBox="0 0 320 320">
  <defs>
    <style>
      .cls-1 {
        fill: #010101;
      }
    </style>
  </defs>
  <path class="cls-1" d="M23.29,319.69c-1.09-.27-1.34-.58-1.47-1.64-.2-1.71-.34-8.36,1.07-9.19,10.61-2.09,27.8-.63,35.33-9.7,3.83-4.62,5.29-12.65,6.02-18.49.29-2.29.02-5.72.39-7.78.06-.32.31-.97.58-.97h19.45c1.19,0,1.07-7.55.93-8.71-.67-5.71-9.72-19.73-15.14-21.83-2.75-1.07-9.11-.33-10.03-4.37-1.19-5.24,2.71-8.42,7.72-7.33,4.43.96,4.32,4.87,5.81,8.2,2.25,5.02,7.17,9.21,10.51,13.61.63.83,2.27,4.09,2.73,4.47.4.33.52.11.75-.3,2-3.49,3.74-11.72,4.25-15.89.08-.65.45-4.28.38-4.54-.42-1.56-5.33-4.19-6.74-5.35-6.54-5.38-13.58-13.91-17.47-21.44-4.9-9.49-6.39-21.3-7.24-31.86,11.25,5.99,20.17,16.04,26.06,27.24.99,1.03,1.64,1.16,1.95.39-.15-.67-.26-1.27-.39-1.95-.36-.81-.62-1.72-.78-2.72-.59-3.24-5.38-14.83-8.33-15.98s-6.64-.04-7.82-4.63c-2.36-9.18,11.41-11.13,11.85-.54.04.88-.38,1.56-.37,2.28.05,2.57,5.49,11.93,6.8,15.37,1.86,4.89,2.85,10.32,4.77,15.09.24.59-.23,1.05.87.85,0-5.53.51-10.95-.05-16.48-.61-6.05-2.1-13.85-3.57-19.78-.69-2.78-1.39-7.47-3.89-8.94-3.61-2.12-11.73-3.69-16.22-5.57-20.17-8.45-34.16-23.8-44.35-42.8,5.26-.02,11.17,1.83,16.15,3.69,10.4,3.89,19.34,9.62,27.66,16.89,1.68,1.47,5.11,5.64,6.55,6.48.62.36,1.05.47,1.77.37-3.3-8.01-9.11-14.7-13.11-22.49-3.27-6.38-5.27-15.05-8.53-20.65-1.28-2.2-3.28-3.44-4.81-5.31-9.71-11.85-9.89-23.08-9.72-37.71.06-4.88-.37-9.81.57-14.61,8.06,7.94,15.21,19.24,16.82,30.65,1.29,9.11-1.7,18.43.22,26.62.64,2.74,2.09,6.23,3.2,8.86,1.77,4.21,4.03,9.03,7,12.45,1.03.09.37-.18.3-.68-1.14-8.22-3.18-16.45-3.61-24.8-.32-6.35.94-15.59-.02-21.38-.31-1.87-2.11-2.62-2.72-4.28-4.16-11.36,12.12-12.21,11.3-2.35-.31,3.72-2.86,3.63-4.21,6.3-.59,1.18-.97,2.63-1.13,3.93-1.42,11.29-.15,25.26,2.34,36.35.38,1.68,3.1,11.71,3.78,12.37s.65-.12.76-.58c1.63-6.78-.42-17.42.01-24.9.83-14.38,6.12-26.81,13.69-38.84.23-.36,1.49-2.79,2.07-1.84.46.75,1.87,10.25,2.08,11.93,1.6,12.9.72,22.61-4.72,34.47-2.84,6.19-13.35,21.6-11.88,28.04.46,2.01,4.36,7.3,5.57,9.6,5.71,10.91,9.66,22.65,12.44,34.64,1.29-2.59.98-5.92,1.41-8.7.89-5.74,2.18-11.8,3.56-17.45.81-3.33,3.35-9.36,3.58-12.32.09-1.14-.97-3.37-1-4.91-.03-1.65.65-4.03,1.81-5.23.89-.93,2.94-2.05,4.24-1.99,6.32.29,8.44,7.77,3.45,11.24-4.57,3.18-4.84,1.96-7.32,7.85-4.25,10.1-7.23,31.76-6.45,42.62.05.71.41,2.73,1.28,1.24,2.7-4.66,3.37-12.19,5.08-17.49,2.86-8.88,9.1-18.72,14.5-26.35,3.3-4.66,8.18-11.64,11.85-15.77.42-.48.8-1.11,1.55-.98.16,11.43-1.42,23.01-5.33,33.76-3.65,10.04-10.84,18.35-19,24.97-1.83,1.49-9.99,6.97-10.52,8.55,0,19.33-2.64,38.43-7.77,57.02-.11,1.94,1.73.32,2.41-.32,4.45-4.17,6.86-11.94,9.8-17.24,3.6-6.49,9.38-12.83,14.84-17.84,3.35-3.07,9.71-8.87,13.26-11.25.47-.32.89-.72,1.52-.61-.06,12.4-4.28,24.73-13.37,33.31-7.06,6.65-15.21,10.05-22.69,15.63-3.7,2.76-8.31,7.53-7.5,12.54h24.31s.58.54.58.58v15.56c0,1.41,1.02,5.15,1.64,6.53,3.75,8.29,16.76,6.28,24.24,6.49,18.63.52,37.36.61,55.99,0,22.9-.74,42.64-2.2,62.27-15.15,18.65-12.31,28.12-32.77,36.95-52.54h15.37c.03.94.03,1.88-.1,2.82-.61,4.24-2.72,11.18-3.9,15.55-2.94,10.85-6.46,22.18-9.9,32.9-3.78,11.75-7.97,23.51-12.57,34.9l-1.13.44c-11.86-.49-23.76-.12-35.63-.21"/>
  <path class="cls-1" d="M21.46.53l271.69-.53c1.11.36.56,4.69.64,5.97,1.29,20.24,1.1,42.21,1.01,62.61-.01,2.99-.41,6.1-.29,9.13-.51.81-11.42.44-13.18.26-3.13-8.72-4.09-18.03-7.48-26.76-12.47-32.18-39.01-32-68.98-32.95-23.85-.76-48.91-.91-72.72.39-4.82.26-8.94-.65-12.85,3.1-6.34,6.09-2.61,19.94-4.45,27.84l-46.52.18c-1.18-.14-2.71-.75-3.12-1.94-1.01-2.92-.91-8.08-1.46-11.38-1.41-8.58-3.02-17.49-11.95-21.12-9.23-3.74-20.7-2.67-30.34-4.87V.53Z"/>
  <path class="cls-1" d="M249.24,211.61c-1.78-.51-2.56-10.83-3.02-12.94-1.64-7.62-4.59-19.08-9.64-24.99-8.3-9.71-29.31-11.49-41.4-11.9-17.13-.58-36.18-.49-53.33,0-1.36.04-5.12,1.29-5.24-.56-.1-1.44,2.52-10.98,3.21-12.76.53-1.38,1.44-3.33,3-3.62,19.39-.44,38.83.19,58.17-.57,9.97-.39,19.83-.23,29.02-4.83,13.57-6.79,15.58-24.34,18.66-37.65.08-.28.81-.69.97-.69h10.5c.32,0,.69.94.6,1.34.23,31.14-.34,62.32-.05,93.4.03,2.84.97,13.38.22,14.98-.09.18-.7.78-.77.78-2.26,0-9.33.45-10.89,0Z"/>
</svg>