<?xml version="1.0" encoding="UTF-8" standalone="no"?>
<!DOCTYPE svg PUBLIC "-//W3C//DTD SVG 1.1//EN" "http://www.w3.org/Graphics/SVG/1.1/DTD/svg11.dtd">
<svg width="100%" height="100%" viewBox="0 0 2048 2048" version="1.1" xmlns="http://www.w3.org/2000/svg" xmlns:xlink="http://www.w3.org/1999/xlink" xml:space="preserve" xmlns:serif="http://www.serif.com/" style="fill-rule:evenodd;clip-rule:evenodd;stroke-linejoin:round;stroke-miterlimit:2;">
    <g transform="matrix(1,0,0,1,3.277157,51.585551)">
        <g transform="matrix(0.946419,0,0,0.938884,51.590299,10.999849)">
            <path d="M1491.89,177.26C1902.72,540.14 1767.15,1209.51 1250.29,1384.35C736.11,1558.28 226.09,1110.72 324.48,579.32C423.96,42.03 1078.95,-187.47 1491.89,177.26ZM1466.44,173.81C1032.81,-181.86 379.88,91.47 330.77,646.86C285.67,1156.85 782.21,1542.05 1265.59,1363.94C1765.36,1179.79 1880.26,513.24 1466.44,173.82L1466.44,173.81Z" style="fill-rule:nonzero;"/>
        </g>
        <g transform="matrix(0.946419,0,0,0.938884,51.590299,10.999849)">
            <path d="M1288.53,1843.63L1234.94,1843.63C1234.09,1843.63 1231.3,1841.77 1230.68,1840.65C1227.78,1835.35 1224.31,1811.22 1221.68,1802.46C1219.78,1796.12 1217.09,1789.89 1215.56,1783.41L1150.96,1782.63C1148.43,1784.25 1134.78,1831.13 1129.89,1838.97C1128.69,1840.9 1128.34,1842.53 1125.73,1843.31L1011.3,1843.56L980.57,1732.22C980.39,1728.66 980.57,1730.02 983.11,1729.65C987.3,1729.04 992.36,1730.2 996.75,1729.64C1017.11,1727.04 1028.43,1712.45 1022.28,1692.2C1020.75,1687.15 1013.68,1680.33 1008.69,1680.33L972.12,1680.33L968.72,1843.64L915.98,1843.64L922.85,1752.7L924.48,1637.8L1029.1,1637.8C1044.57,1637.8 1066.3,1655.57 1071.44,1670.31C1082.75,1702.7 1067.19,1740.27 1034.98,1752.75L1065.85,1840.05L1072.28,1840.02L1159.13,1635.14C1160.63,1632.95 1162.78,1632.94 1165.12,1632.62C1171.32,1631.79 1223.12,1631.82 1225.66,1633.48L1288.54,1843.64L1288.53,1843.63ZM1166.05,1738.16L1205.18,1738.16L1194.49,1691.87L1189.04,1680.31L1166.06,1738.16L1166.05,1738.16Z" style="fill-rule:nonzero;"/>
        </g>
        <g transform="matrix(0.946419,0,0,0.938884,51.590299,10.999849)">
            <path d="M1296.18,1843.63L1309.68,1634.28L1379.61,1634.32L1403.36,1761.99L1440.79,1632.69L1509.69,1632.69L1503.74,1843.63L1460.36,1843.63L1463.75,1697.34L1460.2,1701.35L1422.65,1841.64C1420.05,1845.72 1383.31,1842.59 1376.28,1843.73L1347.23,1697.32L1337.02,1843.64L1296.19,1843.64L1296.18,1843.63Z" style="fill-rule:nonzero;"/>
        </g>
        <g transform="matrix(0.946419,0,0,0.938884,51.590299,10.999849)">
            <path d="M1901.79,1632.69L1961.35,1765.39C1964.34,1766.36 1964.77,1762.75 1965.12,1760.73C1966.14,1754.81 1966.95,1743.62 1967.27,1737.29C1969.01,1702.74 1967.39,1667.31 1968.99,1632.69L2018.32,1632.69L2007.26,1843.63L1947.72,1843.63L1884.76,1710.93L1876.27,1843.63L1829.49,1843.63L1838,1632.69L1901.79,1632.69Z" style="fill-rule:nonzero;"/>
        </g>
        <g transform="matrix(0.946419,0,0,0.938884,51.590299,10.999849)">
            <path d="M562.14,1632.69L558.74,1710.94L625.93,1710.94L628.48,1706.69L630.18,1632.69L684.62,1632.69L677.82,1843.63L621.68,1843.63L624.23,1755.17L557.89,1755.17L551.08,1843.63L497.49,1843.63L506,1632.69L562.14,1632.69Z" style="fill-rule:nonzero;"/>
        </g>
        <g transform="matrix(0.946419,0,0,0.938884,51.590299,10.999849)">
            <path d="M247.43,1843.63L193.84,1843.63C192.14,1842.34 190.9,1840.92 190.03,1838.93C186.47,1830.82 178.21,1785.73 174.35,1783.17L109.45,1783.4L86.68,1843.63L29.68,1843.63L122.31,1631.66L185.37,1634.36L247.43,1843.63ZM165.77,1738.16L150.44,1678.62L126.64,1738.16L165.77,1738.16Z" style="fill-rule:nonzero;"/>
        </g>
        <g transform="matrix(0.946419,0,0,0.938884,51.590299,10.999849)">
            <path d="M1729.13,1843.63L1673.84,1843.63L1656.08,1783.14L1591.13,1783.37L1569.21,1843.63L1512.22,1843.63L1510.5,1840.26C1543.72,1772.73 1571.14,1702.35 1601.48,1633.49C1603.99,1631.79 1655.67,1631.81 1662.01,1632.61C1663.87,1632.84 1665.83,1632.47 1667.11,1634.32L1729.12,1843.64L1729.13,1843.63ZM1608.34,1738.16L1644.91,1738.16L1647.22,1734.2C1639.57,1718.72 1639.16,1699.86 1632.92,1683.72C1632.09,1681.56 1633.01,1679.61 1629.62,1680.31L1608.34,1738.16Z" style="fill-rule:nonzero;"/>
        </g>
        <g transform="matrix(0.946419,0,0,0.938884,51.590299,10.999849)">
            <path d="M904.07,1843.63L850.48,1843.63L832.82,1783.37L767.91,1783.17L743.31,1843.63L686.32,1843.63L775.17,1634.78L841.15,1633.51L904.07,1843.63ZM783.29,1738.16L822.42,1738.16L804.58,1680.31L783.3,1738.16L783.29,1738.16Z" style="fill-rule:nonzero;"/>
        </g>
        <g transform="matrix(0.946419,0,0,0.938884,51.590299,10.999849)">
            <path d="M319.72,1632.69C321.05,1633.1 322.33,1635.46 322.31,1637.02L315.46,1799.41L393.73,1797.69C391.43,1809.91 394.07,1828.19 392.02,1839.38C391.67,1841.29 391.16,1842.56 389.47,1843.63L257.63,1843.63L266.14,1632.69L319.73,1632.69L319.72,1632.69Z" style="fill-rule:nonzero;"/>
        </g>
        <g transform="matrix(0.946419,0,0,0.938884,51.590299,10.999849)">
            <path d="M1800.57,1632.69L1793.77,1843.63L1737.63,1843.63L1746.14,1632.69L1800.57,1632.69Z" style="fill-rule:nonzero;"/>
        </g>
        <g transform="matrix(0.946419,0,0,0.938884,51.590299,10.999849)">
            <path d="M672.71,1920.18L679.51,1920.18L679.51,2044.36L672.64,2041.87L600.4,1935.49L599.53,2043.4L596.13,2045.28L591.24,2041.54L593.64,1918.47C600.86,1916.97 614.23,1943.99 618.3,1949.91C632.11,1969.98 646.74,1989.68 660.53,2009.75C663.34,2013.84 664.97,2019.95 668.55,2023.85C670.72,2026.21 672.71,2024.31 672.71,2023.09L672.71,1920.17L672.71,1920.18Z" style="fill-rule:nonzero;"/>
        </g>
        <g transform="matrix(0.946419,0,0,0.938884,51.590299,10.999849)">
            <path d="M1366.8,2030.76C1408.15,2060.33 1430.36,2012.96 1426.31,1976.33C1421.87,1975.4 1423.66,1977.22 1422.75,1978.77C1413.35,1994.7 1402.34,2000.24 1383.02,1996.66C1372.5,1994.71 1358.31,1977.12 1356.68,1966.86C1353.99,1949.9 1364.14,1921.89 1383.05,1918.58C1453.2,1906.33 1446.62,2039.18 1396.15,2047.35C1385.98,2049 1363.4,2044.84 1366.8,2030.75L1366.8,2030.76ZM1375.8,1930.91C1373.45,1933.03 1365.73,1946.64 1365.19,1950.06C1363.31,1962.01 1365.97,1980.22 1378.29,1986.07C1410.36,2001.29 1435.17,1964.28 1417.57,1936.58C1409.84,1924.41 1386.18,1921.56 1375.8,1930.9L1375.8,1930.91Z" style="fill-rule:nonzero;"/>
        </g>
        <g transform="matrix(0.946419,0,0,0.938884,51.590299,10.999849)">
            <path d="M1721.62,1925.99C1758.64,1954.58 1746.32,2056.4 1692.95,2047.36C1640.23,2038.42 1641.32,1908.04 1707.75,1918.59C1712.31,1919.32 1717.97,1923.17 1721.62,1925.99ZM1692.93,1925.68C1669.91,1930.58 1661.99,1967.64 1662.72,1987.46C1663.7,2014.09 1686.24,2057.27 1717.08,2033.17C1729.82,2023.21 1736.74,1994.42 1735.99,1978.81C1734.95,1956.95 1720.64,1919.78 1692.93,1925.68Z" style="fill-rule:nonzero;"/>
        </g>
        <g transform="matrix(0.946419,0,0,0.938884,51.590299,10.999849)">
            <path d="M973.82,1920.18C998.43,1918.78 1024.18,1916.92 1048.43,1920.43L1048.67,1928.68L980.62,1928.68L980.62,1978.01L1041.86,1978.01L1041.86,1986.52L980.62,1986.52L980.62,2035L983.17,2037.55L1048.66,2037.55L1046.16,2045.54L976.68,2044.42C975.56,2044.08 973.81,2040.58 973.81,2040.11L973.81,1920.18L973.82,1920.18Z" style="fill-rule:nonzero;"/>
        </g>
        <g transform="matrix(0.946419,0,0,0.938884,51.590299,10.999849)">
            <path d="M375,1938.88L359.15,1930.09C339.34,1920.8 315.57,1926.23 315.32,1951.65C315.1,1974.41 344.43,1975.82 360.57,1983.1C398.75,2000.33 380.55,2051.83 340.12,2047.77C325.42,2046.29 314.14,2037.37 303.59,2028.08L307,2020.56C312.28,2019.36 309.09,2023.4 311.5,2025.75C327.14,2041.06 365.48,2047.86 372.51,2020.6C380.52,1989.54 346.31,1990.62 327.94,1981.72C313.27,1974.61 304.67,1962.47 307.75,1945.61C311.76,1923.68 331.61,1915.88 352.1,1918.43C360.7,1919.5 380.18,1928.23 375.01,1938.88L375,1938.88Z" style="fill-rule:nonzero;"/>
        </g>
        <g transform="matrix(0.946419,0,0,0.938884,51.590299,10.999849)">
            <path d="M869.15,1932.98C873.32,1937.89 874.19,1940.87 870.9,1947.39C827.81,1893.59 774.08,1948.45 791.43,2004.75C801.01,2035.85 834.28,2051 861.42,2029.78C866.91,2025.49 867.35,2021.51 871.74,2017.15C875.68,2038.36 845.57,2049.56 828.37,2047.77C773.31,2042.02 764.38,1946.76 812.41,1922.93C830.64,1913.89 855.58,1916.99 869.16,1932.99L869.15,1932.98Z" style="fill-rule:nonzero;"/>
        </g>
        <g transform="matrix(0.946419,0,0,0.938884,51.590299,10.999849)">
            <path d="M1505.43,1928.69C1502.51,1927.97 1503.49,1923.32 1504.62,1921.51C1508.54,1915.24 1543.26,1920.12 1551.39,1920.32C1561.37,1920.56 1577.13,1912.22 1571.82,1930.46L1525.65,2044.48L1518.2,2044.37L1565.82,1928.7L1505.43,1928.7L1505.43,1928.69Z" style="fill-rule:nonzero;"/>
        </g>
        <g transform="matrix(0.946419,0,0,0.938884,51.590299,10.999849)">
            <path d="M1256.21,2041.82C1255.28,2045.07 1248.85,2045.56 1247.87,2041.59L1247.69,1928.71C1246.92,1928.15 1233.28,1934.77 1229.75,1935.43C1222.56,1936.77 1224.92,1931.49 1229.49,1928.35C1232,1926.63 1248.19,1918.64 1250.39,1918.49C1256.35,1918.1 1256.21,1923 1256.21,1927.85L1256.21,2041.83L1256.21,2041.82Z" style="fill-rule:nonzero;"/>
        </g>
        <g transform="matrix(0.946419,0,0,0.938884,51.590299,10.999849)">
            <path d="M482.18,2044.37L482.18,1918.48L487.38,1919.23L488.98,2040.11C488.22,2044.33 486.26,2044.83 482.18,2044.36L482.18,2044.37Z" style="fill-rule:nonzero;"/>
        </g>
        <g transform="matrix(0.946419,0,0,0.938884,51.590299,10.999849)">
            <path d="M1049.17,157.29C1053.08,161.21 1065.37,161.85 1068.31,171.31C1071.64,182.02 1065.68,186.35 1062.28,195.21C1100.04,203.34 1124.87,232.34 1140.29,266.06C1149.83,286.93 1156.51,307.01 1155.69,330.31C1154.72,357.93 1153.56,387.3 1153.99,415.5C1154.11,423.12 1154.89,430.86 1154.96,438.5C1185.89,459.74 1216.87,480.93 1247.81,502.16C1252.33,505.26 1268.53,512.85 1269.54,516.23C1271.43,522.58 1266.42,524.75 1266.37,527.82C1266.32,530.94 1270.92,532.46 1271.56,536.37C1272.34,541.13 1269.17,545.63 1269.79,549.76C1270.18,552.37 1273.07,554.32 1273.16,556.69C1273.27,559.39 1269.83,562.71 1269.67,566.92C1269.53,570.88 1271.9,574.29 1271.23,578.39C1270.55,582.56 1267.02,585.34 1266.32,592.34C1263.12,623.99 1267.58,663.5 1267.46,695.91L1266.31,1041.62C1267.57,1051.39 1274.74,1049.3 1276.31,1051.17C1276.91,1051.88 1276.76,1057.68 1277.9,1060.65C1279.81,1065.64 1285.72,1069.83 1286.47,1072.49C1287.35,1075.59 1286.15,1079.33 1287.06,1082.11C1287.87,1084.57 1291.43,1084.82 1292.67,1086.71C1294,1088.74 1293.5,1091.92 1295.21,1094.37C1298.73,1099.4 1312.96,1103.33 1316.13,1109.2C1316.99,1110.79 1319.83,1127.51 1320.07,1130.33C1320.43,1134.61 1320.02,1157.16 1318.64,1159.29L1159.29,1298.24C1087.6,1296.04 1015.69,1298.8 943.96,1297.63C939.94,1297.56 936.22,1295.87 932.19,1295.79C910.82,1295.37 878.64,1298.85 859.07,1295.76C855.87,1295.26 854.62,1294.14 852.16,1292.46C836.61,1281.86 820.6,1263.04 806.49,1250.51C799.31,1244.14 790.39,1238.6 783.24,1232.08C755.12,1206.44 729.65,1177.96 700.31,1153.61C703.19,1140.15 696.5,1126.74 703.66,1113.33C707.36,1106.4 722.93,1101.97 724.61,1098.56C726.15,1095.42 724.71,1091.43 726.24,1088.27C727.43,1085.81 731.84,1085.66 732.27,1083.73C732.99,1080.5 731.34,1077.04 733.11,1073.03C734.34,1070.22 740.33,1067.29 741.57,1064.48C744.42,1058 738.73,1051.96 749.4,1049.81L751.02,759.08C749.03,687.16 747.43,611.26 749.22,541.4C749.37,535.44 751.89,530.13 749.45,523.03C755.49,519.27 757.15,513.13 761.06,508.98C767.21,502.43 788.68,490.57 797.42,484.1C809.41,475.22 820.87,465.6 832.58,456.35C832.93,449.89 806.58,459.27 802.87,459.02C797.02,458.61 795.17,454.74 792.24,454.13C788.09,453.25 775.87,453.66 767.03,452.19C761,451.19 746.99,453.1 743.58,444.9C735.7,425.96 756.3,394.89 760.4,375.65C768.31,338.5 764.78,303.08 791.84,270.92C794.66,267.57 809.08,256.2 810.11,254.4C811.31,252.29 809.7,248.61 812.04,245.27C814.38,241.93 826.34,238.37 827.13,237.4C827.92,236.43 827.78,231.7 829.45,228.66C834.57,219.36 845.65,209.57 855.17,205.05C858.54,203.45 862.74,204.41 865.89,202.16C870.16,199.1 877.61,184.42 883.21,179.89C902.43,164.32 931.65,164.43 949.86,155.14C953.92,153.07 966.29,146.41 969.67,144.33C973.05,142.25 976.66,134.02 981.45,130.59C999.23,117.87 1028.17,123.51 1040.89,140.91C1043.53,144.52 1047.43,155.58 1049.15,157.31L1049.17,157.29ZM1031.66,171.39C1047.5,168.66 1041.05,153.45 1034.1,144.29C1024.54,131.68 999.24,127.21 986.56,135.67C980.8,139.51 970.25,159.02 970.53,165.5C970.94,174.81 987.53,182.5 995.93,179.92C994.32,161.88 1000.93,140.22 1023,150.37C1032.19,154.6 1032.3,162.2 1031.66,171.4L1031.66,171.39ZM967,152.7C965.34,150.9 960.19,158.42 957.69,157.77L953.4,167.98C965.74,168.14 961.8,166.03 964.01,159.11C964.55,157.41 968.34,154.15 967,152.69L967,152.7ZM946.59,166.32C944.68,163.53 934.6,166.78 931.69,167.57C909.11,173.65 881.97,183.45 873.45,207.11L881.94,208.84C881.87,199.45 894.97,189.99 902.47,185.98C914.33,179.64 927.83,180.6 939.25,175.12C941.91,173.85 949.54,170.63 946.59,166.32ZM1019.75,176.52C1024.59,181.47 1016.8,190.3 1018.77,193.53C1021.73,198.37 1040.05,197.49 1045.32,196.12C1058.78,192.61 1070.99,170.18 1051.21,166.12C1048.15,166.04 1041.64,180.97 1030.98,179.93C1027.2,179.56 1024,175.65 1019.76,176.52L1019.75,176.52ZM1004.35,186.63C992.93,189.29 983.88,189.18 973.93,182.35C968.81,178.83 964.32,168.11 958.83,177.68C952.16,189.32 960.63,196.25 970.32,201.26C982.29,207.45 999.9,212.17 1008.21,198.13C1012.89,190.24 1018.17,173.64 1004.44,173.1L1004.34,186.62L1004.35,186.63ZM948.29,190.12C941.88,190.19 941.04,195.76 933.72,196.81C918.64,198.97 893.06,187.43 890.46,210.52C891.19,211.29 906.92,204.77 910.78,204.48C914.66,204.19 918.1,205.72 921.91,205.58C931.09,205.24 945.62,200.12 948.28,190.13L948.29,190.12ZM1031.65,203.73C1021.9,206.07 1014.47,195.06 1011.25,208.82C1012.15,209.58 1026.46,207.56 1029.09,207.07C1031.87,206.55 1032.03,208.18 1031.64,203.73L1031.65,203.73ZM1135.36,288.72C1134.94,265.15 1119,238.22 1101.43,223.27C1092.98,216.08 1069.67,201.52 1058.98,201.07C1057.17,200.99 1042.8,211.02 1046.35,214.03C1070.43,234.48 1083.15,262.65 1092.11,292.18C1092.78,294.4 1093.01,296.69 1092.91,299L1135.37,288.72L1135.36,288.72ZM975.52,210.54C969.27,211.08 964.23,205.2 958.97,204.1C942.2,200.6 915.23,223.87 905.81,236.93C900.54,244.24 880.96,280.22 886.08,287.2L929.58,298.99C933.29,278.17 941.64,256.26 953.69,238.88C959.44,230.59 968.33,222.92 973.82,214.78C974.77,213.37 976.23,213.16 975.51,210.53L975.52,210.54ZM883.19,221.2C881.57,219.63 877.1,218.66 874.56,217.07C868.85,213.48 868.7,208.39 859.41,210.92C857.08,211.55 838.86,226.23 838.25,227.96C837.45,230.24 837.08,234.37 837.71,236.54C838.93,240.75 883.19,260.15 885.35,258.16C887.36,249.21 890.3,228.06 883.2,221.19L883.19,221.2ZM915.97,212.24C908.56,213.22 900.64,214.2 894.61,219.05L895.57,236.05L899.48,233.89L915.97,212.24ZM938.09,300.69L1084.39,300.69C1082.05,273.84 1065.97,245.69 1048.57,225.49C1032.02,206.27 1033.97,217.26 1013.78,217.48C1005.69,217.57 994.91,214.73 986.6,213.91C973.99,223.33 962.3,239.06 954.22,253.03C946.1,267.08 938.71,284.32 938.09,300.69ZM878.54,266.66C882.59,263.15 862.44,258.94 860.66,258.19C853.02,254.95 845.78,250.19 837.72,247.97C841.06,254.56 874.82,269.88 878.54,266.66ZM800.29,275.18L790.51,284.95C776.23,315.98 768.5,348.89 768,383.21C767.79,397.78 776.53,430.77 756.08,431.68C754.36,424.07 758.64,417.07 759.38,410.28C759.75,406.91 759.03,407.8 756.09,407.86C755.93,418.69 740.32,442.58 757.04,445.21C767.97,446.93 771.41,440.11 775.11,431.15C786.14,404.47 775.78,363.38 780.1,332.37C783.11,310.74 790.31,294.17 800.3,275.19L800.29,275.18ZM819.01,275.19C792.87,284.14 790.28,325.47 791.81,349.16C792.63,361.84 796.89,374.84 798.62,387.45C805.82,392.81 803.85,348.66 803.67,345.8C803.26,339.29 800.54,332.11 800.24,325.43C799.36,305.67 803.83,288.21 819.01,275.19ZM827.51,285.39C813.52,287.47 810.97,304.35 807.12,316C809.86,311.83 830.76,288.9 827.51,285.39ZM841.12,290.49L823.05,306.37C814.73,318.21 812.92,330.86 812.23,344.92C818.58,338.34 823.94,327.79 828.41,319.44C833.1,310.69 839.5,299.97 841.12,290.49ZM800.65,451.65C802.54,452.27 803.69,452.45 805.38,451.25C821.45,432.33 813.33,404.24 815.62,381.52C817.96,358.35 841.58,335.59 850.01,315.54C852.14,310.47 856.65,296.91 850.45,293.9L812.58,364.86C812.18,374.95 810.23,391.34 805.69,400.36C803.95,403.82 800.93,403.34 800.26,406.96C798.93,414.11 801.12,424.52 800.2,432.44C799.62,437.42 795.44,440.4 796.95,447.44C797.01,447.71 800.38,451.57 800.65,451.65ZM924.48,305.81C913.34,305.23 890.55,293.24 880.94,293.99C873.27,294.59 875.3,311 878.5,313.5C883.63,317.51 912.2,319.74 918.53,326.21L924.48,305.82L924.48,305.81ZM1143.48,296.03C1137.72,290.38 1105.45,305.62 1099.75,311.88L1103.12,324.51C1117.31,317.87 1158.79,320.2 1143.49,296.03L1143.48,296.03ZM868.34,317.69C869.09,317.33 868.48,291.34 863.25,297.29C865.09,303.14 864.26,309.34 864.94,315.18C865.24,317.72 866.29,320.38 868.34,317.69ZM929.58,327.91L1092.05,327.91C1095.96,327.91 1096.67,309.93 1086.47,307.86L990.06,307.41C979.03,309.35 937.29,303.87 931.21,310.45C926.43,315.63 927.61,321.77 929.58,327.91ZM861.52,322.8L858.13,325.33C863.96,335.39 860.03,347.9 857.6,358.84C852.2,383.24 840.67,402.36 844.63,429.01C846.2,439.57 857.13,449.88 853.92,436.75C846.19,405.12 869.6,383.19 866.67,347.53C865.98,339.16 863.48,330.88 861.51,322.79L861.52,322.8ZM1147.34,322.8C1131.29,321.63 1117.47,330.55 1103.38,336.69L1103.11,353.42C1111.27,348.92 1138.39,345.16 1143.89,340.63C1147.74,337.45 1147.44,327.51 1147.34,322.8ZM921.07,333.04C905.67,328.63 891.51,324.44 875.15,326.22L878.49,340.72C889.69,344.42 901.87,346.57 912.93,350.51C916.03,351.62 918.67,356.76 919.38,350.91C920.09,345.1 919.19,338.87 921.06,333.04L921.07,333.04ZM834.34,365.33C838.29,361.85 844.08,355.68 846.57,351.21C847.69,349.2 856.43,329.29 850.48,329.64C843.18,340.38 834.78,351.69 834.34,365.33ZM929.59,355.13L1086.95,355.13C1087.34,355.13 1088.25,356.24 1089.62,356.01C1098.4,354.58 1098.18,336.16 1090.37,334.69L930.63,334.59C925.48,341.98 925.98,347.38 929.59,355.13ZM1147.34,350.01C1143.77,346.51 1108.65,361.66 1101.4,360.23L1103.12,380.63L1144.9,367.14C1149.24,363.31 1146.81,355.34 1147.35,350.01L1147.34,350.01ZM921.09,360.24C905.81,356.48 890.97,352.73 875.16,351.73C875.52,356.73 873.47,363.5 877.59,367.14C880.08,369.34 911.92,378.24 916.95,378.85C920.37,379.26 919.05,378.92 919.37,376.41C920.04,371.1 919.49,365.49 921.09,360.23L921.09,360.24ZM932.32,362.31C924.75,365.56 923.65,380.8 932.13,382.35L1093.9,380.81C1098.49,378.09 1095.18,362.99 1091.85,362.04L932.32,362.31ZM846.22,367.04C842.79,363.25 835.08,383.34 834.72,385.29C833.48,391.93 832.94,405.59 836.88,411.25C836.48,395.66 843.67,382.14 846.22,367.04ZM921.09,387.46L875.16,375.53L875.38,390.63C890.52,394.44 903.02,400.14 919.29,397.56L921.09,387.46ZM778.19,448.68C786.25,452.06 792.45,434.61 793.39,429.02C796.28,411.89 790.34,394.03 790.07,377.24C786.98,377.88 786.91,380.58 786.62,383.13C785.28,395.06 788.71,408.65 786.52,420.45C785.73,424.68 776.7,447.28 778.19,448.67L778.19,448.68ZM1147.34,377.24C1144.12,374.03 1109.97,386.89 1103.33,387.68L1103.12,402.76C1110.21,400.44 1145.29,393.31 1147.07,388.04C1148.11,384.96 1147.07,380.59 1147.35,377.25L1147.34,377.24ZM824.11,384.05L824.11,427.43C824.11,429.51 818.48,441.91 818.99,446.12C820.39,448.18 823.42,443.29 823.71,442.33C827.55,429.51 828.63,406.8 827.5,393.42C827.32,391.35 826.87,384.31 824.12,384.04L824.11,384.05ZM930.44,406.16L1092.05,406.16C1095.81,406.16 1097.58,393 1092.97,389.94L932.14,389.15C924.68,390.53 924.73,401.93 930.44,406.16ZM921.09,411.28L875.17,397.66C875.15,403.26 871.34,409.59 876.95,413.74C878.6,414.96 912.15,427.31 915.48,427.95C916.79,428.2 918.05,428.44 919.37,428.28L921.09,411.29L921.09,411.28ZM1147.32,399.36C1145.66,397.43 1105.18,412.06 1103.38,414.94C1101.96,417.21 1103.75,424.96 1103.11,428.27C1104.66,429.9 1144.07,415.44 1145.68,413.86C1148.86,410.74 1146.88,403.66 1147.32,399.36ZM864.92,404.46C860.52,403.98 862.21,404.46 861.49,406.94C858.69,416.51 855.74,426.47 862.39,435.12L866.68,434.11C866.38,422.89 870.4,415.18 864.93,404.47L864.92,404.46ZM1093.75,412.97L930.44,412.97C925.45,412.97 924.81,426.53 929.43,430.57L1090.35,429.98C1096.37,428.87 1097.01,420.76 1096.06,415.79L1093.75,412.97ZM830.93,446.98C844.34,446.92 835.72,426.69 837.71,418.07C833.49,419.98 829.87,445.91 830.93,446.98ZM919.37,445.28L917.72,435.89L875.17,421.48C873.54,426.28 872.66,430.43 876.89,434.21L919.38,445.28L919.37,445.28ZM1147.33,423.17L1104.78,435.9L1103.11,445.28L1145.68,434.27L1147.33,423.17ZM1093.75,438.48L928.74,438.48C923.91,438.48 927.95,450.73 933.74,448.79C983.62,445.17 1039.52,453.3 1088.66,448.69C1096.58,447.95 1099.58,445.41 1093.75,438.48ZM1251.11,516.72L1249.38,510.81L1147.35,442.77C1131.77,447 1115.74,454.54 1099.7,455.51L1137.92,565.71L1251.11,516.73L1251.11,516.72ZM885.22,564.22L919.44,459.78L917.74,456.27L867.93,443.93L766.28,513.38C763.2,517.76 782.27,524.56 785.21,525.87C810.64,537.15 842.21,551.18 868.07,560.39C871.42,561.59 882.98,566.13 885.22,564.23L885.22,564.22ZM1128.62,567.77L1091.26,459.68L928.86,458.8L892.52,562.24C891.08,564.07 893.62,567.77 894.71,567.77L1128.62,567.77ZM1259.6,520.15L1139.7,574.49L1140.55,581.39C1143.03,583.74 1195.54,555.06 1201.99,551.83C1218.08,543.76 1236.79,536.12 1252.25,527.22C1254.94,525.67 1260.55,524.08 1259.61,520.15L1259.6,520.15ZM881.95,577.97C885.23,575.15 872.35,569.74 871.19,569.18C842.43,555.28 795.15,534.72 765.13,525.51C763.94,525.15 759.15,522.07 759.51,526.09C759.61,527.2 765.16,531.45 766.79,532.39C782.54,541.44 809.06,552.61 826.34,559.6C832.81,562.21 879.73,579.89 881.95,577.97ZM1262.72,545.39C1263.89,540.14 1263.85,531.42 1256.17,534.5L1144.98,588.01L1143.94,600.09L1262.72,545.39ZM874.7,588.62L756.08,540.56C755.48,543.5 757.65,544.75 759.43,546.55C765.28,552.49 802.46,568.64 812.77,573.16C833.03,582.05 854.48,588.43 874.32,598.34C877.81,596.66 877.15,590.73 874.71,588.61L874.7,588.62ZM1264.7,554.17L1144.13,608.79C1143.66,613.39 1142.21,623.67 1149.1,621.48L1260.1,564.46L1264.7,554.17ZM878.55,610.32L756.08,555.87L762.44,567.36L872.7,622.12C875.96,623.3 877.41,612.61 878.55,610.32ZM1260.48,572.92L1145.62,629.85L1144.73,644.37L1260.25,581.18C1264.09,578.96 1264.06,575.42 1260.47,572.93L1260.48,572.92ZM876.75,632.56L756.08,574.58C752.01,578.35 778.18,588.9 778.64,592.05L872.63,642.59C876.29,644.05 876.55,634.71 876.74,632.56L876.75,632.56ZM1130.32,574.57L888.76,574.57L888.76,584.78L1132.02,584.78L1130.32,574.57ZM759.47,589.88L759.47,1046.64L879.42,1139.35L883.51,1136.59L883.74,1012.7C883.95,903.25 884.35,790.26 880.09,680.89C879.8,673.35 882.51,664.22 880.31,655.68L759.47,589.89L759.47,589.88ZM1137.13,591.59L883.66,591.59L883.9,602.41L887.91,605.2L1131.26,605.28L1136.39,603.61L1137.13,591.59ZM1259.61,591.59L1137.13,658.79L1137.13,1139.36L1256.1,1051.64L1259.61,1046.64L1259.61,591.58L1259.61,591.59ZM1137.14,612L886.21,612C882.51,613.81 882.21,626.13 886.34,627.11C920.51,624.77 955.59,625.11 990.06,625.53C995.32,625.59 999.95,627.34 1005.21,627.39C1049.17,627.85 1093.2,626.87 1137.14,627.32L1137.14,612ZM886.21,634.11L883.93,636.93C883.11,641.38 882.56,649.11 888.25,650.78C909.69,651.61 931.17,650.89 952.62,651.05C980.52,651.26 1009.21,652.69 1037.54,652.89C1068.75,653.11 1099.97,652.58 1131.18,652.83C1138.26,651.49 1140.12,638.74 1134.57,634.11L886.2,634.11L886.21,634.11ZM893,1144.46L1130.32,1144.46L1130.39,660.77C1129.49,657.1 1105.76,659.87 1100.47,659.72C1050.56,658.34 1000.7,658.02 950.92,657.86C931.34,657.79 911.47,657.43 892.05,658.67L890.69,660.72L893,1144.46ZM1269.45,1064.17C1270.69,1060.82 1270.35,1054.16 1265.61,1054.25C1242.75,1070.28 1219.66,1086.36 1197.76,1103.95C1183.12,1115.71 1163.07,1131.79 1149.86,1144.51C1144.54,1149.64 1141.05,1152.45 1143.95,1159.77L1269.45,1064.17ZM878.17,1146.49C853.8,1129.4 831.08,1110.07 806.64,1093.03C793.93,1084.17 769.2,1065.73 756.63,1059.68C754.17,1058.5 752.25,1057.12 749.27,1057.7L752.83,1065.18C791.97,1091.85 828.19,1130.64 869.38,1153.7L874.12,1156.35C876.65,1152.96 880.46,1151.6 878.18,1146.48L878.17,1146.49ZM1243.21,1107.67C1254.78,1098.57 1267.41,1090.62 1278.45,1080.77C1282.5,1076.07 1277.55,1072.81 1274.07,1069.71C1253.7,1087.28 1230.57,1101.92 1209.89,1119.01C1201.87,1125.64 1192.81,1136.25 1186.52,1141.8C1176.25,1150.86 1160.52,1161.05 1151.35,1170.58C1150.27,1171.71 1147.46,1175.36 1148.09,1176.78L1151.59,1180.15C1182.26,1156.15 1212.63,1131.72 1243.21,1107.67ZM772.39,1090.72C768.32,1087.73 747.22,1071.74 744.76,1071.51C738.93,1070.96 740.27,1081.68 742.98,1084.43L868.32,1180.17L873.16,1170.8C839.54,1144.59 806.73,1115.92 772.39,1090.72ZM867.83,1196.78C869.1,1194.58 868.49,1192.51 867.46,1190.42L735.69,1088.32C727.13,1099.02 741.85,1106.92 750.17,1113.79C787.12,1144.32 826.28,1172.4 862.42,1203.98C866.97,1204.79 863.83,1200.52 865.47,1197.62C865.77,1197.09 867.59,1197.19 867.83,1196.77L867.83,1196.78ZM1283.39,1088.33L1153.17,1188.57L1150.77,1192.89L1154.15,1203.99L1286.51,1099.93L1283.39,1088.33ZM1297.03,1103.64C1293.6,1102.91 1292.49,1104.39 1290.16,1106.11C1283.96,1110.68 1276.33,1119.06 1270.15,1123.92C1231.56,1154.3 1191.95,1183.62 1154.06,1214.98L1144.86,1217.69L869.55,1217.26L728.02,1105.94L722.02,1109.62C721.98,1112.33 726.02,1115.5 728.04,1117.21C771.96,1154.5 820.78,1186.58 864.44,1224.08C962.34,1223.84 1061.07,1226.32 1158.49,1222.82C1203.51,1185.09 1249.99,1148.94 1293.47,1109.43C1295.36,1107.71 1297.74,1106.92 1297.03,1103.65L1297.03,1103.64ZM1164.34,1238.01L1164.34,1268.64C1168.24,1268.07 1172.22,1264.22 1175.36,1261.79C1204.18,1239.49 1232.81,1210.91 1260.92,1186.97C1274,1175.83 1289.87,1165.72 1302.16,1153.83C1312.69,1143.64 1314.26,1138.06 1310.71,1123.3C1307.92,1119.12 1307.3,1124.62 1305.99,1125.71C1262.79,1161.77 1215.98,1201.13 1171.05,1235.4C1168.76,1237.15 1164.54,1237.72 1164.34,1238.01ZM722.61,1138.79C721.61,1138.02 710.82,1124.73 708.44,1127.46L708.95,1145.73L854.71,1272.05L854.22,1238.53C817.59,1210.13 781.61,1180.63 744.74,1153.23C738.48,1148.58 728.45,1143.31 722.6,1138.79L722.61,1138.79ZM998.98,1151.76C997.02,1151.78 994.43,1153 991.74,1153.03C957.15,1153.42 922.53,1152.56 887.94,1153L881.02,1159.61C881.65,1169.72 888.01,1164.78 894.62,1164.77C967.8,1164.69 1043,1162.7 1115.93,1164.78C1122.42,1164.97 1135.83,1170.39 1137.2,1162.26C1139.31,1149.77 1120.4,1151.13 1112.37,1151.17C1075.06,1151.35 1036.78,1151.36 998.97,1151.75L998.98,1151.76ZM877.7,1186.99L1139.68,1186.99C1143.7,1186.99 1142.97,1176.87 1137.09,1174.27C1065.77,1174.47 993.27,1170.96 921.86,1173.31C917.84,1173.44 914.12,1174.95 910.09,1175.15C897.91,1175.76 880.53,1170.3 875.31,1182.95L877.7,1186.99ZM873.45,1210.8L1143.08,1210.8C1147.99,1210.8 1146.73,1197.68 1140.54,1194.62C1052.93,1191.83 965.29,1195.01 877.7,1197.18C870.64,1198.96 872.4,1205.19 873.45,1210.79L873.45,1210.8ZM854.72,1224.45C843.09,1220.17 836.21,1206.95 824.11,1204.02L852.2,1227.81L854.71,1224.46L854.72,1224.45ZM1091.2,1231.22L883.66,1231.22L886.18,1234.63L1066.61,1234.71L1091.2,1231.23L1091.2,1231.22ZM1157.54,1272.9C1158.87,1264.96 1156.57,1254.04 1157.54,1245.68C1157.54,1240.68 1127.82,1244.92 1122.67,1241.76C1041.93,1245.23 960.28,1240.53 879.32,1243.22C874.21,1243.39 866.48,1239.24 863.61,1246.06C861.77,1250.44 860.02,1275.56 862.53,1277.34C867.82,1280.59 872.74,1277.23 877.59,1277.39C908.71,1278.44 939.81,1277.66 971.32,1278.98L1155.55,1276.89C1155.85,1275.56 1157.38,1273.83 1157.54,1272.91L1157.54,1272.9ZM1159.24,1285.65L934.69,1285.65L934.69,1289.05L1159.24,1289.05L1159.24,1285.65Z" style="fill-rule:nonzero;"/>
        </g>
        <g transform="matrix(0.946419,0,0,0.938884,51.590299,10.999849)">
            <path d="M1323.54,1051.57C1288.2,996.44 1375.45,951.14 1404.56,1005.46C1431.92,1056.52 1357.2,1104.07 1323.54,1051.57ZM1386.2,1058.41C1425.33,1026.56 1381.62,965.69 1339.67,995.72C1299.14,1024.74 1344.19,1092.6 1386.2,1058.41Z" style="fill-rule:nonzero;"/>
        </g>
        <g transform="matrix(0.946419,0,0,0.938884,51.590299,10.999849)">
            <path d="M905.77,669.84L905.77,697.91C913.92,700.03 913.3,706.47 919.35,711.52C913.74,715.53 913.78,722.94 905.77,720.88L905.85,737.82C911.18,736.68 917.88,741.48 917.33,746.99C917.05,749.84 909.9,761.51 905.65,760.97L905.65,815.1C918.75,819.92 922.1,835 906.02,838.5L905.66,852.52L919.4,861.25C915.19,867.25 913.15,874.84 905.65,876.73L905.77,931.84L910.96,930.85L919.36,942.87C915.08,948.01 912.91,952.77 905.69,953.19L905.76,969.25C919.6,969.12 918.6,981.6 910.94,990.58L905.76,989.66L905.76,1047.51L911.69,1047.39L917.63,1060.31C917.55,1065.27 910.08,1067.72 905.94,1068.1L905.64,1083.88L919.36,1091.77C914.12,1097.97 914.37,1106.11 905.64,1108.09L905.74,1125.77L915.88,1125.68C915.71,1120.23 921.23,1104.46 927,1103.62L935.87,1120.09L934.67,1125.75L949.9,1125.68L959.33,1101.98C965.81,1104.86 967.73,1124.26 971.45,1125.55L983.99,1125.76C982.1,1122 991.49,1102.03 993.36,1101.99C999.74,1108 1003.05,1117.09 1002.73,1125.76L1018.03,1125.76L1018.83,1117.22L1027.37,1101.94C1033.24,1108.4 1036.53,1116.87 1036.82,1125.69L1049.32,1125.88C1050.45,1125.57 1055.27,1110.07 1056.58,1107.26C1057.6,1105.08 1058.41,1101.35 1061.41,1101.93C1065.06,1102.64 1069.54,1121.4 1071,1125.55L1084.17,1125.55C1085.85,1119.72 1087.36,1113.92 1090.04,1108.42C1091.06,1106.33 1092.51,1101.15 1095.43,1101.94C1097.76,1102.57 1105.31,1121.81 1103.1,1125.78L1116.73,1125.78L1116.71,1105.36L1109.94,1108.75L1103.02,1092.68C1104.84,1086.35 1110.75,1084.09 1116.71,1086.64L1116.71,1066.24L1109.92,1068.91L1103.03,1060.2L1112.48,1044.13L1116.73,1050.93L1116.73,987.99L1109.96,991.38L1102.95,976.89L1111.56,968.25L1116.72,970.98L1116.72,950.57C1096.97,955.23 1103.32,938.19 1112.49,928.46L1116.74,933.56L1116.74,874.02L1109.96,877.42L1103.1,862.94C1105.67,856.97 1110.17,851.92 1116.72,855.31L1116.72,836.61C1113.19,837.41 1103.03,835.22 1102.96,830.69L1112.49,812.8L1116.73,817.9L1116.73,756.66L1109.95,761.76L1102.95,745.55C1106.07,740.14 1110.05,736.49 1116.75,737.94L1115.95,720.77C1115.28,719.62 1103.71,721.31 1103.04,713.18L1109.96,697.11C1114.87,695.61 1112.9,701.24 1116.74,702.21L1116.74,672.44C1116.74,670.64 1121.57,669.2 1123.54,669.89L1123.54,1132.6L897.28,1132.6L897.4,671.71L905.8,669.89L905.77,669.84Z" style="fill-rule:nonzero;"/>
        </g>
        <g transform="matrix(0.946419,0,0,0.938884,51.590299,10.999849)">
            <path d="M1062.21,986.33C1067.83,994.96 1072.77,1007.19 1072.61,1017.71C1072.54,1022.36 1065.5,1053.68 1058.9,1049.18C1047.75,1027.93 1044.18,1009.27 1058.48,988.46C1059.48,987 1058.27,985.21 1062.2,986.33L1062.21,986.33Z" style="fill-rule:nonzero;"/>
        </g>
        <g transform="matrix(0.946419,0,0,0.938884,51.590299,10.999849)">
            <path d="M1062.24,754.91C1075.14,774.05 1076.95,803.44 1058.89,819.54C1048.5,796.99 1044.03,779.39 1058.46,757.09C1059.52,755.45 1058.28,754.03 1062.24,754.91Z" style="fill-rule:nonzero;"/>
        </g>
        <g transform="matrix(0.946419,0,0,0.938884,51.590299,10.999849)">
            <path d="M1028.22,1050.88C1023.81,1051.71 1025.6,1050.23 1024.7,1048.48C1013.16,1026.06 1012.9,1008.48 1024.87,986.25C1030.92,981.86 1038.1,1008.91 1038.46,1012.59C1039.87,1026.81 1034.69,1038.73 1028.21,1050.87L1028.22,1050.88Z" style="fill-rule:nonzero;"/>
        </g>
        <g transform="matrix(0.946419,0,0,0.938884,51.590299,10.999849)">
            <path d="M1024.88,817.83C1013.53,796.58 1010.36,774.29 1027.4,754.93C1039.55,770.07 1042.27,793.9 1032.59,811.12C1030.89,814.14 1028.98,818.36 1024.88,817.83Z" style="fill-rule:nonzero;"/>
        </g>
        <g transform="matrix(0.946419,0,0,0.938884,51.590299,10.999849)">
            <path d="M1024.87,933.51C1017.61,916 1012.22,902.84 1018.55,883.84C1020.97,881.9 1024.19,869.35 1027.38,870.59C1034.6,873.4 1038.88,896.65 1038.54,903.79C1038.35,907.81 1031.45,938.3 1024.87,933.51Z" style="fill-rule:nonzero;"/>
        </g>
        <g transform="matrix(0.946419,0,0,0.938884,51.590299,10.999849)">
            <path d="M1096.27,754.91C1107.03,775.06 1111,802.29 1092.92,819.54C1083.75,799.36 1078.17,785.98 1087.97,764.44C1088.79,762.64 1093.57,752.67 1096.27,754.92L1096.27,754.91Z" style="fill-rule:nonzero;"/>
        </g>
        <g transform="matrix(0.946419,0,0,0.938884,51.590299,10.999849)">
            <path d="M956.83,817.84C947.1,796.47 944.08,774.73 959.36,754.93C971.76,767.49 973.15,788.3 968.24,804.61C967.28,807.8 961.55,821.77 956.83,817.84Z" style="fill-rule:nonzero;"/>
        </g>
        <g transform="matrix(0.946419,0,0,0.938884,51.590299,10.999849)">
            <path d="M1062.24,870.59C1075.69,891.07 1074.67,912.82 1062.24,933.52C1044.54,916.52 1046.28,891.51 1058.72,871.64L1062.23,870.59L1062.24,870.59Z" style="fill-rule:nonzero;"/>
        </g>
        <g transform="matrix(0.946419,0,0,0.938884,51.590299,10.999849)">
            <path d="M924.51,1049.19C920.08,1038.99 914.14,1029.55 914.23,1017.8C914.27,1012.84 921.08,984.75 927.02,986.25C935.7,988.44 937.46,1022.27 936.47,1029.7C936.05,1032.84 928.33,1052.08 924.51,1049.18L924.51,1049.19Z" style="fill-rule:nonzero;"/>
        </g>
        <g transform="matrix(0.946419,0,0,0.938884,51.590299,10.999849)">
            <path d="M990.85,933.52C981.62,912.31 976.17,889.64 993.38,870.61C1002.76,879.3 1005.72,896.65 1004.44,908.87C1004.05,912.61 996.1,938.24 990.84,933.52L990.85,933.52Z" style="fill-rule:nonzero;"/>
        </g>
        <g transform="matrix(0.946419,0,0,0.938884,51.590299,10.999849)">
            <path d="M990.85,817.83C980.39,797.71 977.57,772.9 993.38,754.93C1005.6,769.46 1007.83,791.97 1000.01,809.16C999.06,811.26 993.6,819.83 990.85,817.83Z" style="fill-rule:nonzero;"/>
        </g>
        <g transform="matrix(0.946419,0,0,0.938884,51.590299,10.999849)">
            <path d="M1096.27,986.27C1109.38,1007.07 1106.66,1029.67 1096.28,1050.9C1079.39,1034.31 1079.24,1006.52 1092.76,987.33L1096.27,986.27Z" style="fill-rule:nonzero;"/>
        </g>
        <g transform="matrix(0.946419,0,0,0.938884,51.590299,10.999849)">
            <path d="M990.84,1049.19C991.23,1042.76 985.94,1038.56 984.18,1032.87C980.64,1021.39 982,1008.76 986.1,997.69C990.33,989.11 991.27,979.51 998.57,992.97C1006.29,1007.19 1006.56,1025.49 999.64,1040.14C998.78,1041.95 993.3,1051.44 990.84,1049.19Z" style="fill-rule:nonzero;"/>
        </g>
        <g transform="matrix(0.946419,0,0,0.938884,51.590299,10.999849)">
            <path d="M961.88,933.51C958.49,936.04 951.84,920.82 950.99,918.05C946.09,901.97 948.23,883.58 959.35,870.6C975.7,888.22 972.83,913.88 961.88,933.51Z" style="fill-rule:nonzero;"/>
        </g>
        <g transform="matrix(0.946419,0,0,0.938884,51.590299,10.999849)">
            <path d="M961.88,1049.19C958.36,1051.92 951.67,1034.6 950.93,1032.1C945.1,1012.56 950.77,1004.19 956.82,986.25C964.89,987.71 969.62,1001.83 970.43,1009.21C972.13,1024.63 968.81,1035.81 961.89,1049.19L961.88,1049.19Z" style="fill-rule:nonzero;"/>
        </g>
        <g transform="matrix(0.946419,0,0,0.938884,51.590299,10.999849)">
            <path d="M1096.27,870.59C1106.92,887.18 1109.34,915.45 1096.79,931.37C1095.71,932.74 1096.82,934.51 1092.93,933.5C1081.42,912.92 1078.68,891.87 1092.76,871.64L1096.27,870.58L1096.27,870.59Z" style="fill-rule:nonzero;"/>
        </g>
        <g transform="matrix(0.946419,0,0,0.938884,51.590299,10.999849)">
            <path d="M924.51,817.83C919.53,807.23 914.12,796.89 914.15,784.67C914.16,779.56 921.61,755.5 927.01,756.61C933.04,757.84 937.12,780.99 937.13,786.37C937.13,796.06 934.75,814.33 924.51,817.84L924.51,817.83Z" style="fill-rule:nonzero;"/>
        </g>
        <g transform="matrix(0.946419,0,0,0.938884,51.590299,10.999849)">
            <path d="M929.5,872.36C938.21,889.59 942.32,918.5 925.36,931.82C912.96,917.55 910.9,891.02 922.09,875.84C924.17,873.02 925.56,871.54 929.5,872.37L929.5,872.36Z" style="fill-rule:nonzero;"/>
        </g>
        <g transform="matrix(0.946419,0,0,0.938884,51.590299,10.999849)">
            <path d="M1062.24,702.15L1055.23,694.67L1048.66,669.85C1068.62,670.42 1077,664.28 1068.97,687.59C1067.22,692.68 1063.66,696.93 1062.25,702.15L1062.24,702.15Z" style="fill-rule:nonzero;"/>
        </g>
        <g transform="matrix(0.946419,0,0,0.938884,51.590299,10.999849)">
            <path d="M970.42,669.83C971.37,681.26 967.9,694.38 959.36,702.13C956.71,702.11 945.45,672.66 948.31,669.84L970.43,669.84L970.42,669.83Z" style="fill-rule:nonzero;"/>
        </g>
        <g transform="matrix(0.946419,0,0,0.938884,51.590299,10.999849)">
            <path d="M1096.27,702.15C1092.45,703.07 1093.52,701.57 1092.4,700.04C1089.51,696.11 1080.28,673.08 1082.71,669.84L1105.77,671.49C1105.6,682.63 1100.61,692.24 1096.27,702.15Z" style="fill-rule:nonzero;"/>
        </g>
        <g transform="matrix(0.946419,0,0,0.938884,51.590299,10.999849)">
            <path d="M1004.45,669.83C1005.42,678.02 1002.87,685.59 999.34,692.81C997.58,696.41 996.55,701.68 991.78,700.52C988.48,699.53 980.26,671.92 982.32,669.84L1004.45,669.84L1004.45,669.83Z" style="fill-rule:nonzero;"/>
        </g>
        <g transform="matrix(0.946419,0,0,0.938884,51.590299,10.999849)">
            <path d="M1029.78,700.28L1025.11,700.14C1022.93,698.86 1015.4,676.77 1015.29,673.35C1015.12,668.31 1030.42,669.13 1034.2,669.84C1045.14,671.88 1031.36,694.23 1029.77,700.28L1029.78,700.28Z" style="fill-rule:nonzero;"/>
        </g>
        <g transform="matrix(0.946419,0,0,0.938884,51.590299,10.999849)">
            <path d="M936.4,669.83C937.17,678.32 935.9,686.2 932.4,693.94C930.96,697.11 929.81,702.15 925.49,700.33C918.41,692.62 916.38,682.21 914.72,672.32C915.53,667.79 932.16,670.58 936.4,669.84L936.4,669.83Z" style="fill-rule:nonzero;"/>
        </g>
        <g transform="matrix(0.946419,0,0,0.938884,51.590299,10.999849)">
            <path d="M1079.27,761.7C1077.08,762.06 1077.1,762.16 1075.75,760.64C1070.35,754.57 1064.89,740.51 1076.7,737.92L1087.67,745.78L1079.27,761.7Z" style="fill-rule:nonzero;"/>
        </g>
        <g transform="matrix(0.946419,0,0,0.938884,51.590299,10.999849)">
            <path d="M1079.27,812.74L1087.35,827.18C1086.89,829.19 1085.69,830.82 1084.37,832.35C1083.73,833.09 1077.74,838.61 1076.8,838.21C1062.58,828.01 1072.6,825.57 1075.89,813.84L1079.27,812.74Z" style="fill-rule:nonzero;"/>
        </g>
        <g transform="matrix(0.946419,0,0,0.938884,51.590299,10.999849)">
            <path d="M1079.26,993.05L1075.74,991.99C1073.37,985.51 1066.42,982.12 1069.96,974.38C1073.52,966.59 1080.58,969.13 1084.5,975.12C1088.72,981.58 1079.49,985.77 1079.27,993.04L1079.26,993.05Z" style="fill-rule:nonzero;"/>
        </g>
        <g transform="matrix(0.946419,0,0,0.938884,51.590299,10.999849)">
            <path d="M1011.21,759.99L1007.73,758.95L1000.94,747.16C1000.48,742.55 1005.69,739.06 1008.92,736.31L1019.62,745.78L1011.2,759.99L1011.21,759.99Z" style="fill-rule:nonzero;"/>
        </g>
        <g transform="matrix(0.946419,0,0,0.938884,51.590299,10.999849)">
            <path d="M1011.21,1045.81L1019.63,1060.02L1008.92,1069.48L1001.06,1060.29L1007.73,1046.85L1011.21,1045.81Z" style="fill-rule:nonzero;"/>
        </g>
        <g transform="matrix(0.946419,0,0,0.938884,51.590299,10.999849)">
            <path d="M1045.23,1108.72C1040.8,1109.57 1042.61,1108.02 1041.71,1106.31C1039.3,1101.74 1034.25,1094.5 1036.62,1090.84C1042.69,1081.47 1048.28,1084.89 1053.51,1092.82L1045.23,1108.72Z" style="fill-rule:nonzero;"/>
        </g>
        <g transform="matrix(0.946419,0,0,0.938884,51.590299,10.999849)">
            <path d="M977.2,928.41L984.11,944.49L974.85,953.86L967.03,942.88C967.03,941.82 972.4,932.94 973.65,930.86C974.56,929.34 972.77,927.5 977.2,928.42L977.2,928.41Z" style="fill-rule:nonzero;"/>
        </g>
        <g transform="matrix(0.946419,0,0,0.938884,51.590299,10.999849)">
            <path d="M1079.27,1044.09L1086.22,1060.21C1083.16,1070.2 1068.06,1069.24 1069.02,1058.67C1069.1,1057.75 1074.44,1047.87 1075.48,1046.28C1076.55,1044.62 1075.3,1043.25 1079.27,1044.09Z" style="fill-rule:nonzero;"/>
        </g>
        <g transform="matrix(0.946419,0,0,0.938884,51.590299,10.999849)">
            <path d="M950.7,825.73C951.38,826.65 954.44,825.59 953.36,828.82L942.33,837.83L933.29,828.9L942.35,814.46C946.05,817.54 947.94,821.95 950.7,825.72L950.7,825.73Z" style="fill-rule:nonzero;"/>
        </g>
        <g transform="matrix(0.946419,0,0,0.938884,51.590299,10.999849)">
            <path d="M1045.24,993.05C1040.81,993.87 1042.62,992.38 1041.71,990.64C1035.22,978.15 1031.34,978.37 1044.41,967.58C1058.03,977.58 1049.96,981.43 1045.24,993.06L1045.24,993.05Z" style="fill-rule:nonzero;"/>
        </g>
        <g transform="matrix(0.946419,0,0,0.938884,51.590299,10.999849)">
            <path d="M983.48,982.39C983.32,982.77 981.42,983.04 980.82,984.26C980.07,985.8 977.01,996 973.84,993.06L967.41,977.21C971.09,963.65 988.17,971.28 983.48,982.39Z" style="fill-rule:nonzero;"/>
        </g>
        <g transform="matrix(0.946419,0,0,0.938884,51.590299,10.999849)">
            <path d="M949.2,716.73C941.43,726.84 939.42,717.61 933.25,711.53L942.36,698.76L952.57,710.68C953.29,712.74 950.38,715.18 949.19,716.73L949.2,716.73Z" style="fill-rule:nonzero;"/>
        </g>
        <g transform="matrix(0.946419,0,0,0.938884,51.590299,10.999849)">
            <path d="M949.25,857.75C950.38,858.58 953.9,861 953.22,862.66L941.51,877.37L935,864.2C937.27,854.02 940.21,851.07 949.25,857.75Z" style="fill-rule:nonzero;"/>
        </g>
        <g transform="matrix(0.946419,0,0,0.938884,51.590299,10.999849)">
            <path d="M1015.28,1089.38C1016.59,1090.67 1018.6,1091.07 1019.75,1092.6L1019.69,1094.17C1015.46,1097.41 1013.97,1102.03 1011.41,1106.29C1010.5,1107.81 1012.28,1109.65 1007.86,1108.73L1001.15,1090.1L1005.85,1089.73L1006.98,1084.88C1013.1,1083.63 1012.66,1086.8 1015.28,1089.38Z" style="fill-rule:nonzero;"/>
        </g>
        <g transform="matrix(0.946419,0,0,0.938884,51.590299,10.999849)">
            <path d="M977.2,1044.09L984.01,1058.55L974.9,1069.49L967.04,1060.29C967.01,1058.96 972.4,1048.93 973.68,1046.51C974.58,1044.81 972.76,1043.26 977.21,1044.09L977.2,1044.09Z" style="fill-rule:nonzero;"/>
        </g>
        <g transform="matrix(0.946419,0,0,0.938884,51.590299,10.999849)">
            <path d="M977.19,814.45L984.11,828.81L974.9,838.13L967.03,828.94L973.71,815.5L977.19,814.45Z" style="fill-rule:nonzero;"/>
        </g>
        <g transform="matrix(0.946419,0,0,0.938884,51.590299,10.999849)">
            <path d="M1045.23,814.45L1053.14,828.9C1053.62,831.89 1044.6,838.4 1042.94,838.13L1035.03,828.92L1041.87,815.61L1045.23,814.45Z" style="fill-rule:nonzero;"/>
        </g>
        <g transform="matrix(0.946419,0,0,0.938884,51.590299,10.999849)">
            <path d="M977.19,759.99L973.68,758.93L967.05,745.49L974.9,736.31C989.44,743.06 982.12,749.4 977.18,759.99L977.19,759.99Z" style="fill-rule:nonzero;"/>
        </g>
        <g transform="matrix(0.946419,0,0,0.938884,51.590299,10.999849)">
            <path d="M977.19,697.06L984.06,711.54C982.06,714.98 979.4,722.05 974.7,720.96L966.83,713.26C966.95,710.07 971.7,702.74 973.64,699.49C974.55,697.97 972.77,696.12 977.18,697.06L977.19,697.06Z" style="fill-rule:nonzero;"/>
        </g>
        <g transform="matrix(0.946419,0,0,0.938884,51.590299,10.999849)">
            <path d="M977.19,877.37C973.24,878.24 974.48,876.86 973.41,875.2C967.34,865.72 963.72,860.89 974.9,853.69C989.6,860.81 982.57,866.69 977.18,877.37L977.19,877.37Z" style="fill-rule:nonzero;"/>
        </g>
        <g transform="matrix(0.946419,0,0,0.938884,51.590299,10.999849)">
            <path d="M1013.9,971.68C1015.56,972.89 1017.34,975.57 1019.29,976.79L1010.4,993.06L1000.93,975.38L1008.68,967.74C1010.46,969 1012.15,970.41 1013.9,971.69L1013.9,971.68Z" style="fill-rule:nonzero;"/>
        </g>
        <g transform="matrix(0.946419,0,0,0.938884,51.590299,10.999849)">
            <path d="M977.19,1108.73C974.18,1111.61 974.33,1107.61 973.66,1106.32C971.95,1103.03 966.86,1095 966.82,1092.56L976.36,1084.86C979.22,1084.83 983.86,1089.83 984.11,1092.67C984.18,1093.54 977.83,1108.13 977.19,1108.74L977.19,1108.73Z" style="fill-rule:nonzero;"/>
        </g>
        <g transform="matrix(0.946419,0,0,0.938884,51.590299,10.999849)">
            <path d="M1045.23,697.07L1053.43,711.54L1044.44,720.98C1030.24,713.66 1036.21,710.08 1041.71,699.47C1042.61,697.73 1040.82,696.24 1045.23,697.07Z" style="fill-rule:nonzero;"/>
        </g>
        <g transform="matrix(0.946419,0,0,0.938884,51.590299,10.999849)">
            <path d="M1079.26,697.06L1086.08,711.56L1076.8,720.83C1064.96,712.22 1069.37,708.48 1075.74,698.13L1079.26,697.07L1079.26,697.06Z" style="fill-rule:nonzero;"/>
        </g>
        <g transform="matrix(0.946419,0,0,0.938884,51.590299,10.999849)">
            <path d="M1011.21,877.37C1006.8,878.32 1008.58,876.47 1007.67,874.95C1005.36,871.09 1003.15,866.87 1001.01,862.9C1004.25,855.46 1010.03,850.45 1016.31,857.86C1021.74,864.27 1012.5,871.07 1011.2,877.37L1011.21,877.37Z" style="fill-rule:nonzero;"/>
        </g>
        <g transform="matrix(0.946419,0,0,0.938884,51.590299,10.999849)">
            <path d="M947.22,740.66C949.31,742.76 952.44,742.13 951.5,746.88C951.31,747.86 947.1,755.62 946.18,757.04C941.12,764.85 939.49,753.71 936.39,749.3C935.13,747.5 931.61,749.12 933.02,744.73L942.35,736.19C945.17,735.44 945.71,739.16 947.21,740.66L947.22,740.66Z" style="fill-rule:nonzero;"/>
        </g>
        <g transform="matrix(0.946419,0,0,0.938884,51.590299,10.999849)">
            <path d="M1079.27,928.41L1085.82,944.33C1081.78,950.28 1076.04,956.27 1070.69,948.06C1067.33,942.91 1072.31,935.52 1075.48,930.59C1076.55,928.93 1075.3,927.55 1079.27,928.4L1079.27,928.41Z" style="fill-rule:nonzero;"/>
        </g>
        <g transform="matrix(0.946419,0,0,0.938884,51.590299,10.999849)">
            <path d="M950.67,941.43C951.36,942.43 953.94,941.48 953.39,942.86L945.42,952.25C939.56,953.28 936.62,948.17 933.03,944.5L941.51,930.11C944.6,927.8 948.87,938.82 950.67,941.43Z" style="fill-rule:nonzero;"/>
        </g>
        <g transform="matrix(0.946419,0,0,0.938884,51.590299,10.999849)">
            <path d="M1037.3,1064C1031.85,1057.5 1040.98,1049.39 1045.25,1044.1L1051.84,1061.57C1048.69,1068.26 1042.24,1069.89 1037.31,1064L1037.3,1064Z" style="fill-rule:nonzero;"/>
        </g>
        <g transform="matrix(0.946419,0,0,0.938884,51.590299,10.999849)">
            <path d="M1011.21,814.45L1018.13,828.81L1008.92,838.13L1001.01,828.93C1003.15,824.95 1005.36,820.74 1007.67,816.88C1008.58,815.36 1006.8,813.51 1011.21,814.46L1011.21,814.45Z" style="fill-rule:nonzero;"/>
        </g>
        <g transform="matrix(0.946419,0,0,0.938884,51.590299,10.999849)">
            <path d="M1079.26,877.37C1075.21,878.31 1076.52,876.65 1075.49,875.16C1069,865.78 1065.77,861.11 1076.97,853.69C1092.21,860.99 1083.29,866.32 1079.26,877.38L1079.26,877.37Z" style="fill-rule:nonzero;"/>
        </g>
        <g transform="matrix(0.946419,0,0,0.938884,51.590299,10.999849)">
            <path d="M1079.26,1108.73C1076.14,1111.65 1073.37,1101.47 1072.43,1099.76C1071.82,1098.65 1069.25,1098.64 1069.03,1097.42C1067.99,1091.76 1073.14,1088.16 1076.98,1085.04C1092.47,1092.44 1082.67,1097.38 1079.27,1108.72L1079.26,1108.73Z" style="fill-rule:nonzero;"/>
        </g>
        <g transform="matrix(0.946419,0,0,0.938884,51.590299,10.999849)">
            <path d="M1045.25,928.42L1053.34,942.86C1050.01,951.83 1042.37,956.19 1036.67,946.35C1033.26,940.48 1041.23,933.42 1045.25,928.42Z" style="fill-rule:nonzero;"/>
        </g>
        <g transform="matrix(0.946419,0,0,0.938884,51.590299,10.999849)">
            <path d="M949.46,1088.83C951.02,1090.7 951.94,1093.1 951.38,1095.56L942.36,1107.02L933.85,1093.43C937.32,1087.22 943.66,1081.9 949.46,1088.83Z" style="fill-rule:nonzero;"/>
        </g>
        <g transform="matrix(0.946419,0,0,0.938884,51.590299,10.999849)">
            <path d="M949.29,1063.87C948.85,1064.63 946.12,1066.62 945.42,1067.93C939.77,1068.95 936.47,1063.99 933.28,1060.27L942.37,1045.8C945.27,1045.02 953,1057.5 949.29,1063.87Z" style="fill-rule:nonzero;"/>
        </g>
        <g transform="matrix(0.946419,0,0,0.938884,51.590299,10.999849)">
            <path d="M1045.23,759.99L1041.75,758.94L1035.03,745.47C1040.37,735.88 1047.55,736.01 1053.36,745.53L1045.23,760L1045.23,759.99Z" style="fill-rule:nonzero;"/>
        </g>
        <g transform="matrix(0.946419,0,0,0.938884,51.590299,10.999849)">
            <path d="M946.25,969.63C946.69,969.88 951.52,977.36 951.44,978.28C951.36,979.27 947.27,987.3 946.35,988.55C940.72,996.19 937.79,982.41 933.25,978.58L940.13,969.62L946.25,969.62L946.25,969.63Z" style="fill-rule:nonzero;"/>
        </g>
        <g transform="matrix(0.946419,0,0,0.938884,51.590299,10.999849)">
            <path d="M1011.21,697.07C1011.82,697.59 1017.99,710.72 1017.99,711.52C1017.97,718.45 1008.94,723.75 1003.27,716.96C998.67,711.46 1004.52,705.57 1007.69,699.47C1008.39,698.11 1008.09,694.39 1011.21,697.07Z" style="fill-rule:nonzero;"/>
        </g>
        <g transform="matrix(0.946419,0,0,0.938884,51.590299,10.999849)">
            <path d="M1011.21,930.13L1018.19,944.57C1007.67,962.26 994.88,945.28 1007.69,931.19L1011.2,930.13L1011.21,930.13Z" style="fill-rule:nonzero;"/>
        </g>
        <g transform="matrix(0.946419,0,0,0.938884,51.590299,10.999849)">
            <path d="M1045.24,877.38L1035.03,862.9L1042.95,853.69C1058.19,860.99 1049.26,866.31 1045.25,877.38L1045.24,877.38Z" style="fill-rule:nonzero;"/>
        </g>
        <g transform="matrix(0.946419,0,0,0.938884,51.590299,10.999849)">
            <path d="M968.7,1074.74C963.69,1087.55 958.04,1086.72 950.01,1077.24L956.83,1067.92L968.7,1074.75L968.7,1074.74Z" style="fill-rule:nonzero;"/>
        </g>
        <g transform="matrix(0.946419,0,0,0.938884,51.590299,10.999849)">
            <path d="M923.11,968.82C922.65,968.62 917.21,961.81 917.98,960.14L926.8,952.35L934.56,961.35C931.94,964.3 927.78,970.89 923.1,968.82L923.11,968.82Z" style="fill-rule:nonzero;"/>
        </g>
        <g transform="matrix(0.946419,0,0,0.938884,51.590299,10.999849)">
            <path d="M964.56,956.42C965.84,957.43 969.36,959.74 968.65,961.49L960.83,969.05L950.05,962.4C947.92,959.1 957.22,956.45 957,952.43C959.5,951.51 962.76,954.99 964.57,956.42L964.56,956.42Z" style="fill-rule:nonzero;"/>
        </g>
        <g transform="matrix(0.946419,0,0,0.938884,51.590299,10.999849)">
            <path d="M1062.24,836.56L1068.71,845.86L1059.79,855.21L1052.32,846.24C1053.4,844.46 1059.86,834.57 1062.24,836.56Z" style="fill-rule:nonzero;"/>
        </g>
        <g transform="matrix(0.946419,0,0,0.938884,51.590299,10.999849)">
            <path d="M936.39,731.05L927.06,737.49C915.45,732.35 915.43,726.58 926.8,721L936.39,731.05Z" style="fill-rule:nonzero;"/>
        </g>
        <g transform="matrix(0.946419,0,0,0.938884,51.590299,10.999849)">
            <path d="M1096.27,952.24L1103.08,961.59L1093.78,970.93L1086.33,961.91C1087.71,959.87 1093.25,950.11 1096.28,952.25L1096.27,952.24Z" style="fill-rule:nonzero;"/>
        </g>
        <g transform="matrix(0.946419,0,0,0.938884,51.590299,10.999849)">
            <path d="M956.85,737.86L950.01,727.71L960.81,721C971.17,727.6 967.75,735.19 956.85,737.86Z" style="fill-rule:nonzero;"/>
        </g>
        <g transform="matrix(0.946419,0,0,0.938884,51.590299,10.999849)">
            <path d="M1062.9,966.54C1061.94,967.28 1063.02,970.25 1059.79,969.19L1052.19,961.35L1059.96,952.35L1068.97,960.09C1069.6,962.87 1064.87,965.02 1062.9,966.54Z" style="fill-rule:nonzero;"/>
        </g>
        <g transform="matrix(0.946419,0,0,0.938884,51.590299,10.999849)">
            <path d="M929.36,1084.68C925.42,1086.97 920.24,1079.81 917.75,1077.17L927.06,1068.28L934.58,1075.8L929.37,1084.68L929.36,1084.68Z" style="fill-rule:nonzero;"/>
        </g>
        <g transform="matrix(0.946419,0,0,0.938884,51.590299,10.999849)">
            <path d="M1032.36,958.41C1033.09,959.37 1036.07,958.29 1035.02,961.52L1027.35,969.19L1018.1,961.42L1025.92,952.34C1028.7,951.71 1030.85,956.44 1032.37,958.41L1032.36,958.41Z" style="fill-rule:nonzero;"/>
        </g>
        <g transform="matrix(0.946419,0,0,0.938884,51.590299,10.999849)">
            <path d="M1018.19,843.54L1028.23,836.55L1034.94,847.37C1029.52,857.2 1019.52,853.95 1018.2,843.55L1018.19,843.54Z" style="fill-rule:nonzero;"/>
        </g>
        <g transform="matrix(0.946419,0,0,0.938884,51.590299,10.999849)">
            <path d="M994.84,735.16C994.24,735.67 994.21,737.01 994.21,737.85L990.87,737.85L984.08,730.07L991.92,721L1000.93,728.74C1001.59,731.66 996.79,733.52 994.84,735.16Z" style="fill-rule:nonzero;"/>
        </g>
        <g transform="matrix(0.946419,0,0,0.938884,51.590299,10.999849)">
            <path d="M1062.18,720.98L1068.97,730.02L1059.74,737.92L1052.04,728.53C1056.79,727.04 1056.97,720.34 1062.18,720.97L1062.18,720.98Z" style="fill-rule:nonzero;"/>
        </g>
        <g transform="matrix(0.946419,0,0,0.938884,51.590299,10.999849)">
            <path d="M1022.54,733.39C1020.63,731.59 1017.19,731.52 1018.09,727.72L1027.3,720.94L1034.93,729.99L1027.33,737.84C1024.34,738.48 1024.08,734.83 1022.54,733.38L1022.54,733.39Z" style="fill-rule:nonzero;"/>
        </g>
        <g transform="matrix(0.946419,0,0,0.938884,51.590299,10.999849)">
            <path d="M1096.27,720.91L1103.07,731.05L1093.98,737.76L1086,730.26L1092.9,721.91L1096.27,720.91Z" style="fill-rule:nonzero;"/>
        </g>
        <g transform="matrix(0.946419,0,0,0.938884,51.590299,10.999849)">
            <path d="M994.2,1067.92L1001.01,1077.22L991.91,1084.8L984.07,1075.72L990.86,1067.94L994.2,1067.92Z" style="fill-rule:nonzero;"/>
        </g>
        <g transform="matrix(0.946419,0,0,0.938884,51.590299,10.999849)">
            <path d="M1062.24,1067.95L1069,1077.17L1059.95,1084.8L1052.02,1075.58C1055.57,1075.04 1059.27,1066.03 1062.24,1067.95Z" style="fill-rule:nonzero;"/>
        </g>
        <g transform="matrix(0.946419,0,0,0.938884,51.590299,10.999849)">
            <path d="M964.37,842.67C965.13,843.75 968.44,842.85 966.76,847.28C963.26,856.47 956.47,853.78 951.84,847.45L956.82,836.55C960.52,835.98 962.48,839.98 964.37,842.67Z" style="fill-rule:nonzero;"/>
        </g>
        <g transform="matrix(0.946419,0,0,0.938884,51.590299,10.999849)">
            <path d="M994.12,952.31L1001,962.4L991.8,969.2L985.07,962.43L984.06,959.06L994.12,952.31Z" style="fill-rule:nonzero;"/>
        </g>
        <g transform="matrix(0.946419,0,0,0.938884,51.590299,10.999849)">
            <path d="M1028.22,1067.94L1034.67,1077.3L1025.94,1084.79C1024.06,1083.34 1016.41,1077.07 1018.06,1074.74L1028.23,1067.94L1028.22,1067.94Z" style="fill-rule:nonzero;"/>
        </g>
        <g transform="matrix(0.946419,0,0,0.938884,51.590299,10.999849)">
            <path d="M934.52,843.59C932.8,854.65 922.94,857.03 918.15,845.89L925.57,838.36L934.52,843.58L934.52,843.59Z" style="fill-rule:nonzero;"/>
        </g>
        <g transform="matrix(0.946419,0,0,0.938884,51.590299,10.999849)">
            <path d="M1000.97,846.66L991.89,853.45L983.99,844.22L991.67,836.58C995.15,839.66 999.78,841.71 1000.97,846.67L1000.97,846.66Z" style="fill-rule:nonzero;"/>
        </g>
        <g transform="matrix(0.946419,0,0,0.938884,51.590299,10.999849)">
            <path d="M1096.27,855.25C1085.07,851.02 1083.37,845.46 1093.87,838.31C1103.82,843.94 1100.91,847.47 1096.27,855.25Z" style="fill-rule:nonzero;"/>
        </g>
        <g transform="matrix(0.946419,0,0,0.938884,51.590299,10.999849)">
            <path d="M1096.29,1067.91C1094.96,1073.71 1100.07,1073.56 1103.07,1077.26L1093.83,1084.85L1086.03,1078.9C1086.08,1076.74 1094.29,1065.72 1096.29,1067.9L1096.29,1067.91Z" style="fill-rule:nonzero;"/>
        </g>
        <g transform="matrix(0.946419,0,0,0.938884,51.590299,10.999849)">
            <path d="M771.38,601.79L771.38,632.41L775.61,632.27C778.12,642.95 793.21,657.32 771.39,652.82C768.04,666.44 778.75,671.08 783.11,682.34L771.27,691.29C770.63,693.56 770.72,735.94 771.35,738.37C771.75,739.93 774.98,740.14 776.11,742.42C777.32,744.85 783.45,759.44 783.3,760.82L771.38,761.7C771.72,765.23 770.72,769.43 771.34,772.8C772.08,776.83 775.27,776.25 776.51,778.26C782.29,787.63 787.58,792.77 775.59,799.09L771.39,795.72L771.23,844.26C777.93,850.93 779.53,859.39 783.34,867.94L771.39,870.58L771.27,883.22C778.33,884.28 780.61,893.89 783.43,900.18L775.4,906.17L769.7,902.89L771.26,954.69L776.14,955.86L783.27,975.13C780.22,979.42 775.51,977.97 771.39,976.04C771.89,980.06 770.65,985.09 771.24,988.85C771.6,991.19 784.34,1002.49 783.43,1009.03L775.61,1015.15L769.68,1011.77C772.46,1020.65 773.02,1030.37 769.66,1038.97C758.51,1036 764.34,1020.38 764.41,1012.79C765.4,907.28 762.6,802.01 762.8,696.12C762.84,672.52 765.04,648.71 764.57,624.75C764.41,616.47 756.86,599.77 771.39,601.78L771.38,601.79Z" style="fill-rule:nonzero;"/>
        </g>
        <g transform="matrix(0.946419,0,0,0.938884,51.590299,10.999849)">
            <path d="M793.47,970.94C787.52,975.42 780.22,944.65 779.9,941.16C778.82,929.5 779.52,919.03 789.25,911.41C798.73,930.7 805.26,951.05 793.47,970.94Z" style="fill-rule:nonzero;"/>
        </g>
        <g transform="matrix(0.946419,0,0,0.938884,51.590299,10.999849)">
            <path d="M793.3,861.86L788.51,861.98C783.51,847.69 778.48,836.23 780.07,820.57C780.72,814.21 785.51,796.2 791.89,808.4C800.76,825.38 803.36,844.9 793.3,861.86Z" style="fill-rule:nonzero;"/>
        </g>
        <g transform="matrix(0.946419,0,0,0.938884,51.590299,10.999849)">
            <path d="M851.32,846.76C854.77,861.91 860.18,873.93 858.18,890.18C857.77,893.49 851.91,909.22 847.96,906.29C842.26,890.24 828.95,853.58 851.33,846.75L851.32,846.76Z" style="fill-rule:nonzero;"/>
        </g>
        <g transform="matrix(0.946419,0,0,0.938884,51.590299,10.999849)">
            <path d="M851.32,736.17C854.56,750.97 859.96,761.95 858.14,777.86C857.77,781.09 852.49,799.14 847.95,795.71C842.91,781.71 838.04,767.7 839.46,752.35C840.14,744.94 842.41,735.61 851.33,736.16L851.32,736.17Z" style="fill-rule:nonzero;"/>
        </g>
        <g transform="matrix(0.946419,0,0,0.938884,51.590299,10.999849)">
            <path d="M851.3,1018.56C848.09,1021.33 846.15,1011.73 845.48,1009.97C839.74,994.81 833.13,967.54 848.79,957.38C858.34,976.38 863.69,999.76 851.3,1018.57L851.3,1018.56Z" style="fill-rule:nonzero;"/>
        </g>
        <g transform="matrix(0.946419,0,0,0.938884,51.590299,10.999849)">
            <path d="M820.7,714.07C825.85,734.48 836.33,756.18 821.54,775.3C816.44,776.63 810.84,753.43 810.43,749.01C809.27,736.58 808.49,721.02 820.69,714.06L820.7,714.07Z" style="fill-rule:nonzero;"/>
        </g>
        <g transform="matrix(0.946419,0,0,0.938884,51.590299,10.999849)">
            <path d="M787.56,695.36C790.65,694.7 790.89,697.76 791.73,699.67C799.51,717.51 804.96,738.68 790.94,754.86C779.49,747.38 775.44,697.95 787.56,695.36Z" style="fill-rule:nonzero;"/>
        </g>
        <g transform="matrix(0.946419,0,0,0.938884,51.590299,10.999849)">
            <path d="M820.7,824.64C825.2,841.98 833.31,857.4 826.62,875.62C818.65,897.32 811.33,867.49 810.44,857.88C809.49,847.66 808.52,827.77 820.71,824.63L820.7,824.64Z" style="fill-rule:nonzero;"/>
        </g>
        <g transform="matrix(0.946419,0,0,0.938884,51.590299,10.999849)">
            <path d="M820.69,935.22C826.93,954.15 836.57,978.5 819.86,994.73C811.6,981.21 808.35,961.74 810.41,946.19C811.06,941.27 815.35,935.88 820.69,935.22Z" style="fill-rule:nonzero;"/>
        </g>
        <g transform="matrix(0.946419,0,0,0.938884,51.590299,10.999849)">
            <path d="M790.07,1020.28C794.41,1033.58 800.05,1046.8 800.29,1061.09L780.76,1049.15C776.81,1045.41 779.42,1019.75 790.06,1020.28L790.07,1020.28Z" style="fill-rule:nonzero;"/>
        </g>
        <g transform="matrix(0.946419,0,0,0.938884,51.590299,10.999849)">
            <path d="M829.21,1083.21C826.37,1082.35 811.04,1072.74 810.47,1071.8C804.4,1061.88 813.95,1034.74 820.32,1047.04C822.47,1051.19 830.98,1081.17 829.21,1083.21Z" style="fill-rule:nonzero;"/>
        </g>
        <g transform="matrix(0.946419,0,0,0.938884,51.590299,10.999849)">
            <path d="M851.3,683.44C846.91,684.25 848.68,682.84 847.77,681.05C845.28,676.12 836.27,651.27 839.43,647.74L859.58,659.1C859.58,668.37 855.07,675.49 851.3,683.44Z" style="fill-rule:nonzero;"/>
        </g>
        <g transform="matrix(0.946419,0,0,0.938884,51.590299,10.999849)">
            <path d="M851.32,1069.6L858.13,1105.32L845.42,1096.78C832.28,1089.63 837.47,1069.6 851.33,1069.6L851.32,1069.6Z" style="fill-rule:nonzero;"/>
        </g>
        <g transform="matrix(0.946419,0,0,0.938884,51.590299,10.999849)">
            <path d="M820.68,664.72C817.34,667.63 817.92,663.5 817.32,662.17C812.41,651.33 809.29,639.23 808.82,627.3L828.97,640.38C829.76,643.59 822.95,662.74 820.68,664.72Z" style="fill-rule:nonzero;"/>
        </g>
        <g transform="matrix(0.946419,0,0,0.938884,51.590299,10.999849)">
            <path d="M798.1,621.02C802.35,626.57 795,638.2 793.29,644.11L788.5,644.23C785.84,633.46 779.03,623.4 779.89,612.01C780.81,610.96 796.9,619.45 798.1,621.02Z" style="fill-rule:nonzero;"/>
        </g>
        <g transform="matrix(0.946419,0,0,0.938884,51.590299,10.999849)">
            <path d="M864.92,800.83L871.75,820.48C863.89,833.48 859.86,815 854.75,810.18L864.91,800.83L864.92,800.83Z" style="fill-rule:nonzero;"/>
        </g>
        <g transform="matrix(0.946419,0,0,0.938884,51.590299,10.999849)">
            <path d="M809.41,925.62C807.56,927.58 807.59,930.95 803.71,930.11L796.89,908.02L804.39,906.58L813.76,921.01L813.08,923.36C811.97,924.22 810.34,924.63 809.4,925.63L809.41,925.62Z" style="fill-rule:nonzero;"/>
        </g>
        <g transform="matrix(0.946419,0,0,0.938884,51.590299,10.999849)">
            <path d="M861.55,749.78C864.37,744.17 850.15,728.52 860.72,727.56C867.42,726.95 869.17,735.63 871.75,740.48C871.86,743.38 863.05,751.6 861.55,749.78Z" style="fill-rule:nonzero;"/>
        </g>
        <g transform="matrix(0.946419,0,0,0.938884,51.590299,10.999849)">
            <path d="M807.1,979.46C806.03,986.79 811.01,992.62 813.64,999.05L803.71,1003.28L796.76,985.57L807.1,979.46Z" style="fill-rule:nonzero;"/>
        </g>
        <g transform="matrix(0.946419,0,0,0.938884,51.590299,10.999849)">
            <path d="M807.1,651.12C805.7,659.43 812.78,665.35 813.91,673.23C803.38,677.34 800.07,667.2 796.76,658.92C802.49,657.39 802.22,650.6 807.1,651.12Z" style="fill-rule:nonzero;"/>
        </g>
        <g transform="matrix(0.946419,0,0,0.938884,51.590299,10.999849)">
            <path d="M864.93,688.54C863.53,695.94 872.9,703.02 871.84,709.73L864.25,712.09L854.75,697.09L864.93,688.54Z" style="fill-rule:nonzero;"/>
        </g>
        <g transform="matrix(0.946419,0,0,0.938884,51.590299,10.999849)">
            <path d="M806.77,799.37L813.71,813.35L803.71,821.23L796.88,801.72L806.77,799.37Z" style="fill-rule:nonzero;"/>
        </g>
        <g transform="matrix(0.946419,0,0,0.938884,51.590299,10.999849)">
            <path d="M834.3,890.99C835.17,899.1 846.43,909.05 836.67,914.71C832.24,915.48 827.95,903.32 826.08,900.03L834.3,890.99Z" style="fill-rule:nonzero;"/>
        </g>
        <g transform="matrix(0.946419,0,0,0.938884,51.590299,10.999849)">
            <path d="M871.27,856.57C871.07,857.11 863.37,863.4 861.55,862.06L856.44,841.67L864.96,840.67C867.26,845.56 873.3,851.07 871.27,856.57Z" style="fill-rule:nonzero;"/>
        </g>
        <g transform="matrix(0.946419,0,0,0.938884,51.590299,10.999849)">
            <path d="M806.88,1017.14L814.02,1032.92L803.71,1038.98L796.89,1019.47L806.88,1017.14Z" style="fill-rule:nonzero;"/>
        </g>
        <g transform="matrix(0.946419,0,0,0.938884,51.590299,10.999849)">
            <path d="M806.95,688.66L813.34,701.29C813.13,703.5 805.52,712.36 803.71,710.67L796.89,690.27L806.95,688.66Z" style="fill-rule:nonzero;"/>
        </g>
        <g transform="matrix(0.946419,0,0,0.938884,51.590299,10.999849)">
            <path d="M807.09,870.58L813.97,890.06C802.87,899.58 803.71,886.56 797.11,879.61C796.69,876.82 805.59,868.96 807.09,870.57L807.09,870.58Z" style="fill-rule:nonzero;"/>
        </g>
        <g transform="matrix(0.946419,0,0,0.938884,51.590299,10.999849)">
            <path d="M864.85,1062.83C865.28,1069.14 872.94,1074.61 871.84,1080.62C871.7,1081.38 863.79,1082.66 864.09,1086.61L854.76,1067.05L864.84,1062.83L864.85,1062.83Z" style="fill-rule:nonzero;"/>
        </g>
        <g transform="matrix(0.946419,0,0,0.938884,51.590299,10.999849)">
            <path d="M871.75,1047.48L862.68,1047.66C856.56,1036.79 854.42,1033.03 864.1,1023.68L871.75,1047.48Z" style="fill-rule:nonzero;"/>
        </g>
        <g transform="matrix(0.946419,0,0,0.938884,51.590299,10.999849)">
            <path d="M840.65,836.13C840.55,836.38 837.12,839.36 836.65,839.72C835.32,840.74 835.86,842.98 833.46,839.96C832.09,838.24 825.84,821.98 826.52,821.16L834.18,817.89C835.72,824.28 843.76,828.8 840.66,836.12L840.65,836.13Z" style="fill-rule:nonzero;"/>
        </g>
        <g transform="matrix(0.946419,0,0,0.938884,51.590299,10.999849)">
            <path d="M864.92,913.1L871.75,935.21L861.79,934.95L857.05,923.36C856.56,920.81 860.77,912.52 864.93,913.1L864.92,913.1Z" style="fill-rule:nonzero;"/>
        </g>
        <g transform="matrix(0.946419,0,0,0.938884,51.590299,10.999849)">
            <path d="M832.63,729.38L826.37,711.49L831.8,707.18L841.31,720.03C842.59,723.03 834.75,731.34 832.63,729.39L832.63,729.38Z" style="fill-rule:nonzero;"/>
        </g>
        <g transform="matrix(0.946419,0,0,0.938884,51.590299,10.999849)">
            <path d="M813.87,782.05L807.96,784.83L804.78,783.9L797.12,770.7L804.55,761.73L813.87,782.05Z" style="fill-rule:nonzero;"/>
        </g>
        <g transform="matrix(0.946419,0,0,0.938884,51.590299,10.999849)">
            <path d="M834.3,669.84C835.17,677.95 846.42,687.9 836.68,693.56C827.83,687.68 821.8,675.76 834.3,669.84Z" style="fill-rule:nonzero;"/>
        </g>
        <g transform="matrix(0.946419,0,0,0.938884,51.590299,10.999849)">
            <path d="M841.12,802.51L832.07,802.67L826.46,792.35L830.95,782.13C835.64,778.69 840.95,799.49 841.12,802.51Z" style="fill-rule:nonzero;"/>
        </g>
        <g transform="matrix(0.946419,0,0,0.938884,51.590299,10.999849)">
            <path d="M832.64,950.52L825.77,931.11C835.39,923.33 837.99,935.4 841.1,942.92C841.27,945.49 834.8,952.08 832.65,950.52L832.64,950.52Z" style="fill-rule:nonzero;"/>
        </g>
        <g transform="matrix(0.946419,0,0,0.938884,51.590299,10.999849)">
            <path d="M871.5,968.97C871.28,969.35 864.6,973.48 863.19,971.87L856.45,952.24C865.03,947.22 873.69,965.22 871.5,968.97Z" style="fill-rule:nonzero;"/>
        </g>
        <g transform="matrix(0.946419,0,0,0.938884,51.590299,10.999849)">
            <path d="M834.29,1003.28L842.78,1021.14L836.56,1025.13C834.15,1025.39 833.12,1023.52 831.85,1021.9C827.16,1015.9 824.24,1008.9 830.92,1004.31L834.29,1003.29L834.29,1003.28Z" style="fill-rule:nonzero;"/>
        </g>
        <g transform="matrix(0.946419,0,0,0.938884,51.590299,10.999849)">
            <path d="M840.64,1057.27C840.25,1058.32 834.52,1062.63 832.64,1061.1L826.52,1044.21L829.21,1039.75C834.59,1037.14 842.66,1051.82 840.64,1057.28L840.64,1057.27Z" style="fill-rule:nonzero;"/>
        </g>
        <g transform="matrix(0.946419,0,0,0.938884,51.590299,10.999849)">
            <path d="M813.24,799.72C812.57,798.74 809.08,799.96 810.51,795.74L819.03,793.04L827.49,806.78C819.99,814.2 817.07,805.3 813.24,799.72Z" style="fill-rule:nonzero;"/>
        </g>
        <g transform="matrix(0.946419,0,0,0.938884,51.590299,10.999849)">
            <path d="M783.3,773.62C792.35,768.51 801,787.51 794.31,788.93C789.05,790.04 782.41,778.62 783.3,773.62Z" style="fill-rule:nonzero;"/>
        </g>
        <g transform="matrix(0.946419,0,0,0.938884,51.590299,10.999849)">
            <path d="M794.12,888.76C794.34,889.27 802.13,894.29 792.6,896.15C788.08,897.03 782.56,886.08 783.29,883.41C783.97,880.93 788.5,880.07 790.79,880.9C793.81,882 792.97,886.14 794.11,888.76L794.12,888.76Z" style="fill-rule:nonzero;"/>
        </g>
        <g transform="matrix(0.946419,0,0,0.938884,51.590299,10.999849)">
            <path d="M820.56,903.01L827.51,918.19L817.55,917.94C815.16,908.93 805.28,903.78 820.56,903.01Z" style="fill-rule:nonzero;"/>
        </g>
        <g transform="matrix(0.946419,0,0,0.938884,51.590299,10.999849)">
            <path d="M841.13,703.87L849.64,702.88L856.4,714.93C848.36,722.99 843.24,711.03 841.13,703.87Z" style="fill-rule:nonzero;"/>
        </g>
        <g transform="matrix(0.946419,0,0,0.938884,51.590299,10.999849)">
            <path d="M827.52,1027.06L817.39,1028.73L812.2,1013.48L820.7,1011.76C819.69,1018.2 824.64,1022.1 827.52,1027.06Z" style="fill-rule:nonzero;"/>
        </g>
        <g transform="matrix(0.946419,0,0,0.938884,51.590299,10.999849)">
            <path d="M796.89,1004.97L791.74,1005.9C787.3,1000.21 776.56,987.04 791.88,990.42L796.88,1004.97L796.89,1004.97Z" style="fill-rule:nonzero;"/>
        </g>
        <g transform="matrix(0.946419,0,0,0.938884,51.590299,10.999849)">
            <path d="M824.81,693.06C825.19,693.77 830.16,693.68 825.76,696.15C824.36,696.94 817.97,699.37 817.33,698.76L812.2,683.45L820.69,681.72C820.93,685.64 822.98,689.65 824.81,693.05L824.81,693.06Z" style="fill-rule:nonzero;"/>
        </g>
        <g transform="matrix(0.946419,0,0,0.938884,51.590299,10.999849)">
            <path d="M851.16,814.64C859.96,834.47 850.36,835.16 841.32,818.68C843.55,815.14 847.02,813.5 851.16,814.64Z" style="fill-rule:nonzero;"/>
        </g>
        <g transform="matrix(0.946419,0,0,0.938884,51.590299,10.999849)">
            <path d="M788.59,678.12L783.22,665.72L789,663.36L796.89,675.75L788.59,678.12Z" style="fill-rule:nonzero;"/>
        </g>
        <g transform="matrix(0.946419,0,0,0.938884,51.590299,10.999849)">
            <path d="M854.71,940.29L849.59,941.25C847.84,938.59 838.79,928.66 842.82,925.82C851.73,923.46 854.33,932.71 854.71,940.29Z" style="fill-rule:nonzero;"/>
        </g>
        <g transform="matrix(0.946419,0,0,0.938884,51.590299,10.999849)">
            <path d="M851.08,1037.57L854.85,1049.81C848.98,1058.36 840.28,1038.05 841.14,1037.3L851.08,1037.57Z" style="fill-rule:nonzero;"/>
        </g>
        <g transform="matrix(0.946419,0,0,0.938884,51.590299,10.999849)">
            <path d="M871.75,1016.87C868.04,1016.07 868.35,1008.81 868.27,1005.89C868.15,1001.43 867.18,991.93 871.75,989.65L871.75,1016.87Z" style="fill-rule:nonzero;"/>
        </g>
        <g transform="matrix(0.946419,0,0,0.938884,51.590299,10.999849)">
            <path d="M871.75,792.32C868.02,790.83 868.83,782.83 868.19,779.56L871.75,765.1L871.75,792.32Z" style="fill-rule:nonzero;"/>
        </g>
        <g transform="matrix(0.946419,0,0,0.938884,51.590299,10.999849)">
            <path d="M1254.51,1039.84C1240.27,1049.55 1248.25,1024.84 1246.99,1020.2C1245.38,1014.27 1236.81,1014.96 1236.03,1010.7C1238.79,999.03 1249.02,992.48 1245.99,979.46L1235.73,978.49C1235.34,973.76 1245,959.66 1245.93,954.71C1248.18,942.72 1243.74,926.39 1246.93,913.88L1235.7,900.26C1236.46,896.91 1245.78,887.24 1245.97,886.38C1246.87,882.26 1245.47,876.67 1246,872.28C1240.91,873.4 1237.14,874.43 1235.8,868.05L1247.49,844.3L1247.43,803.53L1235.96,794.66C1239.66,782.87 1249.23,777.12 1245.99,763.41L1238.56,765.01L1235.77,760.91L1247.17,736.82L1246.01,691.96C1224.6,689.68 1243.66,676.02 1245.61,668.59C1246.66,664.57 1245.85,660.29 1246.02,656.24L1238.66,655.98L1235.8,652.07C1235.77,647.05 1244.46,637.37 1245.61,632.86C1247.8,624.3 1241.49,607.87 1252.81,605.21C1252.32,606.88 1254.53,608.78 1254.53,609.45L1254.53,1039.84L1254.51,1039.84Z" style="fill-rule:nonzero;"/>
        </g>
        <g transform="matrix(0.946419,0,0,0.938884,51.590299,10.999849)">
            <path d="M1171.13,909.7C1167.21,910.67 1168.34,908.93 1167.25,907.55C1159.13,897.25 1158.91,884.22 1161.37,871.85C1162.1,868.2 1166.26,854.26 1167.79,851.49C1171.57,844.64 1175.4,852.51 1177.04,857.01C1183.55,874.8 1176.13,892.68 1171.12,909.69L1171.13,909.7Z" style="fill-rule:nonzero;"/>
        </g>
        <g transform="matrix(0.946419,0,0,0.938884,51.590299,10.999849)">
            <path d="M1171.13,1020.27C1168.46,1022.24 1164.3,1015.42 1163.39,1013.58C1154.06,994.74 1165.04,979.28 1167.76,960.73C1171.72,960.14 1174.18,961.85 1176.05,965.2C1184.52,980.4 1176.07,1004.94 1171.13,1020.28L1171.13,1020.27Z" style="fill-rule:nonzero;"/>
        </g>
        <g transform="matrix(0.946419,0,0,0.938884,51.590299,10.999849)">
            <path d="M1172.82,737.9C1185.1,756.62 1178.21,779.91 1170.31,799.12C1156.24,787.77 1159.24,765.96 1164.29,750.59C1165.09,748.16 1169.2,735.27 1172.82,737.9Z" style="fill-rule:nonzero;"/>
        </g>
        <g transform="matrix(0.946419,0,0,0.938884,51.590299,10.999849)">
            <path d="M1224.82,861.14C1212.77,847.62 1221.8,820.56 1229.84,805.96C1246.14,820.3 1238.45,849.78 1228.13,865.44C1226.82,864.14 1226.04,862.52 1224.81,861.14L1224.82,861.14Z" style="fill-rule:nonzero;"/>
        </g>
        <g transform="matrix(0.946419,0,0,0.938884,51.590299,10.999849)">
            <path d="M1196.69,778.71C1188.46,763.78 1187.5,748.29 1193.64,732.31L1200.89,717.49C1213.52,730.1 1209.5,761.3 1201.29,775.69C1200.03,777.9 1199.84,779.34 1196.68,778.71L1196.69,778.71Z" style="fill-rule:nonzero;"/>
        </g>
        <g transform="matrix(0.946419,0,0,0.938884,51.590299,10.999849)">
            <path d="M1228.97,974.34C1212.91,962.44 1219.45,934.61 1227.34,919.02C1228.21,917.29 1228.9,913.63 1231.53,914.82C1232.84,915.41 1238.36,926.28 1238.75,928.02C1241.95,942.05 1234.69,961.59 1228.98,974.35L1228.97,974.34Z" style="fill-rule:nonzero;"/>
        </g>
        <g transform="matrix(0.946419,0,0,0.938884,51.590299,10.999849)">
            <path d="M1230.67,756.59C1220.83,754.93 1218.08,738.55 1218.67,730.15C1219,725.55 1224.79,706.74 1226.91,702.63C1227.8,700.89 1229.06,698.17 1231.52,698.76C1245.87,715.75 1236.69,738.15 1230.67,756.59Z" style="fill-rule:nonzero;"/>
        </g>
        <g transform="matrix(0.946419,0,0,0.938884,51.590299,10.999849)">
            <path d="M1196.7,887.58C1185.61,870.59 1189.77,852.84 1195.85,834.87C1196.52,832.88 1197.85,827.28 1200.89,828.08C1214.85,833.39 1207.43,873.82 1201.31,884.58C1200.06,886.78 1199.85,888.23 1196.7,887.59L1196.7,887.58Z" style="fill-rule:nonzero;"/>
        </g>
        <g transform="matrix(0.946419,0,0,0.938884,51.590299,10.999849)">
            <path d="M1203.2,938.95C1209.42,942.6 1209.32,964.96 1208.59,971.81C1207.71,980.02 1203.05,987.24 1201.71,995.3C1198.64,1001.88 1192.04,988.44 1191.28,985.69C1186.56,968.67 1193.62,954.48 1198.48,938.72C1199.98,938.66 1201.82,938.14 1203.2,938.95Z" style="fill-rule:nonzero;"/>
        </g>
        <g transform="matrix(0.946419,0,0,0.938884,51.590299,10.999849)">
            <path d="M1218.8,1064.51C1218.88,1054.23 1222.14,1039.73 1226.15,1030.18C1227.55,1026.84 1228.77,1022.22 1233.08,1023.82C1239.25,1026.43 1240.56,1044.17 1238.87,1049.73C1237.73,1053.48 1222.73,1061.68 1218.8,1064.51Z" style="fill-rule:nonzero;"/>
        </g>
        <g transform="matrix(0.946419,0,0,0.938884,51.590299,10.999849)">
            <path d="M1188.16,1086.6L1198.38,1047.48C1210.94,1045.33 1211.97,1063.18 1208.11,1071.7C1206.37,1075.55 1190.58,1088.55 1188.16,1086.6Z" style="fill-rule:nonzero;"/>
        </g>
        <g transform="matrix(0.946419,0,0,0.938884,51.590299,10.999849)">
            <path d="M1175.79,1073.5C1178.08,1075.71 1182,1089.07 1181.13,1092.23L1160.95,1107.03C1158.1,1103.65 1167.1,1072.34 1170.45,1071.42C1172.24,1071.58 1174.51,1072.27 1175.79,1073.5Z" style="fill-rule:nonzero;"/>
        </g>
        <g transform="matrix(0.946419,0,0,0.938884,51.590299,10.999849)">
            <path d="M1167.77,686.85C1166.32,679.95 1158.35,669.43 1159.67,662.39C1160.45,658.22 1175.3,651.43 1179.64,649.43C1181.98,652.57 1174.6,684.06 1167.77,686.85Z" style="fill-rule:nonzero;"/>
        </g>
        <g transform="matrix(0.946419,0,0,0.938884,51.590299,10.999849)">
            <path d="M1210.27,630.72C1211.77,632.4 1205.54,655.28 1203.81,659.12C1203.02,660.86 1199.66,668.68 1196.69,666.43L1190.02,642.01L1210.27,630.72Z" style="fill-rule:nonzero;"/>
        </g>
        <g transform="matrix(0.946419,0,0,0.938884,51.590299,10.999849)">
            <path d="M1239.19,613.71C1236.97,625.41 1236.31,638.26 1228.14,647.69C1221.85,641.84 1219.87,635.83 1219.66,627.08C1220.03,623.93 1237.91,612.34 1239.19,613.7L1239.19,613.71Z" style="fill-rule:nonzero;"/>
        </g>
        <g transform="matrix(0.946419,0,0,0.938884,51.590299,10.999849)">
            <path d="M1215.37,714.07C1213.35,716.31 1207.74,706.68 1205.08,706.19L1211.99,690.25L1222.19,694.55L1215.36,714.08L1215.37,714.07Z" style="fill-rule:nonzero;"/>
        </g>
        <g transform="matrix(0.946419,0,0,0.938884,51.590299,10.999849)">
            <path d="M1205.17,674.92L1212.82,652.84L1221.96,663.57L1213.65,675.9L1205.17,674.92Z" style="fill-rule:nonzero;"/>
        </g>
        <g transform="matrix(0.946419,0,0,0.938884,51.590299,10.999849)">
            <path d="M1157.53,691.96C1155.49,697.17 1161.97,697.78 1162.48,699.72C1163.39,703.2 1156.53,717.25 1150.09,713.94C1142.92,711.68 1153.42,696.76 1154.04,693L1157.54,691.96L1157.53,691.96Z" style="fill-rule:nonzero;"/>
        </g>
        <g transform="matrix(0.946419,0,0,0.938884,51.590299,10.999849)">
            <path d="M1215.34,872.29L1222.03,881.37L1213.68,895.37L1205.16,894.37C1205.44,886.62 1213.78,881.91 1211.97,873.16L1215.34,872.29Z" style="fill-rule:nonzero;"/>
        </g>
        <g transform="matrix(0.946419,0,0,0.938884,51.590299,10.999849)">
            <path d="M1187.86,673.6C1188.3,673.85 1193.17,681.52 1193.06,682.28L1186.33,695.25L1178.12,693.48L1183.08,673.24C1184.63,673.38 1186.42,672.77 1187.86,673.61L1187.86,673.6Z" style="fill-rule:nonzero;"/>
        </g>
        <g transform="matrix(0.946419,0,0,0.938884,51.590299,10.999849)">
            <path d="M1222.18,911.41L1215.37,931.82L1205.3,926.54L1212.08,909.73L1222.18,911.41Z" style="fill-rule:nonzero;"/>
        </g>
        <g transform="matrix(0.946419,0,0,0.938884,51.590299,10.999849)">
            <path d="M1162.59,955.72C1163.75,957.34 1157.75,970.06 1156.6,972.63C1155.94,974.1 1156.4,977.29 1153.32,976.03C1143.05,971.85 1149.76,961.03 1154.13,954.67L1162.59,955.72Z" style="fill-rule:nonzero;"/>
        </g>
        <g transform="matrix(0.946419,0,0,0.938884,51.590299,10.999849)">
            <path d="M1184.73,953.92C1181.41,956.79 1177.74,946.61 1178.23,943.34C1179.33,936.02 1187.08,925.18 1192.61,935.35L1184.73,953.93L1184.73,953.92Z" style="fill-rule:nonzero;"/>
        </g>
        <g transform="matrix(0.946419,0,0,0.938884,51.590299,10.999849)">
            <path d="M1188.77,788.31C1189.66,789.3 1191.39,789.68 1192.47,790.56L1192.65,792.41C1188.56,800.09 1186.19,813.85 1176.5,803.41L1184.78,783.82C1185.92,782.95 1187.82,787.25 1188.78,788.31L1188.77,788.31Z" style="fill-rule:nonzero;"/>
        </g>
        <g transform="matrix(0.946419,0,0,0.938884,51.590299,10.999849)">
            <path d="M1158.24,919.2C1159.91,921.02 1162.82,921.47 1162.25,925.6L1153.31,940.26C1140.38,935.44 1154.43,924.43 1154.16,914.81C1156.27,915.11 1156.85,917.68 1158.25,919.2L1158.24,919.2Z" style="fill-rule:nonzero;"/>
        </g>
        <g transform="matrix(0.946419,0,0,0.938884,51.590299,10.999849)">
            <path d="M1185.61,1005C1196.05,1009.84 1190.28,1030.09 1178.98,1026.92C1175.33,1024.79 1176.9,1024.93 1177.66,1022.59C1178.56,1019.82 1183.61,1005 1185.61,1005.01L1185.61,1005Z" style="fill-rule:nonzero;"/>
        </g>
        <g transform="matrix(0.946419,0,0,0.938884,51.590299,10.999849)">
            <path d="M1193.27,822.96L1186.48,842.21L1182.23,843.41C1175.22,835.87 1178.39,828.74 1184.77,822L1193.27,822.96Z" style="fill-rule:nonzero;"/>
        </g>
        <g transform="matrix(0.946419,0,0,0.938884,51.590299,10.999849)">
            <path d="M1155.7,827.94L1147.2,825.26C1146.56,822.18 1153.13,805.98 1154.99,805.96L1162.39,813.83L1155.7,827.93L1155.7,827.94Z" style="fill-rule:nonzero;"/>
        </g>
        <g transform="matrix(0.946419,0,0,0.938884,51.590299,10.999849)">
            <path d="M1186.01,916.03C1174.11,927.64 1178.97,898.66 1185.61,894.42C1194.32,898.3 1191.1,911.06 1186.01,916.03Z" style="fill-rule:nonzero;"/>
        </g>
        <g transform="matrix(0.946419,0,0,0.938884,51.590299,10.999849)">
            <path d="M1222.18,1020.28L1215.38,1041.5L1212.01,1042.36L1205.43,1033.39L1213.6,1019.41L1222.18,1020.28Z" style="fill-rule:nonzero;"/>
        </g>
        <g transform="matrix(0.946419,0,0,0.938884,51.590299,10.999849)">
            <path d="M1211.99,982.86C1213.56,981.16 1221.73,989.22 1221.77,990.47C1221.85,993.2 1214.05,1006.7 1207.85,1004.88C1200.66,1002.76 1214.83,988.13 1211.99,982.87L1211.99,982.86Z" style="fill-rule:nonzero;"/>
        </g>
        <g transform="matrix(0.946419,0,0,0.938884,51.590299,10.999849)">
            <path d="M1162.65,1067.93C1163.32,1068.84 1157.69,1082.49 1156.59,1084.89C1155.93,1086.35 1156.41,1089.56 1153.31,1088.3C1142.42,1083.88 1150.67,1073.75 1154.08,1066.92L1162.65,1067.93Z" style="fill-rule:nonzero;"/>
        </g>
        <g transform="matrix(0.946419,0,0,0.938884,51.590299,10.999849)">
            <path d="M1215.35,822.94C1209.81,824.34 1209.74,819.04 1205.07,816.9L1214.44,801.26L1222.13,805.06L1215.35,822.94Z" style="fill-rule:nonzero;"/>
        </g>
        <g transform="matrix(0.946419,0,0,0.938884,51.590299,10.999849)">
            <path d="M1155.82,863.77L1147.3,857.99C1148.85,852.59 1151.13,842.6 1158.36,843.24C1169,844.19 1155.08,858.46 1155.82,863.77Z" style="fill-rule:nonzero;"/>
        </g>
        <g transform="matrix(0.946419,0,0,0.938884,51.590299,10.999849)">
            <path d="M1215.3,787.16L1205.18,785.51L1211.99,765.11C1228.02,770.82 1217.72,775.78 1215.3,787.17L1215.3,787.16Z" style="fill-rule:nonzero;"/>
        </g>
        <g transform="matrix(0.946419,0,0,0.938884,51.590299,10.999849)">
            <path d="M1193.26,1044.11L1183.9,1064.47C1172.3,1058.56 1181.42,1037.71 1193.26,1044.11Z" style="fill-rule:nonzero;"/>
        </g>
        <g transform="matrix(0.946419,0,0,0.938884,51.590299,10.999849)">
            <path d="M1155.82,751.49C1135.75,747.82 1159.3,720.56 1162.51,733.81L1155.82,751.49Z" style="fill-rule:nonzero;"/>
        </g>
        <g transform="matrix(0.946419,0,0,0.938884,51.590299,10.999849)">
            <path d="M1157.51,1028.79L1162.44,1037.82L1155.57,1050.62L1147.34,1050.89C1146.13,1049.81 1152.16,1033.41 1153.71,1030.96C1154.79,1029.25 1153.6,1027.95 1157.5,1028.8L1157.51,1028.79Z" style="fill-rule:nonzero;"/>
        </g>
        <g transform="matrix(0.946419,0,0,0.938884,51.590299,10.999849)">
            <path d="M1180.6,728.42C1180.03,727.74 1178.12,727.7 1177.91,726.51C1176.8,719.98 1186.98,703.27 1192.82,714.9L1183.91,732.75C1182.65,731.4 1181.78,729.83 1180.6,728.42Z" style="fill-rule:nonzero;"/>
        </g>
        <g transform="matrix(0.946419,0,0,0.938884,51.590299,10.999849)">
            <path d="M1170.9,720.67L1162.58,718.23L1170.22,704.28L1177.92,708.11L1170.9,720.67Z" style="fill-rule:nonzero;"/>
        </g>
        <g transform="matrix(0.946419,0,0,0.938884,51.590299,10.999849)">
            <path d="M1206.88,1016.89L1200.12,1031.49L1191.57,1030.47L1198.46,1015.19L1206.88,1016.89Z" style="fill-rule:nonzero;"/>
        </g>
        <g transform="matrix(0.946419,0,0,0.938884,51.590299,10.999849)">
            <path d="M1171.02,833.05L1162.59,830.53L1170.23,816.39L1177.92,820.39L1171.02,833.05Z" style="fill-rule:nonzero;"/>
        </g>
        <g transform="matrix(0.946419,0,0,0.938884,51.590299,10.999849)">
            <path d="M1206.88,686.87L1201.52,700.18C1197.96,701.08 1193.91,701.12 1191.6,697.91L1198.46,685.17L1206.88,686.87Z" style="fill-rule:nonzero;"/>
        </g>
        <g transform="matrix(0.946419,0,0,0.938884,51.590299,10.999849)">
            <path d="M1177.95,928.42L1171.02,943.63L1162.65,942L1167.93,928.6L1177.95,928.42Z" style="fill-rule:nonzero;"/>
        </g>
        <g transform="matrix(0.946419,0,0,0.938884,51.590299,10.999849)">
            <path d="M1200.94,795.73C1209.66,793.92 1201.84,822.18 1191.59,808.49L1200.94,795.73Z" style="fill-rule:nonzero;"/>
        </g>
        <g transform="matrix(0.946419,0,0,0.938884,51.590299,10.999849)">
            <path d="M1222.21,790.59C1220.34,788.09 1227.36,768.02 1235.03,778.68C1235,782.66 1226.5,796.35 1222.21,790.59Z" style="fill-rule:nonzero;"/>
        </g>
        <g transform="matrix(0.946419,0,0,0.938884,51.590299,10.999849)">
            <path d="M1235.79,668.16L1229,681.03L1220.48,680.03L1227.23,667.15L1235.79,668.16Z" style="fill-rule:nonzero;"/>
        </g>
        <g transform="matrix(0.946419,0,0,0.938884,51.590299,10.999849)">
            <path d="M1177.95,1040.71L1169.51,1055.17L1162.65,1054.29L1169.4,1039.68L1177.95,1040.71Z" style="fill-rule:nonzero;"/>
        </g>
        <g transform="matrix(0.946419,0,0,0.938884,51.590299,10.999849)">
            <path d="M1200.92,904.63C1209.02,909.11 1202.84,923.16 1194.14,921.59C1191.25,920.84 1192.1,919.14 1192.97,917.09C1193.7,915.37 1200.18,904.64 1200.92,904.63Z" style="fill-rule:nonzero;"/>
        </g>
        <g transform="matrix(0.946419,0,0,0.938884,51.590299,10.999849)">
            <path d="M1235.79,884.19L1225.63,901.17L1222.13,895.37C1225.48,888.05 1226.1,882.2 1235.8,884.18L1235.79,884.19Z" style="fill-rule:nonzero;"/>
        </g>
        <g transform="matrix(0.946419,0,0,0.938884,51.590299,10.999849)">
            <path d="M1235.79,993.07L1228.78,1008.25L1222.22,1006.63C1223.49,998.59 1226.31,990.75 1235.79,993.07Z" style="fill-rule:nonzero;"/>
        </g>
        <g transform="matrix(0.946419,0,0,0.938884,51.590299,10.999849)">
            <path d="M1147.31,799.11L1145.83,793.38L1149.01,768.51C1150.87,779.46 1150.89,788.45 1147.3,799.11L1147.31,799.11Z" style="fill-rule:nonzero;"/>
        </g>
        <g transform="matrix(0.946419,0,0,0.938884,51.590299,10.999849)">
            <path d="M1104.8,550.76L915.97,550.76L944.87,471.53L1074.2,471.65L1104.8,550.76ZM922.78,547.36L1099.7,547.36L1074.02,482.89C1031.18,482.78 987.68,482.31 945.2,483.02L922.79,547.36L922.78,547.36Z" style="fill-rule:nonzero;"/>
        </g>
        <g transform="matrix(0.946419,0,0,0.938884,51.590299,10.999849)">
            <path d="M1130.33,1268.64L1137.11,1266.95L1134.31,1271.86L1123.51,1270.34C1124.53,1263.65 1125.41,1259.46 1119.24,1255.05L1113.32,1258.43L1114.14,1253.21C1124.64,1249.85 1131.21,1258.61 1130.34,1268.64L1130.33,1268.64Z" style="fill-rule:nonzero;"/>
        </g>
        <g transform="matrix(0.946419,0,0,0.938884,51.590299,10.999849)">
            <path d="M929.59,1268.63L936.38,1265.25C936.8,1276.1 928.89,1271.41 922.78,1268.62C928.44,1262.78 925.06,1261.14 922.75,1255.05L914.31,1255.89C921.79,1245.56 934.3,1258.89 929.59,1268.64L929.59,1268.63Z" style="fill-rule:nonzero;"/>
        </g>
        <g transform="matrix(0.946419,0,0,0.938884,51.590299,10.999849)">
            <path d="M997.64,1268.65L1002.72,1266.94C1003.51,1272.91 995.98,1273.09 992.93,1269.93C989.04,1265.88 992.93,1251.87 984.37,1255.54C984.12,1255.65 982.32,1263.72 980.63,1255.91C990.08,1246.16 997.91,1258.39 997.64,1268.65Z" style="fill-rule:nonzero;"/>
        </g>
        <g transform="matrix(0.946419,0,0,0.938884,51.590299,10.999849)">
            <path d="M1101.39,1258.44L1092.92,1255.05L1090.2,1270.52C1085.32,1272.89 1082.51,1272.17 1079.3,1267.79L1086.09,1268.64C1080.75,1258.23 1097.48,1243.8 1101.39,1258.44Z" style="fill-rule:nonzero;"/>
        </g>
        <g transform="matrix(0.946419,0,0,0.938884,51.590299,10.999849)">
            <path d="M902.38,1253.34C902.15,1254.74 902.75,1257.93 902.36,1258.43C899.36,1262.24 899.27,1253.11 896.44,1255.05C891.82,1259.25 890.87,1264.84 893.88,1270.33C889.61,1270.23 885.24,1274.27 881.98,1269.47L888.73,1266.1L885.74,1260.97C889.93,1254.62 894.53,1252.03 902.38,1253.33L902.38,1253.34Z" style="fill-rule:nonzero;"/>
        </g>
        <g transform="matrix(0.946419,0,0,0.938884,51.590299,10.999849)">
            <path d="M1035.05,1258.43C1031.67,1262.11 1032.37,1253.45 1029.13,1255.05L1023.28,1271.33L1014.66,1269.48L1021.44,1268.65C1022.07,1267.95 1015.38,1257.6 1027.07,1252.89C1032.86,1250.56 1036.49,1256.87 1035.05,1258.44L1035.05,1258.43Z" style="fill-rule:nonzero;"/>
        </g>
        <g transform="matrix(0.946419,0,0,0.938884,51.590299,10.999849)">
            <path d="M1062.28,1268.63C1066.12,1271.25 1065.93,1261.55 1069.07,1265.25C1073.91,1270.95 1058.17,1275.18 1057.62,1266.45C1057.45,1263.74 1058.84,1257.86 1055.44,1255.05C1051.97,1252.18 1051.68,1262.16 1048.68,1258.43C1048.3,1257.96 1048.87,1254.76 1048.68,1253.37C1058.93,1250.43 1065.49,1258.63 1062.29,1268.64L1062.28,1268.63Z" style="fill-rule:nonzero;"/>
        </g>
        <g transform="matrix(0.946419,0,0,0.938884,51.590299,10.999849)">
            <path d="M984.01,1261.84C984.61,1266.29 978.01,1267.33 976.39,1272.01L967.05,1265.21L967.9,1261.83L973.03,1261.93L973.84,1253.34L977.98,1262.06L984.01,1261.85L984.01,1261.84Z" style="fill-rule:nonzero;"/>
        </g>
        <g transform="matrix(0.946419,0,0,0.938884,51.590299,10.999849)">
            <path d="M1110.25,1261.49C1112.01,1262.5 1114.69,1261.7 1116.72,1261.85C1117.51,1265.78 1112.2,1266.56 1110.6,1270.26C1107.6,1271.24 1102.5,1266.61 1101.42,1264.37C1099.57,1260.51 1109.64,1263.72 1106.52,1256.74C1109.07,1256.69 1109.09,1260.83 1110.25,1261.49Z" style="fill-rule:nonzero;"/>
        </g>
        <g transform="matrix(0.946419,0,0,0.938884,51.590299,10.999849)">
            <path d="M960.2,1255.04C961.61,1256.33 957.87,1260.27 957.57,1261.79C956.89,1265.21 959.78,1268.85 955.11,1271.26C951.07,1273.35 949.09,1270.57 946.64,1267.78L949.99,1265.23L953.4,1268.63L954.22,1256.69C955.03,1254.74 959.62,1254.5 960.2,1255.04Z" style="fill-rule:nonzero;"/>
        </g>
        <g transform="matrix(0.946419,0,0,0.938884,51.590299,10.999849)">
            <path d="M915.97,1261.85C912.64,1274.1 908.83,1271.47 900.67,1265.2C903.84,1259.29 910.85,1260.83 915.97,1261.85Z" style="fill-rule:nonzero;"/>
        </g>
        <g transform="matrix(0.946419,0,0,0.938884,51.590299,10.999849)">
            <path d="M1050.37,1265.2C1045.11,1265.9 1045.75,1272.56 1039.32,1270.41L1035.06,1261.84C1039.89,1261.13 1047.57,1259.77 1050.37,1265.19L1050.37,1265.2Z" style="fill-rule:nonzero;"/>
        </g>
        <g transform="matrix(0.946419,0,0,0.938884,51.590299,10.999849)">
            <path d="M909.17,465.72L880.11,547.23L788.43,510.78L869.7,455.88C883.23,455.54 895.84,463.6 909.17,465.72ZM802.01,513.31L877.49,542.13L900.58,475.18C900.21,473.39 872.37,464.26 868.27,466.43L809.24,506.01C809.45,508.78 799.14,510.37 802.02,513.31L802.01,513.31Z" style="fill-rule:nonzero;"/>
        </g>
        <g transform="matrix(0.946419,0,0,0.938884,51.590299,10.999849)">
            <path d="M1207.89,493.63C1211.98,496.49 1227.29,506.53 1229.02,509.06C1230.22,510.82 1231.73,510.49 1228.94,512.43L1141.58,547.26L1113.34,464.03C1125.36,464.16 1139.81,453.27 1151.22,455.84C1170.23,468.17 1189.34,480.66 1207.89,493.62L1207.89,493.63ZM1215.03,508.51L1149.05,464.7L1120.21,472.61L1140.53,542.27C1143.68,545.3 1205.81,515.89 1215.2,513.17C1215.49,511.71 1215.78,509.79 1215.03,508.52L1215.03,508.51Z" style="fill-rule:nonzero;"/>
        </g>
        <g transform="matrix(0.946419,0,0,0.938884,51.590299,10.999849)">
            <path d="M806.96,1212.55L812.2,1224.4C804.22,1224.22 802.02,1216.07 796.91,1211.64C800.56,1209.92 802.43,1215.32 806.97,1212.55L806.96,1212.55Z" style="fill-rule:nonzero;"/>
        </g>
        <g transform="matrix(0.946419,0,0,0.938884,51.590299,10.999849)">
            <path d="M766.28,1186.97L756.11,1180.15L756.29,1176.91L759.54,1175.92L756.1,1166.57C764.39,1171.13 761.06,1180.69 766.29,1186.97L766.28,1186.97Z" style="fill-rule:nonzero;"/>
        </g>
        <g transform="matrix(0.946419,0,0,0.938884,51.590299,10.999849)">
            <path d="M795.2,1197.21C796.69,1202.54 791.05,1199.69 789.1,1202.22L790.09,1207.4L783.46,1203.74L785.02,1195.5L795.2,1197.21Z" style="fill-rule:nonzero;"/>
        </g>
        <g transform="matrix(0.946419,0,0,0.938884,51.590299,10.999849)">
            <path d="M1218.77,1210.81C1219.99,1211.91 1216,1220.52 1214.17,1221.03L1200.08,1219.29C1202.82,1208.84 1203.66,1217.56 1204.33,1217.69C1210.24,1218.81 1213.49,1206.05 1218.78,1210.81L1218.77,1210.81Z" style="fill-rule:nonzero;"/>
        </g>
        <g transform="matrix(0.946419,0,0,0.938884,51.590299,10.999849)">
            <path d="M1195.37,1230.92L1198.38,1232.04L1190.7,1239.71C1185.79,1232.59 1194.13,1225.17 1198.35,1219.31L1195.37,1230.92Z" style="fill-rule:nonzero;"/>
        </g>
        <g transform="matrix(0.946419,0,0,0.938884,51.590299,10.999849)">
            <path d="M1242.6,1193.81L1233.23,1203.99L1225.62,1196.34C1229.93,1191.07 1236.65,1197.1 1242.6,1193.8L1242.6,1193.81Z" style="fill-rule:nonzero;"/>
        </g>
        <g transform="matrix(0.946419,0,0,0.938884,51.590299,10.999849)">
            <path d="M1264.71,1164.89C1259.2,1170.6 1262.93,1179.78 1256.22,1183.58C1254.04,1175.98 1256.29,1167.19 1264.71,1164.89Z" style="fill-rule:nonzero;"/>
        </g>
        <g transform="matrix(0.946419,0,0,0.938884,51.590299,10.999849)">
            <path d="M1344.67,1002.41C1345.99,1000.52 1346.24,1000.64 1348.19,1000.59C1356.38,1000.4 1374.75,1000.15 1380.45,1005.74C1389.44,1014.55 1383.26,1027.59 1372.07,1030.67L1371.83,1032.92L1385.48,1054.27C1372.55,1059.51 1366.94,1031.14 1360.87,1030.35C1358.51,1030.04 1355.65,1030.72 1353.15,1030.47L1352.99,1051.5L1344.66,1054.29L1344.66,1002.4L1344.67,1002.41ZM1353.33,1023.52C1364.64,1025.41 1379.4,1026.35 1374.45,1010.04C1371.91,1005.74 1359.32,1005.93 1354.77,1007.41L1353.33,1023.52Z" style="fill-rule:nonzero;"/>
        </g>
    </g>
</svg>
