<?xml version="1.0" encoding="UTF-8" standalone="no"?>
<!DOCTYPE svg PUBLIC "-//W3C//DTD SVG 1.1//EN" "http://www.w3.org/Graphics/SVG/1.1/DTD/svg11.dtd">
<svg width="100%" height="100%" viewBox="0 0 450 200" version="1.1" xmlns="http://www.w3.org/2000/svg" xmlns:xlink="http://www.w3.org/1999/xlink" xml:space="preserve" xmlns:serif="http://www.serif.com/" style="fill-rule:evenodd;clip-rule:evenodd;stroke-linejoin:round;stroke-miterlimit:2;">
    <g id="Mesa-de-trabajo1" serif:id="Mesa de trabajo1" transform="matrix(1.034483,0,0,0.97561,-28.965517,-140.487805)">
        <rect x="28" y="144" width="435" height="205" style="fill:none;"/>
        <g transform="matrix(0.966667,0,0,1.025,0.933333,-3.6)">
            <g transform="matrix(1.268475,0,0,1.268475,-64.11556,-72.813663)">
                <g>
                    <g>
                        <g>
                            <path d="M213.069,249.386C214.201,247.023 214.85,244.36 214.85,241.564C214.85,238.752 214.201,236.089 213.069,233.726C210.157,227.735 204.016,223.591 196.893,223.591L167.603,223.591L167.603,276.412L177.738,276.412L177.738,259.521L194.147,259.521L202.701,276.412L212.853,276.412L204.299,259.521L203.633,258.206C207.76,256.542 211.139,253.38 213.069,249.386ZM201.387,249.386L177.739,249.386L177.739,233.726L198.275,233.726C202.768,233.726 206.413,237.371 206.413,241.864C206.412,245.258 204.332,248.154 201.387,249.386Z" style="fill:rgb(35,31,32);fill-rule:nonzero;"/>
                        </g>
                    </g>
                </g>
                <g>
                    <g>
                        <g>
                            <path d="M159.382,276.412L149.231,276.412L132.655,243.644L116.063,276.412L105.912,276.412L127.58,233.626L132.655,223.591L137.731,233.609L159.382,276.412Z" style="fill:rgb(35,31,32);fill-rule:nonzero;"/>
                        </g>
                    </g>
                </g>
                <g>
                    <g>
                        <g>
                            <path d="M319.677,223.591L314.618,233.609" style="fill:none;fill-rule:nonzero;"/>
                        </g>
                    </g>
                </g>
                <g>
                    <g>
                        <g>
                            <path d="M346.421,276.412L336.269,276.412L319.694,243.644L303.102,276.412L292.95,276.412L314.618,233.609L319.677,223.591L324.753,233.626L346.421,276.412Z" style="fill:rgb(35,31,32);fill-rule:nonzero;"/>
                        </g>
                    </g>
                </g>
                <g>
                    <g>
                        <g>
                            <path d="M394.083,249.386L394.083,259.521L364.244,259.521L364.244,276.412L354.093,276.412L354.093,223.591L393.9,223.591L393.9,233.726L364.244,233.726L364.244,249.386L394.083,249.386Z" style="fill:rgb(35,31,32);fill-rule:nonzero;"/>
                        </g>
                    </g>
                </g>
                <g>
                    <g>
                        <g>
                            <path d="M283.234,223.107L283.234,276.411L273.082,276.411L273.082,247.604L261.916,258.77L254.743,265.96L247.57,258.787L236.404,247.62L236.404,276.411L226.252,276.411L226.252,223.107L254.743,251.598L273.082,233.258L283.234,223.107Z" style="fill:rgb(35,31,32);fill-rule:nonzero;"/>
                        </g>
                    </g>
                </g>
            </g>
        </g>
    </g>
</svg>
