<?xml version="1.0" encoding="UTF-8"?>
<svg xmlns="http://www.w3.org/2000/svg" xmlns:xlink="http://www.w3.org/1999/xlink" version="1.1" id="Capa_1" x="0px" y="0px" width="1000px" height="1000px" viewBox="0 0 1000 1000" style="enable-background:new 0 0 1000 1000;" xml:space="preserve"> <g> <path d="M595.1,431.6c0.8,0.9,1.6,1.8,2.3,2.6c18.6,20.6,31.4,44.2,37.8,71.2c3.2,13.5,4.6,27.2,3.7,41c-1.2,19.4-5.7,38-13.2,55.9 c-8.4,19.9-19.9,37.7-35.3,52.9c-19.5,19.4-42.7,32-69.7,37.9c-10.2,2.2-20.5,3.4-30.9,3.4c-22.1,0-44.2,0-66.3,0 c-0.9,0-1.9-0.1-2.8-0.2c-0.7-0.1-1.3-0.8-1.4-1.5c0-0.6-0.1-1.1-0.1-1.7c0-1.3,0-2.6,0-4c0-22.3,0-44.6,0-66.8 c0-1.7,0-3.4,0.1-5.1c0.1-1.7,0.7-2.3,2.4-2.4c1.7,0,3.4,0,5.1,0c19.8,0,39.7-0.1,59.5,0.1c4.1,0,7.8-0.7,11.6-2.1 c11.1-4.1,21.3-9.7,30.3-17.3c10.3-8.8,17.8-19.4,21.9-32.4c1.8-5.6,2.9-11.3,3.2-17.2c0.4-8.5,0-17-2.2-25.3 c-3-11.4-8.5-21.3-16.7-29.8c-3.9-4.1-8.3-7.7-13-10.8c-8.4-5.6-17.5-9.6-27.2-12.5c-3.3-1-6.6-1.4-10-1.4c-19.3,0.1-38.5,0-57.8,0 c-1.7,0-3.4,0-5.1-0.1c-1.1,0-1.9-0.7-1.9-1.7c-0.1-1.1-0.1-2.3-0.1-3.4c0-23,0-46.1,0-69.1c0-1.1,0.1-2.3,0.2-3.4 c0-0.7,0.8-1.3,1.5-1.4c0.6,0,1.1-0.1,1.7-0.1c1.5,0,3,0,4.5,0c18.7,0,37.4,0,56.1,0c5.1,0,10.2-0.3,15.2-1.2 c11.4-2.1,22.4-5.4,32.6-10.8c7.1-3.7,13.5-8.3,19.1-14c8.5-8.7,14-19.1,16.6-31c2.7-12.2,2.5-24.4-0.3-36.5 c-3.8-16.3-12.9-29.2-26.7-38.7c-8.5-5.8-17.9-9.7-27.8-12.5c-5.8-1.6-11.8-2.7-17.8-3.4c-2.2-0.3-4.5-0.2-6.8-0.2 c-20.4,0-40.8,0-61.2,0c-7.8,0-7,0.8-7-6.9c0-23.6,0-47.2,0-70.8c0-7-0.6-6.4,6.4-6.4c21.5,0,43.1,0,64.6,0 c15.4,0,30.5,2.5,45.3,6.5c11.3,3,22.3,7.1,32.8,12.4c33.9,17.1,57.6,43.4,70.9,79c4.5,12.1,7.5,24.5,9.4,37.2 c1.8,12,2.6,24,2.2,36.1c-0.6,18.6-5.1,36.2-13.2,52.9c-6.9,14.2-16.1,26.8-27.2,38.1c-4.1,4.2-8.5,8-12.8,12 C596.8,429.4,595.8,429.9,595.1,431.6z"></path> <path d="M325.6,196.5c0-12.1,0-24.1,0-36.2c0-1.5,0-3,0.2-4.5c0.1-0.5,0.5-1,1.1-1.2c0.6-0.1,1.1-0.3,1.7-0.3c1.5,0,3,0,4.5,0 c21.5,0,43,0,64.5,0c1.9,0,3.8,0.1,5.7,0.1c1,0,1.7,0.8,1.7,1.9c0.1,1.5,0.1,3,0.1,4.5c0,23.8,0,47.5,0,71.3c0,7,0.5,6.5-6.3,6.5 c-22.3,0-44.5,0-66.8,0c-1.3,0-2.6,0-4,0c-1.7-0.1-2.3-0.7-2.4-2.4c0-1.5,0-3,0-4.5C325.6,219.9,325.6,208.2,325.6,196.5z"></path> <path d="M327,655.5c0-11.3,0-22.6,0-33.9c0-1.7,0.1-3.4,0.2-5.1c0-0.7,0.8-1.4,1.5-1.5c0.4,0,0.8-0.1,1.1-0.1c0.9,0,1.9,0,2.8,0 c22.8,0,45.7,0,68.5,0c5.2,0,5.4-0.2,5.4,5.2c0,23.8,0,47.5,0,71.3c0,1.1-0.1,2.3-0.1,3.4c-0.1,0.9-0.9,1.7-1.9,1.8 c-1.3,0.1-2.6,0.1-4,0.1c-22.6,0-45.3,0-67.9,0c-1.3,0-2.6-0.1-4-0.1c-0.7,0-1.5-0.7-1.5-1.4c-0.1-1.7-0.2-3.4-0.2-5.1 C327,678.5,327,667,327,655.5z"></path> <path d="M367.3,466.1c-11.1,0-22.3,0-33.4,0c-1.7,0-3.4-0.1-5.1-0.1c-0.6,0-1.4-0.9-1.5-1.5c-0.1-0.6-0.2-1.1-0.2-1.7 c0-1.3,0-2.6,0-4c0-21.7,0-43.4,0-65c0-1.7,0.1-3.4,0.1-5.1c0-1,0.8-1.7,1.9-1.7c1.5-0.1,3-0.1,4.5-0.1c22.3,0,44.5,0,66.8,0 c1.5,0,3,0.1,4.5,0.1c0.7,0,1.5,0.7,1.5,1.4c0.1,1.1,0.2,2.3,0.2,3.4c0,23,0,46,0,69c0,0.8,0,1.5,0,2.3c-0.1,2.3-0.7,3-3.1,3 c-1.5,0-3,0-4.5,0C388.4,466.1,377.8,466.1,367.3,466.1z"></path> <path d="M647.5,804.5c0-12.5,0-24.9,0-37.4c0-4.3,1.2-8.2,3.5-11.8c2.8-4.5,6.8-6.9,12.2-6.9c10.4,0,20.8,0,31.2,0 c3.8,0,7.6,0,11.3,0c1.9,0,3.7,0.4,5.5,1.2c10.1,4.4,17.7,11.4,21.6,22c2.9,8,3.2,16.3,1,24.5c-2,7.7-6.7,13.4-13.7,17.2 c-1.2,0.6-2.4,1.2-3.5,1.8c-1.4,0.7-1.7,1.8-0.9,3.3c0.8,1.5,1.6,3,2.4,4.5c3.5,6.4,7.1,12.9,10.6,19.3c0.5,0.8,0.8,1.7,1.2,2.5 c0.2,0.4-0.4,1.2-0.8,1.3c-0.6,0.1-1.1,0.2-1.7,0.2c-6.6,0-13.2,0-19.8,0c-1.8,0-3.2-0.5-4.2-2.2c-3.3-5.5-6.7-10.9-10.1-16.4 c-0.5-0.8-1-1.6-1.5-2.4c-3.6-5.8-2.5-5-9.4-5.4c-2.8-0.2-5.7-0.3-8.5-0.5c-0.6,0-1.5,0.8-1.5,1.4c-0.1,1.5-0.1,3-0.1,4.5 c0,5.9,0,11.7,0,17.6c0,0.8-0.1,1.5-0.2,2.2c-0.1,0.3-0.4,0.6-0.7,0.8c-0.3,0.2-0.7,0.3-1.1,0.3c-6.8,0-13.6,0-20.4,0 c-0.4,0-0.8-0.1-1.1-0.3c-0.4-0.3-1-0.7-1-1.2c-0.2-1.5-0.2-3-0.2-4.5C647.5,828.3,647.5,816.4,647.5,804.5z M688.1,797.5 c4.1,0,8.3,0,12.4,0c1.1,0,2.3,0,3.4-0.1c0.7-0.1,1.5-0.3,2.1-0.7c5.8-3.4,7.3-11.2,2.8-16.6c-1.8-2.1-3.9-3.3-6.8-3.3 c-9.4,0.1-18.8,0-28.2,0c-0.4,0-0.7,0.1-1.1,0.1c-0.9,0.1-1.6,0.9-1.7,1.9c0,0.2,0,0.4,0,0.6c0,5.3,0,10.5,0,15.8 c0,0.4,0,0.8,0.2,1.1c0.3,0.4,0.7,0.9,1.2,1c1.1,0.2,2.2,0.2,3.4,0.2C679.8,797.5,683.9,797.5,688.1,797.5z"></path> <path d="M525.3,817.2c0.7,1.4,1.5,2.9,2.3,4.4c3.6,6.6,7.3,13.2,10.9,19.8c0.6,1.2,1.2,2.4,1.8,3.5c0.2,0.3-0.5,1.2-0.9,1.2 c-0.7,0.1-1.5,0.2-2.2,0.2c-6.2,0-12.5,0-18.7,0c-1.1,0-2.2-0.3-3.4-0.4c-1-1.6-2.1-3.2-3-4.8c-3.5-5.6-6.9-11.2-10.4-16.9 c-0.5-0.8-1-1.6-1.5-2.4c-0.6-1-1.6-1.6-2.8-1.7c-0.9-0.1-1.9-0.1-2.8-0.2c-2.6-0.1-5.3-0.2-7.9-0.4c-3.3-0.2-3.8,0.2-3.8,3.8 c0,6,0,12.1,0,18.1c0,1.1,0,2.3-0.2,3.4c-0.1,0.4-0.6,0.9-1.1,1.1c-0.5,0.2-1.1,0.3-1.6,0.3c-6.4,0-12.8,0-19.3,0 c-0.6,0-1.1-0.2-1.6-0.4c-0.3-0.1-0.6-0.5-0.7-0.8c-0.2-0.5-0.2-1.1-0.2-1.7c0-1.7,0-3.4,0-5.1c0-23.6,0-47.2,0-70.8 c0-3.7,0.7-7.1,2.4-10.3c0.7-1.3,1.5-2.6,2.5-3.8c2.5-3.1,5.9-4.7,9.8-4.9c0.9-0.1,1.9,0,2.8,0c13,0,26.1,0.1,39.1,0 c3.1,0,5.9,0.7,8.7,2c9.6,4.7,16.6,11.7,20.1,21.9c2.6,7.7,2.9,15.6,0.9,23.4c-2,7.7-6.6,13.5-13.5,17.3c-1.3,0.7-2.7,1.4-4,2 C525.9,815.6,525.5,816.2,525.3,817.2z M498.2,797.7C498.2,797.7,498.2,797.7,498.2,797.7c4.7,0,9.4-0.1,14.1,0 c3.4,0.1,5.7-1.6,7.6-4.2c1.7-2.4,2.1-5.2,1.7-8.1c-0.3-2.5-1.6-4.6-3.4-6.3c-1.7-1.6-3.8-2.3-6.2-2.3c-9,0.1-18.1,0-27.1,0 c-0.7,0-1.5,0.1-2.2,0.2c-0.7,0-1,0.6-1.2,1c-0.2,0.5-0.3,1.1-0.3,1.7c0,4.9,0,9.8,0,14.7c0,0.4,0.1,0.7,0.1,1.1 c0.1,1,0.8,1.9,1.7,1.9c0.7,0.1,1.5,0.1,2.3,0.1C489.5,797.7,493.9,797.7,498.2,797.7z"></path> <path d="M241.5,796.7c1.4,1,2.5,1.7,3.5,2.5c4.1,3.2,6.3,7.4,6.8,12.6c0.7,6.8-0.6,13.1-4,19c-3.2,5.5-7.5,9.9-13,13.1 c-2.7,1.5-5.5,2.4-8.6,2.4c-3,0-6,0-9.1,0c-9.4,0-18.9,0-28.3,0c-2.3,0-4.5-0.1-6.8-0.3c-6.6-0.8-10.5-5.7-10.9-11.1 c-0.1-1.7-0.2-3.4-0.2-5.1c0.1-21.9,0.3-43.7,0.4-65.6c0-2.3,0.3-4.5,0.8-6.7c1.2-6.1,5.6-8.1,9.8-8.8c1.1-0.2,2.3-0.1,3.4-0.1 c12.1,0,24.2,0,36.2,0c2.4,0,4.4,0.5,6.4,1.7c3.8,2.2,7.3,4.6,10.4,7.8c1.7,1.7,3.3,3.6,4.7,5.6c2.7,3.8,4.1,8,4.4,12.6 c0.2,3.4-0.1,6.8-0.7,10.1C245.8,790.2,245,791.8,241.5,796.7z M208,823.2C208,823.2,208,823.2,208,823.2c5.1,0,10.2,0,15.3,0 c1.8,0,3.3-0.8,4.4-2.1c2.1-2.5,2.8-5.3,1.5-8.4c-1.3-3.1-3.7-4.7-7-4.8c-0.2,0-0.4,0-0.6,0c-9,0-18.1,0-27.1,0 c-0.6,0-1.1,0.1-1.7,0.3c-0.5,0.2-1,0.6-1,1.2c0,4.1,0,8.3,0,12.4c0,0.6,0.8,1.3,1.6,1.3c0.8,0.1,1.5,0.1,2.3,0.1 C199.7,823.2,203.9,823.2,208,823.2z M207.5,789.9C207.5,789.9,207.5,789.9,207.5,789.9c2.6,0,5.3,0,7.9,0c1.9,0,3.8,0,5.6,0 c2.7-0.1,4.6-1.5,5.9-3.7c1.8-3.1,1.1-7.4-1.6-9.8c-0.4-0.3-1-0.6-1.5-0.7c-0.9-0.2-1.9-0.2-2.8-0.2c-8.3,0-16.6,0-24.9,0 c-0.8,0-1.5,0-2.3,0.1c-1,0.1-1.8,0.7-1.8,1.7c0,3.6,0,7.1,0,10.7c0,0.2,0,0.4,0.2,0.5c0.4,0.4,0.7,1,1.2,1.1 c0.9,0.2,1.9,0.3,2.8,0.3C200,789.9,203.8,789.9,207.5,789.9z"></path> <path d="M264.8,797.1c0-14.5,0-29.1,0-43.6c0-1.1,0.1-2.3,0.2-3.4c0.1-0.7,0.8-1.4,1.5-1.5c0.4,0,0.8-0.1,1.1-0.1 c6.6,0,13.2,0,19.8,0c2.4,0,2.8,0.5,2.9,3.1c0,1.5,0,3,0,4.5c0,8.1,0,16.2,0,24.3c0,1.5,0,3,0.1,4.5c0,1.3,0.8,1.9,2.2,2 c0.2,0,0.4,0,0.6,0c10,0,20,0,30,0c0.2,0,0.4,0,0.6,0c1.4-0.1,2.2-0.7,2.2-2c0.1-1.7,0.1-3.4,0.1-5.1c0-8.5,0-17,0-25.5 c0-1.5,0.1-3,0.2-4.5c0-0.7,0.8-1.3,1.6-1.4c0.4,0,0.8-0.1,1.1-0.1c5.5,0,11,0,16.4,0c0.6,0,1.1,0.1,1.7,0.1 c0.7,0.1,1.4,0.7,1.5,1.5c0.1,1.1,0.2,2.3,0.2,3.4c0,29.3,0,58.5,0,87.8c0,1.1-0.1,2.3-0.2,3.4c0,0.6-0.9,1.4-1.5,1.5 c-0.2,0-0.4,0.1-0.6,0.1c-6.2,0-12.5,0-18.7-0.1c-1,0-1.7-0.8-1.7-1.9c-0.1-1.7-0.1-3.4-0.1-5.1c0-7.7,0-15.5,0-23.2 c0-1.5-0.1-3-0.2-4.5c0-0.9-0.9-1.7-1.9-1.7c-0.8,0-1.5-0.1-2.3-0.1c-9.1,0-18.1,0-27.2,0c-0.9,0-1.9,0-2.8,0.3 c-0.4,0.1-1,0.7-1.1,1.1c-0.2,1.3-0.2,2.6-0.3,3.9c0,8.1,0,16.2,0,24.3c0,1.7-0.1,3.4-0.1,5.1c0,0.9-0.8,1.7-1.9,1.7 c-1.9,0.1-3.8,0.1-5.7,0.1c-4.5,0-9.1,0-13.6,0c-0.9,0-1.9-0.1-2.8-0.2c-0.7-0.1-1.4-0.8-1.4-1.5c-0.1-1.9-0.2-3.8-0.2-5.7 C264.8,825,264.8,811,264.8,797.1C264.8,797.1,264.8,797.1,264.8,797.1z"></path> <path d="M424.4,846c-2.5-6.8-4.9-13.1-7.3-19.5c-2.6-6.9-5.2-13.8-7.8-20.6c-0.5-1.2-0.9-2.5-1.5-3.6c-0.6-1.2-1.4-2.2-2.6-2.9 c-0.9-0.5-2.5-0.5-3.1,0.4c-0.7,1.1-1.5,2.2-2,3.4c-1.9,4.9-3.8,9.9-5.6,14.8c-3.1,8.5-6.2,17-9.3,25.5c-0.2,0.5-0.4,1-0.7,1.5 c-0.4,0.7-1,1.1-1.8,1.2c-0.7,0.1-1.5,0.1-2.3,0.1c-6.2,0-12.5,0-18.7,0c-0.8,0-1.5-0.1-2.3-0.2c-0.5,0-1.1-0.8-0.9-1.2 c0.5-1.4,0.9-2.9,1.5-4.3c9-23.2,18-46.4,27.1-69.6c2.4-6.2,4.8-12.3,7.2-18.4c0.5-1.2,1-2.4,1.5-3.5c0.5-0.2,0.8-0.5,1.1-0.5 c5.1-0.3,13.9-0.2,17.5,0.2c1.3,1,1.6,2.6,2.1,3.9c4.2,10.5,8.3,21.1,12.4,31.6c7.3,18.6,14.6,37.2,21.9,55.8 c0.5,1.4,1,2.8,1.5,4.3c0.2,0.7-0.3,1.7-1,1.7c-0.8,0.1-1.5,0.1-2.3,0.1c-7,0-14,0-21,0C427.1,846.3,426,846.2,424.4,846z"></path> <path d="M603.8,749.1c0.7,1.6,1.5,3.3,2.1,5.1c11.3,28.8,22.5,57.6,33.8,86.4c2.3,5.9,2.4,5.9-3.8,5.9c-5.9,0-11.7,0-17.6,0 c-1.1,0-2.3,0-3.4-0.1c-1,0-1.8-0.5-2.2-1.5c-0.7-1.6-1.3-3.1-1.9-4.7c-4.2-11.1-8.3-22.2-12.5-33.4c-0.5-1.2-0.9-2.5-1.4-3.7 c-0.5-1-1.2-1.9-1.9-2.8c-1.6-1.9-4-1.6-5.1,0.5c-0.8,1.5-1.4,3.1-2,4.7c-4.1,11.1-8.2,22.3-12.3,33.4c-0.8,2.3-1.7,4.6-2.6,6.9 c-0.8,0.2-1.5,0.5-2.3,0.5c-7.2,0-14.3,0-21.5,0c-1.6,0-2.2-1-1.5-2.7c0.4-1.2,0.9-2.5,1.4-3.7c6-15.5,12-30.9,18-46.4 c5.1-13.2,10.3-26.3,15.4-39.5c0.5-1.4,1.1-2.8,1.8-4.2c0.3-0.7,1-1.2,1.8-1.2c5.5,0,10.9,0,16.4,0 C603,748.7,603.3,748.9,603.8,749.1z"></path> <path d="M773.6,748.9c4.1-0.5,12.4-0.5,18.1-0.1c1.2,0.8,1.5,2.1,2,3.3c4.6,11.8,9.2,23.5,13.8,35.3c6.8,17.4,13.6,34.7,20.4,52.1 c0.6,1.6,1.2,3.2,1.8,4.8c0.3,1-0.3,1.9-1.3,2c-0.4,0-0.8,0.1-1.1,0.1c-7.5,0-15.1,0-22.6,0c-0.9,0-1.8-0.3-2.8-0.5 c-0.9-2.2-1.7-4.3-2.5-6.4c-4.1-10.9-8.2-21.9-12.3-32.8c-0.5-1.4-1-2.8-1.7-4.2c-0.6-1.2-1.4-2.2-2.6-3c-1.1-0.7-2.8-0.5-3.6,0.5 c-0.4,0.6-0.9,1.2-1.2,1.9c-0.6,1.4-1.1,2.8-1.6,4.2c-4.2,11.3-8.3,22.7-12.5,34c-0.7,1.9-1.1,4-2.6,5.8c-0.6,0.1-1.3,0.4-2,0.4 c-7,0-14,0-20.9,0c-0.5,0-1.1-0.2-1.6-0.3c-0.5-0.1-0.7-0.4-0.6-0.8c0.3-1.1,0.5-2.2,0.9-3.2c4.1-10.6,8.2-21.1,12.3-31.6 c7.2-18.6,14.5-37.2,21.8-55.8C771.8,752.6,772.2,750.5,773.6,748.9z"></path> </g> </svg>
