<?xml version="1.0" encoding="UTF-8" standalone="no"?>
<!DOCTYPE svg PUBLIC "-//W3C//DTD SVG 1.1//EN" "http://www.w3.org/Graphics/SVG/1.1/DTD/svg11.dtd">
<svg width="100%" height="100%" viewBox="0 0 500 500" version="1.1" xmlns="http://www.w3.org/2000/svg" xmlns:xlink="http://www.w3.org/1999/xlink" xml:space="preserve" xmlns:serif="http://www.serif.com/" style="fill-rule:evenodd;clip-rule:evenodd;stroke-linejoin:round;stroke-miterlimit:2;">
    <g>
        <g>
            <path d="M400.097,240.072C385.114,215.291 349.958,177.657 339.774,166.757C324.721,150.644 310.902,137.324 305.39,114.277C304.291,109.684 300.403,91.67 306.598,69.639C313.451,45.251 328.543,30.584 334.948,25.001C330.113,28.464 281.174,64.789 282.468,125.135C283.239,161.159 301.503,186.428 308.753,195.458C314.85,203.028 324.262,214.532 336.156,228.284C359.18,254.92 365.332,259.731 372.952,272.322C387.643,296.589 390.023,320.388 390.69,327.845C394.321,368.47 377.452,399.691 369.937,411.881C378.235,362.755 367.074,318.771 339.172,301.275C325.669,292.809 310.994,292.26 309.615,292.225C275.667,291.345 253.613,321.743 250.901,325.604C259.48,312.612 271.506,290.495 275.23,261.058C275.888,255.845 277.688,239.351 274.599,218.169C269.457,182.912 256.117,171.303 255.926,137.803C255.875,129.092 256.725,120.307 260.749,110.864C265.969,98.627 274.186,90.769 279.453,86.527C270.228,92.48 253.063,105.511 242.353,128.454C230.911,152.962 232.91,175.772 233.911,185.757C235.278,199.459 237.756,199.517 243.561,227.984C247.757,248.577 249.857,258.874 250.196,270.211C250.488,279.993 250.967,305.92 237.227,334.453C229.817,349.837 220.759,360.824 214.304,367.63C234.06,304.935 232.003,273.04 225.465,255.431C224.67,253.296 220.381,242.119 216.719,226.477C213.076,210.921 210.12,197.773 212.192,181.535C213.115,174.332 215.441,163.248 222.146,150.47C204.502,172.38 187.021,202.565 191.786,235.901C192.694,242.267 193.395,241.62 196.812,256.638C202.819,283.059 209.36,311.826 205.862,343.503C204.537,355.451 201.16,373.497 191.381,394.776L333.741,394.776C336.542,395.567 345.35,398.438 350.029,406.841C350.029,406.841 353.851,413.705 352.44,423.901C350.204,440.08 326.747,459.863 292.117,475.002C303.641,472.435 366.254,457.296 400.097,397.791C429.74,345.667 424.96,281.203 400.097,240.072ZM341.684,368.232C340.375,367.278 338.688,366.237 336.608,365.365C332.56,363.67 328.883,363.386 326.502,363.405L226.165,363.405C233.415,356.015 243.591,346.758 256.93,337.669C269.884,328.841 276.888,324.174 287.594,322.086C294.127,320.812 312.956,317.134 327.709,329.624C344.189,343.575 341.929,366.136 341.684,368.232Z" style="fill-rule:nonzero;"/>
            <path d="M192.288,299.915C188.345,283.514 183.183,277.506 180.071,258.296C177.422,241.953 178.205,228.084 179.319,218.785C175.75,221.048 169.915,225.392 164.94,232.709C159.657,240.481 157.819,247.973 157.098,252.211C150.506,258.998 138.846,272.824 132.367,293.834C127.057,311.05 127.431,325.939 128.347,334.853C131.92,338.348 138.531,343.911 148.352,347.623C157.32,351.012 165.225,351.445 170.067,351.34C170.772,356.537 173.608,381.599 156.545,403.52C145.952,417.132 132.742,423.038 126.388,425.387C128.083,422.157 130.72,416.045 130.759,408.043C130.782,403.232 129.859,399.246 128.951,396.434C130.186,394.774 131.495,392.768 132.718,390.399C134.576,386.807 135.671,383.464 136.337,380.749C134.935,382.467 133.263,384.314 131.288,386.176C129.971,387.419 128.678,388.521 127.439,389.495C126.352,386.702 124.661,382.467 122.464,377.356C117.154,365.006 116.274,364.745 115.074,360.238C112.585,350.892 113.901,342.765 114.7,337.845C115.775,331.195 117.704,325.881 119.297,322.235C114.131,324.28 105.432,328.492 97.282,336.864C91.863,342.427 83.016,353.6 80.39,370.193C77.717,387.085 82.965,400.272 85.291,405.333C84.82,405.528 80.85,407.269 79.712,411.664C78.828,415.081 80.238,417.851 80.592,418.501C85.824,418.201 92.521,417.309 99.993,414.983C105.689,413.21 110.484,411.021 114.322,408.952C115.366,412.684 117.52,422.424 113.064,432.779C111.455,436.519 109.379,439.41 107.536,441.525C117.536,439.32 134.803,434.135 152.022,420.866C178.65,400.343 188.222,373.555 191.381,362.655C199.943,333.103 194.091,307.426 192.288,299.915ZM152.371,318.767C148.896,316.698 146.64,314.174 145.335,312.432C144.053,307.671 141.992,297.394 145.335,285.189C147.77,276.291 152.09,269.976 154.985,266.388C155.176,273.872 155.873,282.446 157.502,291.824C159.547,303.628 162.57,313.827 165.644,322.188C163.229,322.246 157.876,322.039 152.371,318.767ZM98.383,400.201C97.222,396.874 95.714,392.133 94.363,386.328C92.4,377.897 91.044,372.081 91.449,364.41C91.722,359.209 92.1,352.076 96.677,344.705C100.495,338.554 105.509,335.028 108.54,333.244C105.221,337.202 99.482,345.321 98.384,356.669C97.504,365.812 100.032,372.926 102.003,378.485C105.049,387.06 109.28,393.355 112.362,397.286C107.702,398.257 103.042,399.231 98.383,400.201Z" style="fill-rule:nonzero;"/>
            <circle cx="156.797" cy="204.96" r="11.461"/>
            <circle cx="108.036" cy="302.983" r="10.959"/>
            <circle cx="91.376" cy="321.281" r="7.54"/>
        </g>
        <g>
            <path d="M198.49,440.909L198.49,441.633C198.49,441.976 198.213,442.251 197.872,442.251L175.862,442.251C175.194,442.251 174.569,442.08 174.023,441.773C173.403,441.43 172.889,440.914 172.546,440.291C172.247,439.75 172.078,439.13 172.078,438.469L172.078,409.195C172.078,408.852 172.355,408.577 172.696,408.577L173.42,408.577C173.763,408.577 174.04,408.852 174.04,409.195L174.04,436.507C174.04,438.597 175.734,440.291 177.824,440.291L197.873,440.291C198.213,440.291 198.49,440.566 198.49,440.909Z" style="fill-rule:nonzero;"/>
            <path d="M313.364,408.645L313.364,409.369C313.364,409.709 313.086,409.987 312.746,409.987L305.798,409.987C303.708,409.987 302.014,411.681 302.014,413.771L302.014,420.122L310.057,420.122C310.4,420.122 310.677,420.399 310.677,420.74L310.677,421.464C310.677,421.807 310.4,422.084 310.057,422.084L302.014,422.084L302.014,441.633C302.014,441.976 301.736,442.251 301.396,442.251L300.672,442.251C300.329,442.251 300.052,441.976 300.052,441.633L300.052,411.809C300.052,411.148 300.221,410.528 300.52,409.987C300.81,409.459 301.222,409.007 301.719,408.672C302.325,408.264 303.051,408.025 303.835,408.025L312.744,408.025C313.087,408.024 313.364,408.302 313.364,408.645Z" style="fill-rule:nonzero;"/>
            <path d="M254.234,421.934L254.234,436.507C254.234,438.597 255.928,440.291 258.018,440.291L263.411,440.291L263.411,442.251L256.056,442.251C255.388,442.251 254.763,442.08 254.217,441.773C253.597,441.43 253.083,440.914 252.74,440.291C252.441,439.75 252.272,439.13 252.272,438.469L252.272,409.195C252.272,408.852 252.549,408.577 252.892,408.577L253.616,408.577C253.956,408.577 254.234,408.852 254.234,409.195L254.234,419.972L263.411,419.972L263.411,421.934L254.234,421.934Z" style="fill-rule:nonzero;"/>
            <path d="M236.876,421.934L236.876,436.507C236.876,438.597 238.57,440.291 240.66,440.291L246.053,440.291L246.053,442.251L238.698,442.251C238.03,442.251 237.405,442.08 236.859,441.773C236.239,441.43 235.725,440.914 235.382,440.291C235.083,439.75 234.914,439.13 234.914,438.469L234.914,409.195C234.914,408.852 235.191,408.577 235.534,408.577L236.258,408.577C236.598,408.577 236.876,408.852 236.876,409.195L236.876,419.972L246.053,419.972L246.053,421.934L236.876,421.934Z" style="fill-rule:nonzero;"/>
            <path d="M291.634,420.435C291.583,420.408 291.529,420.38 291.478,420.353C290.975,420.108 290.411,419.971 289.814,419.971L269.416,419.971C269.311,419.971 269.21,419.998 269.124,420.045C268.929,420.15 268.801,420.353 268.801,420.59L268.801,421.315C268.801,421.549 268.93,421.755 269.124,421.857C269.21,421.908 269.311,421.935 269.416,421.935L287.851,421.935C289.943,421.935 291.634,423.626 291.634,425.718C291.634,426.256 291.521,426.766 291.318,427.23C290.843,428.321 289.873,429.143 288.688,429.408L272.906,429.408C272.244,429.408 271.624,429.576 271.083,429.875C270.456,430.222 269.938,430.74 269.591,431.367C269.291,431.909 269.124,432.528 269.124,433.19L269.124,438.469C269.124,439.131 269.292,439.751 269.591,440.288C269.934,440.911 270.448,441.429 271.068,441.772C271.613,442.076 272.237,442.247 272.907,442.247L289.815,442.247C290.481,442.247 291.108,442.076 291.65,441.772C292.269,441.429 292.784,440.911 293.127,440.288C293.427,439.75 293.594,439.131 293.594,438.469L293.594,423.755C293.594,422.325 292.803,421.082 291.634,420.435ZM291.634,436.506C291.634,438.598 289.943,440.289 287.851,440.289L274.87,440.289C272.778,440.289 271.083,438.598 271.083,436.506L271.083,435.154C271.083,433.062 272.778,431.367 274.87,431.367L287.851,431.367C289.943,431.367 291.63,433.062 291.634,435.15L291.634,436.506Z" style="fill-rule:nonzero;"/>
            <path d="M226.734,420.435C226.683,420.408 226.629,420.38 226.574,420.353C226.075,420.108 225.51,419.971 224.914,419.971L204.516,419.971C204.411,419.971 204.31,419.998 204.224,420.045C204.029,420.15 203.901,420.353 203.901,420.59L203.901,421.315C203.901,421.549 204.03,421.755 204.224,421.857C204.31,421.908 204.411,421.935 204.516,421.935L222.951,421.935C225.039,421.935 226.734,423.626 226.734,425.718C226.734,426.256 226.621,426.766 226.418,427.23C225.943,428.321 224.969,429.143 223.788,429.408L208.006,429.408C207.344,429.408 206.724,429.576 206.183,429.875C205.556,430.222 205.034,430.74 204.691,431.367C204.391,431.909 204.223,432.528 204.223,433.19L204.223,438.469C204.223,439.131 204.391,439.751 204.691,440.288C205.034,440.911 205.548,441.429 206.167,441.772C206.712,442.076 207.336,442.247 208.006,442.247L224.914,442.247C225.58,442.247 226.207,442.076 226.749,441.772C227.368,441.429 227.883,440.911 228.226,440.288C228.526,439.75 228.693,439.131 228.693,438.469L228.693,423.755C228.694,422.325 227.899,421.082 226.734,420.435ZM226.734,436.506C226.734,438.598 225.039,440.289 222.951,440.289L209.97,440.289C207.878,440.289 206.183,438.598 206.183,436.506L206.183,435.154C206.183,433.062 207.878,431.367 209.97,431.367L222.951,431.367C225.039,431.367 226.73,433.062 226.734,435.15L226.734,436.506Z" style="fill-rule:nonzero;"/>
            <path d="M338.914,420.435C338.863,420.408 338.813,420.38 338.758,420.353C338.255,420.108 337.694,419.971 337.094,419.971L316.7,419.971C316.595,419.971 316.494,419.998 316.404,420.045C316.213,420.15 316.081,420.353 316.081,420.59L316.081,421.315C316.081,421.549 316.213,421.755 316.404,421.857C316.494,421.908 316.595,421.935 316.7,421.935L335.135,421.935C337.223,421.935 338.914,423.626 338.914,425.718C338.914,426.256 338.805,426.766 338.602,427.23C338.127,428.321 337.153,429.143 335.972,429.408L320.19,429.408C319.528,429.408 318.908,429.576 318.367,429.875C317.736,430.222 317.218,430.74 316.875,431.367C316.575,431.909 316.404,432.528 316.404,433.19L316.404,438.469C316.404,439.131 316.575,439.751 316.875,440.288C317.218,440.911 317.728,441.429 318.352,441.772C318.897,442.076 319.521,442.247 320.191,442.247L337.095,442.247C337.761,442.247 338.388,442.076 338.934,441.772C339.553,441.429 340.068,440.911 340.411,440.288C340.711,439.75 340.878,439.131 340.878,438.469L340.878,423.755C340.877,422.325 340.082,421.082 338.914,420.435ZM338.914,436.506C338.914,438.598 337.223,440.289 335.135,440.289L322.15,440.289C320.062,440.289 318.367,438.598 318.367,436.506L318.367,435.154C318.367,433.062 320.062,431.367 322.15,431.367L335.135,431.367C337.223,431.367 338.914,433.062 338.914,435.15L338.914,436.506Z" style="fill-rule:nonzero;"/>
        </g>
    </g>
</svg>
