<?xml version="1.0" encoding="UTF-8" standalone="no"?>
<svg
   xmlns:dc="http://purl.org/dc/elements/1.1/"
   xmlns:cc="http://creativecommons.org/ns#"
   xmlns:rdf="http://www.w3.org/1999/02/22-rdf-syntax-ns#"
   xmlns:svg="http://www.w3.org/2000/svg"
   xmlns="http://www.w3.org/2000/svg"
   id="svg6636"
   version="1.1"
   viewBox="0 0 33.749985 8.9979496"
   height="8.9979496mm"
   width="33.749985mm">
  <defs
     id="defs6630" />
  <metadata
     id="metadata6633">
    <rdf:RDF>
      <cc:Work
         rdf:about="">
        <dc:format>image/svg+xml</dc:format>
        <dc:type
           rdf:resource="http://purl.org/dc/dcmitype/StillImage" />
        <dc:title></dc:title>
      </cc:Work>
    </rdf:RDF>
  </metadata>
  <g
     transform="translate(72.664972,-104.50587)"
     id="layer1">
    <path
       id="path7288"
       d="m -68.02762,105.72612 c -1.861079,0 -3.378994,1.46738 -3.378994,3.27475 0,1.81584 1.517915,3.28348 3.378994,3.28348 1.869546,0 3.386931,-1.46764 3.386931,-3.28348 2.65e-4,-1.80763 -1.517385,-3.27475 -3.386931,-3.27475 z"
       style="fill:none;stroke-width:0.26458332" />
    <path
       id="path7290"
       d="m -68.02762,104.50587 c -2.555081,0 -4.637352,2.01744 -4.637352,4.495 0,2.4855 2.082271,4.50295 4.637352,4.50295 2.554287,0 4.646348,-2.01745 4.646348,-4.50295 0,-2.47756 -2.091796,-4.495 -4.646348,-4.495 z m 0,7.77822 c -1.861079,0 -3.378994,-1.46765 -3.378994,-3.28348 0,-1.80737 1.517915,-3.27475 3.378994,-3.27475 1.869546,0 3.386931,1.46738 3.386931,3.27475 2.65e-4,1.81583 -1.517385,3.28348 -3.386931,3.28348 z"
       style="fill:#005596;stroke-width:0.26458332" />
    <path
       id="path7292"
       d="m -68.02762,112.28409 c 0.764646,0 1.467908,-0.24818 2.03491,-0.66305 l -2.036497,-2.98503 -2.028561,2.98397 c 0.566473,0.41513 1.268413,0.66411 2.030148,0.66411 z"
       style="fill:#d31245;stroke-width:0.26458332" />
    <g
       transform="matrix(0.26458333,0,0,0.26458333,-72.664972,104.50322)"
       id="g7298">
      <path
         id="path7294"
         d="m 4.756,16.999 c 0,1.839 0.422,3.578 1.162,5.146 L 17.527,4.622 c -7.034,0 -12.771,5.545 -12.771,12.377 z"
         style="fill:#d31245" />
      <path
         id="path7296"
         d="m 17.527,4.622 11.638,17.527 c 0.74,-1.568 1.164,-3.309 1.164,-5.15 0,-6.832 -5.736,-12.377 -12.802,-12.377 z"
         style="fill:#d31245" />
    </g>
    <path
       id="path7300"
       d="m -57.21701,111.46256 h -1.404673 l -0.06615,-0.75142 h -1.515269 l -0.362744,0.75142 h -1.546225 l 2.620698,-4.5982 h 1.536435 z m -1.557866,-1.73117 -0.147902,-1.67323 h -0.01297 l -0.794808,1.67323 z"
       style="fill:#005596;stroke-width:0.26458332" />
    <path
       id="path7302"
       d="m -54.814064,108.37011 c 0.147902,-0.11298 0.288925,-0.19289 0.422804,-0.24104 0.134144,-0.0481 0.302684,-0.072 0.50509,-0.072 0.386027,0 0.678127,0.12938 0.875771,0.38947 0.197643,0.26009 0.296333,0.59531 0.296333,1.00542 0,0.52758 -0.147902,1.00885 -0.442912,1.44224 -0.295275,0.43312 -0.6858,0.65008 -1.170782,0.65008 -0.499798,0 -0.871008,-0.20664 -1.113631,-0.62071 l -0.123296,0.53896 h -1.204383 l 0.987954,-4.59793 h 1.288521 z m 0.153194,2.31616 c 0.184944,0 0.34581,-0.11615 0.481542,-0.34819 0.135995,-0.2331 0.203993,-0.526 0.203993,-0.88001 0,-0.37862 -0.150548,-0.56806 -0.451908,-0.56806 -0.21934,0 -0.395288,0.12594 -0.527844,0.3773 -0.132556,0.25162 -0.198966,0.52863 -0.198966,0.83211 0,0.19368 0.05001,0.33999 0.149754,0.43868 0.100541,0.0992 0.214841,0.14817 0.343429,0.14817 z"
       style="fill:#005596;stroke-width:0.26458332" />
    <path
       id="path7304"
       d="m -50.386791,108.13039 -0.718344,3.3319 h -1.2954 l 0.718609,-3.3319 z"
       style="fill:#005596;stroke-width:0.26458332" />
    <path
       id="path7306"
       d="m -47.396735,108.13039 -0.195791,0.9144 h -0.673894 l -0.250561,1.1774 c -0.01746,0.0505 -0.02646,0.10477 -0.02646,0.16166 0,0.15293 0.100542,0.22886 0.30136,0.22886 0.06403,0 0.19738,-0.0185 0.40058,-0.0569 l -0.193675,0.90964 c -0.388673,0.0521 -0.673894,0.0786 -0.855134,0.0786 -0.361156,0 -0.617537,-0.0863 -0.76835,-0.25797 -0.150812,-0.17172 -0.226218,-0.35904 -0.226218,-0.56277 0,-0.0672 0.03096,-0.24659 0.0934,-0.53896 l 0.243153,-1.13956 h -0.468578 l 0.190765,-0.9144 h 0.47334 l 0.111125,-0.52096 1.443831,-0.71358 -0.263525,1.23454 z"
       style="fill:#005596;stroke-width:0.26458332" />
    <path
       id="path7308"
       d="m -46.898524,109.04003 c 0.07752,-0.31432 0.255852,-0.55668 0.533929,-0.72734 0.277548,-0.17066 0.708025,-0.25585 1.290902,-0.25585 0.660929,0 1.107546,0.0823 1.338791,0.24659 0.231246,0.16431 0.347134,0.4027 0.347134,0.71702 0,0.20929 -0.05847,0.55324 -0.175419,1.03293 -0.108215,0.45376 -0.162454,0.76994 -0.162454,0.94774 0,0.15029 0.02752,0.30427 0.08255,0.46144 h -1.257829 c -0.02963,-0.13177 -0.04419,-0.2585 -0.04419,-0.37995 -0.337608,0.30745 -0.714375,0.46144 -1.130035,0.46144 -0.424392,0 -0.729456,-0.0987 -0.914929,-0.29607 -0.186002,-0.19685 -0.278871,-0.42572 -0.278871,-0.6858 0,-0.29607 0.08281,-0.52202 0.248444,-0.67707 0.166423,-0.15505 0.370946,-0.26035 0.613833,-0.31618 0.243417,-0.0553 0.575204,-0.10451 0.995892,-0.14631 0.374385,-0.0397 0.623623,-0.0791 0.748506,-0.11615 0.02593,-0.0992 0.03863,-0.17516 0.03863,-0.22834 0,-0.0841 -0.04286,-0.15134 -0.128323,-0.20241 -0.08546,-0.0503 -0.199231,-0.0759 -0.340783,-0.0759 -0.147902,0 -0.267759,0.0236 -0.359569,0.0706 -0.09181,0.0474 -0.172508,0.14658 -0.242358,0.2966 z m 2.091266,0.92736 c -0.594254,0.0998 -0.942975,0.18759 -1.046162,0.26353 -0.103717,0.0765 -0.155575,0.16642 -0.155575,0.26987 0,0.10795 0.03731,0.19315 0.11086,0.25533 0.07382,0.0624 0.169069,0.0939 0.285486,0.0939 0.162454,0 0.32385,-0.0661 0.483129,-0.19843 0.160073,-0.13229 0.266964,-0.3601 0.322262,-0.68422 z"
       style="fill:#005596;stroke-width:0.26458332" />
    <path
       id="path7310"
       d="m -41.01472,108.37011 c 0.147902,-0.11298 0.288925,-0.19289 0.422804,-0.24104 0.134408,-0.0481 0.302683,-0.072 0.504825,-0.072 0.386556,0 0.678391,0.12938 0.876035,0.38947 0.197644,0.26009 0.296069,0.59531 0.296069,1.00542 0,0.52758 -0.147373,1.00885 -0.442913,1.44224 -0.29501,0.43312 -0.685799,0.65008 -1.170516,0.65008 -0.499798,0 -0.871273,-0.20664 -1.113896,-0.62071 l -0.122767,0.53896 h -1.204648 l 0.987955,-4.59793 h 1.288256 z m 0.153193,2.31616 c 0.185209,0 0.346075,-0.11615 0.481807,-0.34819 0.135996,-0.2331 0.203729,-0.526 0.203729,-0.88001 0,-0.37862 -0.150283,-0.56806 -0.451644,-0.56806 -0.219075,0 -0.395287,0.12594 -0.527844,0.3773 -0.132556,0.25162 -0.198966,0.52863 -0.198966,0.83211 0,0.19368 0.05001,0.33999 0.150018,0.43868 0.09975,0.0992 0.214578,0.14817 0.3429,0.14817 z"
       style="fill:#005596;stroke-width:0.26458332" />
    <ellipse
       ry="0.8352173"
       rx="0.8610487"
       cy="106.9669"
       cx="-50.853069"
       id="path7345"
       style="fill:#d31245;fill-opacity:1;stroke:none;stroke-width:0.01544426;stroke-linejoin:round;stroke-miterlimit:4;stroke-dasharray:none;stroke-opacity:1" />
  </g>
  <style
     type="text/css"
     id="style7181">
	.st0{fill:none;}
	.st1{fill:#FF5F00;}
	.st2{fill:#EB001B;}
	.st3{fill:#F79E1B;}
</style>
</svg>
