<?xml version="1.0" encoding="UTF-8"?>
<svg id="Layer_1" xmlns="http://www.w3.org/2000/svg" version="1.1" viewBox="0 0 479.27 479.27">
  <!-- Generator: Adobe Illustrator 29.8.2, SVG Export Plug-In . SVG Version: 2.1.1 Build 3)  -->
  <defs>
    <style>
      .st0 {
        fill: #ff6200;
      }
    </style>
  </defs>
  <path class="st0" d="M208.37.15c-13.8.33-23.92.81-42.47,1.96-8.58.51-17.95,1.27-24.55,1.93-1.66.18-5.12.51-7.68.75-10.75,1.05-26.72,3.07-33.43,4.21-1.42.24-3.5.57-4.67.75-1.14.15-3.19.51-4.52.75-1.32.24-3.55.66-4.97.9-4.97.84-13.43,2.56-18.22,3.71-1.33.33-3.71.9-5.27,1.27-1.57.36-2.98.69-3.16.72-8.83,2.11-17.59,6.36-24.34,11.87-6.57,5.33-12.44,13.95-15.39,22.5-.48,1.33-.97,2.68-1.11,3.01-.51,1.14-2.74,10.78-4.34,18.68-.24,1.32-.66,3.28-.9,4.37-.24,1.08-.57,2.98-.78,4.22-.18,1.23-.42,2.74-.57,3.31-.45,1.72-2.29,13.46-3.47,21.99-1.14,8.25-1.9,14.25-2.56,20.33-.33,2.98-.66,5.9-.72,6.48-.09.57-.36,3.49-.63,6.48-.24,2.98-.6,6.62-.78,8.13-.63,5.54-2.2,29.67-2.98,46.69-.6,12.62-.99,39.64-.78,54.37.21,18.37.66,34.79,1.08,40.51.15,2.32.45,7.2.63,10.84.18,3.64.42,8.31.57,10.39.69,10.42,1.23,17.26,1.5,19.43.15,1.33.51,4.85.75,7.8.24,2.95.6,6.48.75,7.83.18,1.36.51,4.28.75,6.51.75,7.14,1.33,11.8,1.81,14.91.24,1.66.66,4.49.9,6.32.88,6.62,1.9,13.07,3.01,18.98.24,1.32.63,3.55.91,4.97.51,3.01,1.69,9.01,2.53,12.8,2.89,13.29,4.16,17.26,7.56,23.8.93,1.8,2.14,3.91,2.68,4.67.51.75,1.26,1.84,1.66,2.41,1.72,2.56,6.63,7.56,9.34,9.49.45.33,1.32.96,1.89,1.41.61.48,1.18.84,1.33.84.12,0,.42.21.66.45,1.18,1.14,9.46,5.09,13.01,6.14.66.21,1.48.48,1.81.63.79.36,5.21,1.47,10.54,2.68,2.32.54,4.7,1.11,5.27,1.27,1.39.36,10.12,2.11,16.72,3.31,3.79.69,11.18,1.87,15.81,2.53,1.75.24,3.98.57,4.97.75,3.64.63,18.71,2.38,28.16,3.29,3.4.33,7.59.72,9.34.9,2.83.3,5.72.54,19.58,1.54,2.08.15,6.81.42,10.54.61,3.74.18,8.95.45,11.6.6,21.45,1.23,82.77,1.23,103.91,0,2.65-.18,7.86-.42,11.6-.6,6.41-.3,8.77-.45,18.82-1.21,12.89-.99,31.84-2.83,38.25-3.73,1.84-.27,5-.69,7.08-.96,7.68-.99,18.22-2.59,24.25-3.7,6.6-1.21,15.33-2.95,16.72-3.31.57-.15,2.95-.72,5.27-1.27,5.21-1.18,9.73-2.32,10.54-2.68,1-.36,2-.71,3.01-1.05,2.47-.81,10.66-4.7,11.36-5.36.21-.21.81-.66,1.33-.96,2.35-1.47,3.43-2.32,5.57-4.25,2.41-2.2,5.75-5.81,6.57-7.05.27-.42.99-1.45,1.59-2.26.63-.84,1.14-1.6,1.14-1.72s.48-.96,1.05-1.87c.58-.9,1.27-2.23,1.54-2.95.3-.69.6-1.45.72-1.59.57-.75,2.68-6.75,3.58-10.15,1.42-5.27,4.07-17.71,5.03-23.59.24-1.5.51-2.92.6-3.16.27-.66,1.93-11,3.43-21.54.33-2.32.66-4.64.75-5.12.24-1.39,1.33-10.63,1.81-15.51.24-2.41.57-5.18.75-6.18.18-1,.51-4.25.75-7.23.24-2.98.57-6.66.72-8.13.18-1.5.45-4.94.63-7.68.18-2.74.45-6.11.6-7.53.18-1.42.51-6.63.75-11.6.27-4.97.57-11.09.75-13.55,1.36-21.9,1.36-79.37,0-101.96-.15-2.56-.42-7.59-.6-11.15-.18-3.55-.45-8.25-.61-10.39-.18-2.17-.57-7.5-.9-11.9-.33-4.4-.66-8.53-.75-9.19-.09-.66-.36-3.59-.6-6.48-.24-2.89-.51-5.6-.6-6.02-.09-.42-.42-3.2-.75-6.18-.78-7.2-1.75-15.15-1.96-16.08-.09-.42-.42-2.83-.75-5.31-1.48-11.26-4.21-26.96-6.57-37.65-.33-1.51-.87-3.95-1.2-5.42-.84-3.86-1.84-7.74-2.17-8.43-.15-.33-.42-1.14-.63-1.81-.66-2.23-4.01-9.67-4.85-10.84-.12-.18-1.08-1.59-2.11-3.16-2.14-3.22-7.62-8.95-10.9-11.36-6.5-4.79-13.73-8.04-23.07-10.33-1.61-.39-3.22-.8-4.82-1.21-1.11-.33-3.35-.81-8.13-1.81-1.36-.28-2.71-.58-4.07-.88-5.81-1.41-24.73-4.49-37.05-6.05-2.47-.3-4.91-.63-5.42-.75-.91-.18-5.27-.63-14.16-1.51-2.47-.24-5.88-.6-7.53-.75-1.66-.18-4.64-.45-6.62-.63-1.99-.15-5.24-.42-7.23-.57-6.75-.57-25.48-1.66-35.84-2.11-20.03-.87-57.02-1.14-79.97-.57h0ZM75.66,203.67c.18.15,1.06.42,1.93.63,1.63.39,3.92,1.45,5.63,2.59,1.36.9,4.55,4.34,5.18,5.54.31.6.63,1.15.72,1.24.09.09.36.69.61,1.35.21.66.48,1.36.63,1.5.39.57.84,4.16.84,6.81s-.39,5.63-.91,6.75c-1.62,3.73-2.41,4.97-4.46,7.14-1.9,1.96-2.68,2.56-5.27,3.82-2.11,1.05-3.62,1.6-4.82,1.71-.96.12-1.81.33-1.9.45-.21.36-6.75.36-6.75,0,0-.12-.75-.33-1.72-.45-.93-.12-2.11-.39-2.62-.6-.65-.29-1.32-.57-1.99-.81-.57-.21-1.12-.45-1.21-.54-.09-.12-.54-.39-1.06-.63-1.75-.87-5.36-4.88-6.41-7.08-.57-1.18-1.11-2.32-1.26-2.56-1.02-2.05-1.2-11.39-.24-13.56.27-.57.66-1.54.88-2.11.21-.57.45-1.11.54-1.2.09-.09.45-.7.78-1.36.57-1.12,4.16-4.97,4.67-4.97.12,0,.39-.21.61-.48.57-.63,3.49-2.05,5.27-2.5.84-.21,1.78-.51,2.11-.66.33-.15,1.14-.3,1.81-.39,1.78-.18,8.01.09,8.41.36h0ZM403.85,224.66v15.21h-58.43v-20.36l3.25-.51c7.2-1.11,11.69-1.87,11.96-2.05.18-.12,1.66-.36,3.31-.57,1.66-.21,3.16-.49,3.31-.61.18-.12,1.6-.39,3.16-.6,1.57-.18,3.61-.54,4.52-.78.9-.21,2.8-.54,4.21-.72,1.42-.18,2.83-.45,3.16-.57.33-.15,1.84-.42,3.31-.63,1.51-.18,3.19-.45,3.77-.63.57-.15,2.74-.57,4.82-.9,2.08-.33,4.79-.78,6.02-.99,1.23-.24,2.56-.42,2.95-.45l.66-.03v15.21ZM154.45,238.09v18.04h30.12v26.81h-30.15l.12,27.92c.09,30.09.03,28.61,1.66,32.32,1.23,2.86,4.73,5.79,7.74,6.51.51.12,1.09.36,1.33.54.57.45,12.77.45,13.31-.03.24-.18,1.32-.42,2.47-.54l2.02-.21v26.42l-.82.36c-.75.33-4.21.87-8.97,1.45-6.78.79-19.13.88-19.85.12-.18-.15-.66-.27-1.11-.27-1.18,0-6.05-.91-6.42-1.18-.18-.12-.99-.42-1.84-.6-.81-.21-1.62-.48-1.81-.6-.15-.15-.84-.42-1.5-.63-.66-.21-1.27-.48-1.36-.57s-.63-.42-1.21-.75c-2.5-1.32-3.25-1.8-4.58-2.92-.78-.63-1.5-1.17-1.66-1.17-.3-.03-2.59-2.53-4.4-4.82-1.39-1.78-3.44-5.18-4.13-6.93-.24-.57-.51-1.11-.6-1.2-.12-.09-.42-1.02-.72-2.11-.27-1.08-.63-2.23-.79-2.56-.15-.33-.51-1.69-.75-3.01-.26-1.26-.53-2.51-.82-3.77-.21-.9-.36-11.51-.45-31.57l-.12-30.18h-17.44v-26.81h17.47v-30.36l2.05-.21c1.11-.12,2.17-.33,2.32-.45.18-.12,1.66-.39,3.31-.6,1.66-.21,3.16-.51,3.31-.63.18-.12,2.08-.45,4.22-.72,2.17-.3,4.07-.63,4.21-.75.18-.12,1.18-.33,2.26-.42,1.42-.17,2.82-.4,4.22-.69,3.22-.66,8.85-1.54,9.12-1.39.12.06.21,8.25.21,18.19h0ZM254.3,253.27c4.21.24,8.98.79,9.34,1.05.18.12.9.33,1.66.42,1.72.27,5.91,1.51,8.43,2.53,2.11.85,6.81,3.19,7.53,3.8.24.18.78.54,1.2.72.42.21,1.75,1.26,2.92,2.29,1.18,1.05,2.26,1.96,2.41,2.02.45.21,5.81,6.72,5.81,7.08,0,.09.27.58.61,1.02.63.91,3.31,6.12,3.31,6.45,0,.12.24.78.57,1.47.3.7.66,1.75.79,2.32.12.57.33,1.18.45,1.36.12.15.39,1.11.61,2.11.18.99.42,2.02.51,2.26.12.24.39,1.54.63,2.86.36,1.99.45,9.49.57,42.68l.12,40.3h-32.86l-.03-3.55c-.03-1.93-.12-4.73-.24-6.2l-.18-2.71-.87,1.2c-1.38,1.84-5.93,6.17-7.74,7.38-3.95,2.59-5,3.22-6.09,3.59-.66.18-1.54.54-1.96.78-.45.21-1.57.58-2.47.76-.9.21-1.8.48-1.96.6-1.54,1.14-20.51,1.12-21.99-.03-.15-.12-1.23-.39-2.41-.6-1.14-.21-2.5-.54-3.01-.79-.48-.21-1.78-.75-2.83-1.18-1.21-.53-2.4-1.11-3.55-1.75-.8-.49-1.61-.97-2.44-1.41-1.26-.7-1.69-1.09-5.12-4.52-3.52-3.52-3.98-4-3.98-4.33,0-.12-.39-.79-.84-1.48-.49-.69-1.18-1.96-1.54-2.77-.36-.84-.84-1.84-1.05-2.26-.24-.42-.57-1.5-.78-2.41-.21-.9-.48-1.8-.6-1.96-.33-.42-.91-4.7-.91-6.57,0-.87-.15-1.75-.33-1.92-.36-.36-.27-1.57.66-8.83.18-1.41.45-2.71.57-2.86.12-.18.39-.96.57-1.78.39-1.57,1.21-3.61,2.05-5.15.27-.51.63-1.2.81-1.57.18-.39.42-.69.57-.69.12,0,.21-.18.21-.39,0-.33,3.31-4.64,3.89-5.03.12-.09.33-.39.42-.69.12-.33.48-.63.81-.72s.6-.27.6-.39c0-.3,5.06-4.28,6.78-5.27,1.23-.75,4.01-2.17,8.04-4.1.57-.3,6.2-2.11,8.68-2.8.9-.27,2.68-.63,3.91-.81,1.23-.21,2.41-.45,2.56-.57.18-.12,1.99-.39,4.07-.58,2.08-.18,4.64-.48,5.72-.63,4.28-.63,19.3-.51,20.9.15.54.24.57.12.36-2.44-.12-1.48-.33-2.74-.45-2.83-.15-.09-.33-.66-.45-1.27-.21-1.11-1.36-3.55-2.44-5.21-.7-1.05-3.62-4.07-3.95-4.07-.12,0-.63-.3-1.14-.69-1.33-.96-3.46-1.93-4.76-2.17-.63-.12-1.14-.33-1.14-.45,0-1.32-19.46-1.54-25.3-.24-.75.15-2.5.48-3.91.72-1.42.24-2.83.57-3.16.72-.33.15-1.41.42-2.41.6-.99.18-2.08.45-2.41.6-.33.15-1.54.48-2.68.75-1.14.27-2.23.57-2.41.72-.18.12-.99.42-1.84.63-.81.21-1.66.51-1.81.63-.18.12-.99.39-1.81.6-.84.18-2.02.6-2.62.9-.63.33-1.21.57-1.3.57s-.15-6.3-.15-13.98c0-10.88.09-14.04.39-14.28.21-.18,1.05-.48,1.87-.69.84-.18,1.66-.45,1.8-.57.18-.12,1.18-.48,2.26-.75,1.08-.3,2.1-.63,2.26-.75.18-.15,1.11-.39,2.08-.6,1-.21,2.02-.48,2.26-.63.27-.12,1.51-.45,2.74-.72.96-.19,1.91-.4,2.86-.63.33-.09,2.02-.36,3.76-.61,1.75-.24,3.59-.57,4.07-.72,1.75-.54,17.53-1.54,21.09-1.32.99.06,3.16.18,4.82.27h0ZM88.19,316.08v59.94h-35.24v-119.88h35.24v59.94ZM354.45,293.49c0,35.66.15,42.56.88,43.53.15.15.33.75.45,1.33.42,2.26,2.38,5.54,4.61,7.77,1.18,1.21,2.5,2.26,2.92,2.38.45.09.79.27.79.39s1.05.54,2.35.96c1.93.61,2.95.72,5.96.72,2.11,0,3.95-.15,4.37-.33.39-.21,1.32-.51,2.08-.72.75-.21,2.11-.84,3.01-1.45,1.69-1.08,4.82-3.97,4.82-4.46,0-.15.42-.81.9-1.45.51-.66.91-1.32.91-1.5s.27-.82.57-1.42c.33-.6.69-1.62.81-2.26.09-.66.3-1.32.45-1.48.75-.96.88-7.05.88-42.38v-36.99h35.24v119.88h-16.69c-13.04,0-16.78-.09-16.96-.39-.12-.18-.27-3.04-.33-6.33-.06-3.25-.21-5.93-.33-5.93s-.48.36-.84.81c-1.69,2.29-4.34,4.88-8.5,8.31-.6.48-1.84,1.14-4.55,2.47-1.23.6-2.59,1.3-3.01,1.51s-1.57.54-2.56.75c-.99.21-1.87.48-1.96.6-.3.45-5.63.9-10.9.9s-9.4-.36-10.63-.88c-.33-.15-1.48-.51-2.56-.78-1.08-.27-2.08-.63-2.26-.75-.15-.12-.87-.42-1.57-.63-.72-.18-1.29-.45-1.29-.57s-.54-.39-1.21-.6c-.66-.21-1.2-.48-1.2-.61s-.33-.36-.72-.54c-2.59-1.17-8.46-6.69-10.93-10.24-1.51-2.17-3.83-6.51-4.31-8.1-.18-.63-.54-1.57-.75-2.05-.21-.51-.57-1.59-.75-2.41-.18-.84-.45-1.72-.6-2.02-.15-.27-.42-1.69-.6-3.16-.18-1.45-.51-2.92-.69-3.25-.27-.45-.39-11.2-.45-43.31l-.09-42.68h35.27v37.35Z"/>
  <path class="st0" d="M250.39,322.74c-1.47.15-2.98.39-3.31.54-.33.18-1.41.45-2.41.66-.96.18-2.26.54-2.86.81-4.52,1.96-6.72,3.25-8.22,4.82-1.45,1.51-2.9,4.31-3.13,6.05-.06.6-.27,1.39-.45,1.71-.33.7-.21,2.83.33,5.63.6,3.04,3.01,6.75,5.15,7.86,3.8,1.96,4.52,2.26,6.63,2.59,3.79.57,11.02.24,12.59-.6.27-.15,1.39-.66,2.47-1.14,1.09-.51,2.5-1.33,3.16-1.84.66-.51,1.41-1.11,1.69-1.32,1.71-1.29,4.88-6.54,5.3-8.7.09-.54.33-1.18.51-1.42.21-.27.36-3.04.42-8.01l.12-7.59-1.63-.18c-2.2-.27-13.04-.18-16.36.12h0Z"/>
</svg>